$MeshFormat
2.2 0 8
$EndMeshFormat
$Nodes
150
1 0 0 0
2 0.02 0 0
3 0.02 0.03 0
4 0 0.03 0
5 0.002499999999999998 0 0
6 0.004999999999999998 0 0
7 0.007499999999999999 0 0
8 0.009999999999999998 0 0
9 0.0125 0 0
10 0.015 0 0
11 0.0175 0 0
12 0.02 0.002499999999999998 0
13 0.02 0.004999999999999998 0
14 0.02 0.007499999999999999 0
15 0.02 0.009999999999999998 0
16 0.02 0.0125 0
17 0.02 0.015 0
18 0.02 0.0175 0
19 0.02 0.02 0
20 0.02 0.0225 0
21 0.02 0.025 0
22 0.02 0.0275 0
23 0.0175 0.03 0
24 0.015 0.03 0
25 0.0125 0.03 0
26 0.01 0.03 0
27 0.007500000000000001 0.03 0
28 0.005000000000000001 0.03 0
29 0.002500000000000002 0.03 0
30 0 0.0275 0
31 0 0.025 0
32 0 0.0225 0
33 0 0.02 0
34 0 0.0175 0
35 0 0.015 0
36 0 0.0125 0
37 0 0.009999999999999995 0
38 0 0.007499999999999996 0
39 0 0.004999999999999994 0
40 0 0.002499999999999995 0
41 0.01005208873605911 0.01132324800603304 0
42 0.01060186776634026 0.02086124841437717 0
43 0.006270259094115076 0.006351546515877592 0
44 0.01384243646158589 0.006393414614094737 0
45 0.006359660478753228 0.01559090793626826 0
46 0.01392173390255591 0.01560072401662352 0
47 0.006135443600875446 0.02389580900674573 0
48 0.01459418537240603 0.02463268478432253 0
49 0.005190977059416171 0.0113257668262129 0
50 0.01567519012657905 0.01040685789015775 0
51 0.01571888774697133 0.0201638864510921 0
52 0.01018733247947464 0.02587673846572839 0
53 0.003958153378849616 0.02028243674628747 0
54 0.009890391737298916 0.004148134678020172 0
55 0.0100523113404211 0.01525895090681676 0
56 0.003494976860292921 0.004130623320906307 0
57 0.01651902159061141 0.003862184815837512 0
58 0.009299314508465327 0.00765777451568555 0
59 0.003808192215070992 0.02668561743913025 0
60 0.003298585805262091 0.008210047245634868 0
61 0.003317255446123992 0.0142414208283094 0
62 0.01684468538341715 0.01383453073501249 0
63 0.007502517382228359 0.01917990437612403 0
64 0.01656043055513223 0.007718191350511638 0
65 0.0167329745354133 0.02672527919259061 0
66 0.01264200155150145 0.008583315451326661 0
67 0.007695465070763343 0.01327837586780152 0
68 0.01686836744999462 0.01737315191352834 0
69 0.01295754067077176 0.002984950819664919 0
70 0.007187413458388928 0.003326586305963032 0
71 0.01261645290858705 0.01296546220533419 0
72 0.007425253723089249 0.02692549904211923 0
73 0.002911357892615977 0.02272404984551343 0
74 0.01194164625619843 0.01682225446779867 0
75 0.003053941947018728 0.01732548038085552 0
76 0.01695495263548633 0.02268332515382521 0
77 0.008457787793395578 0.02276513176784149 0
78 0.01277487873821493 0.02698863296964007 0
79 0.01244743771528758 0.02301891653351648 0
80 0.00679110440873301 0.009037652900208944 0
81 0.002442266694573309 0.0109254304163331 0
82 0.01773790369861282 0.01183141615778592 0
83 0.006430418312491003 0.02127941882611879 0
84 0.002031884315443334 0.006285529160208471 0
85 0.01329707761232346 0.0206695942568178 0
86 0.009542463005461034 0.01815884237410638 0
87 0.01103685662533277 0.006540944694516621 0
88 0.01785881429992277 0.005571920479934135 0
89 0.01788759909780106 0.0193466635828981 0
90 0.01414713253420602 0.01805294309577624 0
91 0.009352440771783745 0.02809373053052525 0
92 0.0108887575378569 0.002131969290399521 0
93 0.001830310242282735 0.02085132892580172 0
94 0.0177637827929131 0.02477974441021028 0
95 0.005522192021026106 0.02803546085547555 0
96 0.007741997939881697 0.01098429363760894 0
97 0.008541253953166418 0.005903855048808811 0
98 0.01483408580970324 0.02779483246273753 0
99 0.01451064669628416 0.008792019676082095 0
100 0.005590391993199475 0.0181421373976181 0
101 0.009093312546708948 0.001921338054876544 0
102 0.01460250821649495 0.02223368143591482 0
103 0.005078767055731041 0.01380615553576906 0
104 0.01484573870531532 0.01303934669679338 0
105 0.002025462502566371 0.02503060109011452 0
106 0.004999762511439108 0.002076873692263261 0
107 0.01496464793387125 0.002054473118966591 0
108 0.002109383279523614 0.002114370096121384 0
109 0.01792791067920189 0.002072089320798113 0
110 0.008021856074269116 0.02486177603468942 0
111 0.01183516376089409 0.01477876185460093 0
112 0.01059333650797333 0.01331788323549176 0
113 0.008113831634004144 0.01560466250509276 0
114 0.01805312213849753 0.01549482562043679 0
115 0.001720237783613314 0.01901267843239095 0
116 0.002001748680197511 0.02797212331332412 0
117 0.01587740434009909 0.005496685008952651 0
118 0.001894586048685294 0.01567996892833558 0
119 0.005294344412211168 0.004429767483218638 0
120 0.01829433207788107 0.0211578290769598 0
121 0.01799470487606482 0.009491293079691061 0
122 0.008583484450638328 0.02067461136299219 0
123 0.01116049138722215 0.02828314996840518 0
124 0.01067165516127258 0.009219841041451368 0
125 0.01300196769794268 0.01061858442388264 0
126 0.001506870969922351 0.008749999999999997 0
127 0.004214866975245609 0.006457079584510505 0
128 0.01233192064897057 0.02494198155439222 0
129 0.001565623580868454 0.00399828138633623 0
130 0.01818843505136788 0.02818843505136789 0
131 0.00187769156000292 0.01347347716380733 0
132 0.00424187672945737 0.02448999775810301 0
133 0.004847660312349933 0.009174342373534372 0
134 0.01846114931394721 0.003801238923313952 0
135 0.01593687146270232 0.01551127107407991 0
136 0.004297203108694585 0.01590641894615642 0
137 0.005859135727298047 0.02581569335604386 0
138 0.007530849344360799 0.01743039457151623 0
139 0.00868657484163487 0.009270158947296289 0
140 0.004818654479466174 0.02259680158985234 0
141 0.01859652981509273 0.01374089515441175 0
142 0.01432685154546437 0.004221254435516221 0
143 0.01180005827584682 0.004535818235580916 0
144 0.003766426583258922 0.02853864032158598 0
145 0.00791770136122294 0.007644197585575437 0
146 0.00360087148861399 0.01258894344551474 0
147 0.0185730509471378 0.02639375802730629 0
148 0.01190603743490584 0.01891297652177525 0
149 0.01034136707962296 0.02372096546175752 0
150 0.01645109907929689 0.02854170934133921 0
$EndNodes
$Elements
302
1 15 2 0 1 1
2 15 2 0 2 2
3 15 2 0 3 3
4 15 2 0 4 4
5 1 2 0 1 1 5
6 1 2 0 1 5 6
7 1 2 0 1 6 7
8 1 2 0 1 7 8
9 1 2 0 1 8 9
10 1 2 0 1 9 10
11 1 2 0 1 10 11
12 1 2 0 1 11 2
13 1 2 0 2 2 12
14 1 2 0 2 12 13
15 1 2 0 2 13 14
16 1 2 0 2 14 15
17 1 2 0 2 15 16
18 1 2 0 2 16 17
19 1 2 0 2 17 18
20 1 2 0 2 18 19
21 1 2 0 2 19 20
22 1 2 0 2 20 21
23 1 2 0 2 21 22
24 1 2 0 2 22 3
25 1 2 0 3 3 23
26 1 2 0 3 23 24
27 1 2 0 3 24 25
28 1 2 0 3 25 26
29 1 2 0 3 26 27
30 1 2 0 3 27 28
31 1 2 0 3 28 29
32 1 2 0 3 29 4
33 1 2 0 4 4 30
34 1 2 0 4 30 31
35 1 2 0 4 31 32
36 1 2 0 4 32 33
37 1 2 0 4 33 34
38 1 2 0 4 34 35
39 1 2 0 4 35 36
40 1 2 0 4 36 37
41 1 2 0 4 37 38
42 1 2 0 4 38 39
43 1 2 0 4 39 40
44 1 2 0 4 40 1
45 2 2 0 1 64 121 50
46 2 2 0 1 42 122 86
47 2 2 0 1 105 116 30
48 2 2 0 1 65 98 48
49 2 2 0 1 48 94 65
50 2 2 0 1 11 109 107
51 2 2 0 1 106 108 5
52 2 2 0 1 64 88 14
53 2 2 0 1 86 148 42
54 2 2 0 1 66 87 44
55 2 2 0 1 74 148 86
56 2 2 0 1 86 122 63
57 2 2 0 1 67 112 55
58 2 2 0 1 43 133 127
59 2 2 0 1 6 106 5
60 2 2 0 1 11 107 10
61 2 2 0 1 31 105 30
62 2 2 0 1 62 104 82
63 2 2 0 1 82 104 50
64 2 2 0 1 83 100 63
65 2 2 0 1 53 100 83
66 2 2 0 1 80 133 43
67 2 2 0 1 41 112 67
68 2 2 0 1 60 133 81
69 2 2 0 1 55 113 67
70 2 2 0 1 48 98 78
71 2 2 0 1 50 99 64
72 2 2 0 1 76 94 48
73 2 2 0 1 50 121 82
74 2 2 0 1 9 107 69
75 2 2 0 1 70 106 7
76 2 2 0 1 64 99 44
77 2 2 0 1 14 121 64
78 2 2 0 1 20 94 76
79 2 2 0 1 124 125 41
80 2 2 0 1 41 125 71
81 2 2 0 1 44 117 64
82 2 2 0 1 27 95 72
83 2 2 0 1 78 98 25
84 2 2 0 1 18 89 68
85 2 2 0 1 73 105 32
86 2 2 0 1 45 103 67
87 2 2 0 1 67 113 45
88 2 2 0 1 51 120 76
89 2 2 0 1 72 91 27
90 2 2 0 1 49 96 67
91 2 2 0 1 70 97 43
92 2 2 0 1 54 97 70
93 2 2 0 1 51 90 68
94 2 2 0 1 66 124 87
95 2 2 0 1 66 125 124
96 2 2 0 1 43 119 70
97 2 2 0 1 44 99 66
98 2 2 0 1 81 126 60
99 2 2 0 1 67 103 49
100 2 2 0 1 78 123 52
101 2 2 0 1 59 116 105
102 2 2 0 1 67 96 41
103 2 2 0 1 70 101 54
104 2 2 0 1 69 92 9
105 2 2 0 1 81 133 49
106 2 2 0 1 89 120 51
107 2 2 0 1 68 114 18
108 2 2 0 1 25 98 24
109 2 2 0 1 42 149 77
110 2 2 0 1 74 111 46
111 2 2 0 1 55 111 74
112 2 2 0 1 21 94 20
113 2 2 0 1 71 104 46
114 2 2 0 1 32 105 31
115 2 2 0 1 53 115 75
116 2 2 0 1 68 89 51
117 2 2 0 1 85 90 51
118 2 2 0 1 79 102 48
119 2 2 0 1 10 107 9
120 2 2 0 1 7 106 6
121 2 2 0 1 7 101 70
122 2 2 0 1 32 93 73
123 2 2 0 1 47 83 77
124 2 2 0 1 79 149 42
125 2 2 0 1 84 126 38
126 2 2 0 1 87 124 58
127 2 2 0 1 71 112 41
128 2 2 0 1 46 111 71
129 2 2 0 1 90 135 68
130 2 2 0 1 28 95 27
131 2 2 0 1 75 100 53
132 2 2 0 1 74 86 55
133 2 2 0 1 52 91 72
134 2 2 0 1 85 148 90
135 2 2 0 1 80 96 49
136 2 2 0 1 52 123 91
137 2 2 0 1 72 110 52
138 2 2 0 1 46 135 90
139 2 2 0 1 46 90 74
140 2 2 0 1 39 84 38
141 2 2 0 1 34 118 75
142 2 2 0 1 14 88 13
143 2 2 0 1 27 91 26
144 2 2 0 1 73 93 53
145 2 2 0 1 76 120 20
146 2 2 0 1 78 128 48
147 2 2 0 1 56 108 106
148 2 2 0 1 107 109 57
149 2 2 0 1 42 85 79
150 2 2 0 1 53 140 73
151 2 2 0 1 19 89 18
152 2 2 0 1 60 126 84
153 2 2 0 1 76 102 51
154 2 2 0 1 77 122 42
155 2 2 0 1 25 123 78
156 2 2 0 1 75 115 34
157 2 2 0 1 85 102 79
158 2 2 0 1 87 97 54
159 2 2 0 1 58 97 87
160 2 2 0 1 44 143 142
161 2 2 0 1 48 102 76
162 2 2 0 1 52 128 78
163 2 2 0 1 45 136 103
164 2 2 0 1 77 110 47
165 2 2 0 1 127 133 60
166 2 2 0 1 43 145 80
167 2 2 0 1 1 108 40
168 2 2 0 1 5 108 1
169 2 2 0 1 12 109 2
170 2 2 0 1 2 109 11
171 2 2 0 1 56 127 84
172 2 2 0 1 37 81 36
173 2 2 0 1 119 127 56
174 2 2 0 1 142 143 69
175 2 2 0 1 16 82 15
176 2 2 0 1 93 115 53
177 2 2 0 1 49 133 80
178 2 2 0 1 104 135 46
179 2 2 0 1 48 128 79
180 2 2 0 1 33 93 32
181 2 2 0 1 75 136 100
182 2 2 0 1 18 114 17
183 2 2 0 1 9 92 8
184 2 2 0 1 82 141 62
185 2 2 0 1 4 116 29
186 2 2 0 1 30 116 4
187 2 2 0 1 54 101 92
188 2 2 0 1 86 113 55
189 2 2 0 1 52 149 128
190 2 2 0 1 37 126 81
191 2 2 0 1 81 131 36
192 2 2 0 1 64 117 88
193 2 2 0 1 16 141 82
194 2 2 0 1 35 118 34
195 2 2 0 1 128 149 79
196 2 2 0 1 15 121 14
197 2 2 0 1 100 136 45
198 2 2 0 1 63 122 83
199 2 2 0 1 83 140 53
200 2 2 0 1 51 102 85
201 2 2 0 1 23 130 3
202 2 2 0 1 3 130 22
203 2 2 0 1 86 138 113
204 2 2 0 1 81 146 131
205 2 2 0 1 103 136 61
206 2 2 0 1 62 135 104
207 2 2 0 1 87 143 44
208 2 2 0 1 83 122 77
209 2 2 0 1 110 149 52
210 2 2 0 1 104 125 50
211 2 2 0 1 71 125 104
212 2 2 0 1 50 125 99
213 2 2 0 1 99 125 66
214 2 2 0 1 8 101 7
215 2 2 0 1 90 148 74
216 2 2 0 1 92 143 54
217 2 2 0 1 69 143 92
218 2 2 0 1 77 149 110
219 2 2 0 1 49 146 81
220 2 2 0 1 82 121 15
221 2 2 0 1 40 129 39
222 2 2 0 1 34 115 33
223 2 2 0 1 26 123 25
224 2 2 0 1 84 129 56
225 2 2 0 1 39 129 84
226 2 2 0 1 20 120 19
227 2 2 0 1 13 134 12
228 2 2 0 1 92 101 8
229 2 2 0 1 84 127 60
230 2 2 0 1 47 140 83
231 2 2 0 1 59 137 95
232 2 2 0 1 38 126 37
233 2 2 0 1 36 131 35
234 2 2 0 1 88 117 57
235 2 2 0 1 24 150 23
236 2 2 0 1 22 147 21
237 2 2 0 1 42 148 85
238 2 2 0 1 29 144 28
239 2 2 0 1 57 134 88
240 2 2 0 1 17 141 16
241 2 2 0 1 19 120 89
242 2 2 0 1 132 137 59
243 2 2 0 1 131 146 61
244 2 2 0 1 110 137 47
245 2 2 0 1 72 137 110
246 2 2 0 1 91 123 26
247 2 2 0 1 88 134 13
248 2 2 0 1 118 136 75
249 2 2 0 1 61 136 118
250 2 2 0 1 43 127 119
251 2 2 0 1 73 140 132
252 2 2 0 1 33 115 93
253 2 2 0 1 44 142 117
254 2 2 0 1 106 119 56
255 2 2 0 1 70 119 106
256 2 2 0 1 63 138 86
257 2 2 0 1 54 143 87
258 2 2 0 1 111 112 71
259 2 2 0 1 55 112 111
260 2 2 0 1 96 139 41
261 2 2 0 1 108 129 40
262 2 2 0 1 73 132 105
263 2 2 0 1 80 145 139
264 2 2 0 1 132 140 47
265 2 2 0 1 45 138 100
266 2 2 0 1 100 138 63
267 2 2 0 1 139 145 58
268 2 2 0 1 113 138 45
269 2 2 0 1 12 134 109
270 2 2 0 1 95 144 59
271 2 2 0 1 21 147 94
272 2 2 0 1 98 150 24
273 2 2 0 1 41 139 124
274 2 2 0 1 80 139 96
275 2 2 0 1 109 134 57
276 2 2 0 1 28 144 95
277 2 2 0 1 114 135 62
278 2 2 0 1 68 135 114
279 2 2 0 1 56 129 108
280 2 2 0 1 95 137 72
281 2 2 0 1 105 132 59
282 2 2 0 1 94 147 65
283 2 2 0 1 58 145 97
284 2 2 0 1 97 145 43
285 2 2 0 1 103 146 49
286 2 2 0 1 61 146 103
287 2 2 0 1 118 131 61
288 2 2 0 1 35 131 118
289 2 2 0 1 65 150 98
290 2 2 0 1 59 144 116
291 2 2 0 1 57 142 107
292 2 2 0 1 107 142 69
293 2 2 0 1 47 137 132
294 2 2 0 1 114 141 17
295 2 2 0 1 62 141 114
296 2 2 0 1 117 142 57
297 2 2 0 1 116 144 29
298 2 2 0 1 124 139 58
299 2 2 0 1 65 147 130
300 2 2 0 1 130 147 22
301 2 2 0 1 130 150 65
302 2 2 0 1 23 150 130
$EndElements
