$MeshFormat
2.2 0 8
$EndMeshFormat
$Nodes
15
1 0 0 0
2 0.02 0 0
3 0.02 0.03 0
4 0 0.03 0
5 0.009999999999999998 0 0
6 0.02 0.009999999999999998 0
7 0.02 0.02 0
8 0.01 0.03 0
9 0 0.02 0
10 0 0.009999999999999995 0
11 0.01 0.015 0
12 0.00727223032069971 0.006998906705539359 0
13 0.01272776967930029 0.02300109329446064 0
14 0.01345444606413994 0.006399781341107871 0
15 0.006545553935860059 0.02360021865889213 0
$EndNodes
$Elements
32
1 15 2 0 1 1
2 15 2 0 2 2
3 15 2 0 3 3
4 15 2 0 4 4
5 1 2 0 1 1 5
6 1 2 0 1 5 2
7 1 2 0 2 2 6
8 1 2 0 2 6 7
9 1 2 0 2 7 3
10 1 2 0 3 3 8
11 1 2 0 3 8 4
12 1 2 0 4 4 9
13 1 2 0 4 9 10
14 1 2 0 4 10 1
15 2 2 0 1 7 11 6
16 2 2 0 1 10 11 9
17 2 2 0 1 11 14 6
18 2 2 0 1 11 15 9
19 2 2 0 1 10 12 11
20 2 2 0 1 1 12 10
21 2 2 0 1 3 13 7
22 2 2 0 1 5 12 1
23 2 2 0 1 8 13 3
24 2 2 0 1 7 13 11
25 2 2 0 1 12 14 11
26 2 2 0 1 13 15 11
27 2 2 0 1 4 15 8
28 2 2 0 1 9 15 4
29 2 2 0 1 2 14 5
30 2 2 0 1 6 14 2
31 2 2 0 1 8 15 13
32 2 2 0 1 5 14 12
$EndElements
