$MeshFormat
2.2 0 8
$EndMeshFormat
$Nodes
547
1 0 0 0
2 0.02 0 0
3 0.02 0.03 0
4 0 0.03 0
5 0.001249999999999999 0 0
6 0.002499999999999998 0 0
7 0.003749999999999998 0 0
8 0.004999999999999998 0 0
9 0.006249999999999998 0 0
10 0.007499999999999999 0 0
11 0.008749999999999999 0 0
12 0.009999999999999998 0 0
13 0.01125 0 0
14 0.0125 0 0
15 0.01375 0 0
16 0.015 0 0
17 0.01625 0 0
18 0.0175 0 0
19 0.01875 0 0
20 0.02 0.001249999999999999 0
21 0.02 0.002499999999999998 0
22 0.02 0.003749999999999998 0
23 0.02 0.004999999999999998 0
24 0.02 0.006249999999999998 0
25 0.02 0.007499999999999999 0
26 0.02 0.008749999999999999 0
27 0.02 0.009999999999999998 0
28 0.02 0.01125 0
29 0.02 0.0125 0
30 0.02 0.01375 0
31 0.02 0.015 0
32 0.02 0.01625 0
33 0.02 0.0175 0
34 0.02 0.01875 0
35 0.02 0.02 0
36 0.02 0.02125 0
37 0.02 0.0225 0
38 0.02 0.02375000000000001 0
39 0.02 0.025 0
40 0.02 0.02625 0
41 0.02 0.0275 0
42 0.02 0.02875 0
43 0.01875 0.03 0
44 0.0175 0.03 0
45 0.01625 0.03 0
46 0.015 0.03 0
47 0.01375 0.03 0
48 0.0125 0.03 0
49 0.01125 0.03 0
50 0.01 0.03 0
51 0.008750000000000001 0.03 0
52 0.007500000000000001 0.03 0
53 0.006250000000000002 0.03 0
54 0.005000000000000001 0.03 0
55 0.00375 0.03 0
56 0.002500000000000002 0.03 0
57 0.001250000000000001 0.03 0
58 0 0.02875 0
59 0 0.0275 0
60 0 0.02625 0
61 0 0.025 0
62 0 0.02375 0
63 0 0.0225 0
64 0 0.02125 0
65 0 0.02 0
66 0 0.01875 0
67 0 0.0175 0
68 0 0.01625 0
69 0 0.015 0
70 0 0.01375 0
71 0 0.0125 0
72 0 0.01125 0
73 0 0.009999999999999995 0
74 0 0.008749999999999997 0
75 0 0.007499999999999996 0
76 0 0.006249999999999992 0
77 0 0.004999999999999994 0
78 0 0.003749999999999996 0
79 0 0.002499999999999995 0
80 0 0.001250000000000001 0
81 0.01005148248602946 0.01937268274347502 0
82 0.009707537981289739 0.009693268374786249 0
83 0.01380099810269408 0.01423507824318635 0
84 0.006295806070920821 0.01449884359214009 0
85 0.006265640364838145 0.02383877179171379 0
86 0.01415425078164812 0.02384455958495177 0
87 0.01429645832072028 0.005869234591539216 0
88 0.005622344694078778 0.005682767209903437 0
89 0.01508788877934291 0.01915709548831589 0
90 0.004794249815056147 0.01929403628594623 0
91 0.004635085409711503 0.01016718541482984 0
92 0.01554390134297277 0.01019890872201798 0
93 0.009932113864618989 0.004440681202335917 0
94 0.01008039626350562 0.02569683948352663 0
95 0.01008509478813451 0.01370740106680777 0
96 0.0164744923445307 0.0265165706290302 0
97 0.003520668852226601 0.026561980273315 0
98 0.01655009805929167 0.003577163171196704 0
99 0.01645699979935222 0.01635879925810156 0
100 0.003319919984490714 0.00318629340029066 0
101 0.01669881880779336 0.0220703872400508 0
102 0.01097784292606564 0.02260159428899611 0
103 0.003292871896366789 0.01636124822035302 0
104 0.003269599667819509 0.02220173096296925 0
105 0.01254561491315818 0.01132416598252936 0
106 0.003294327513720743 0.01288289266627268 0
107 0.01242196112149505 0.01703048337901189 0
108 0.007370633829303853 0.01740709457168096 0
109 0.01690461267570207 0.01294732787090301 0
110 0.007397222917745583 0.02128669577562262 0
111 0.01687024014071811 0.007394231640292485 0
112 0.01288535406515542 0.02689477712304323 0
113 0.007044459563041753 0.02692516361203466 0
114 0.007367060730368387 0.01178659037841094 0
115 0.00312690709218506 0.007492470790478007 0
116 0.01257019754560896 0.003117807227116845 0
117 0.0113666690056443 0.007136673639218882 0
118 0.00715726211411852 0.003137022725459347 0
119 0.008127087642602844 0.00704114255558011 0
120 0.01258835410938297 0.02030297769511522 0
121 0.009916826479130761 0.01628897490983688 0
122 0.01320234826758301 0.008955244005007183 0
123 0.007044068815374967 0.009223316862572096 0
124 0.008579885490432175 0.02351946813967683 0
125 0.01750815973824591 0.01852176160837473 0
126 0.002428013005656048 0.01857355095758414 0
127 0.01763080153228938 0.0243225755969243 0
128 0.002307407610805969 0.02446249578873909 0
129 0.002360506588676166 0.01087247439765451 0
130 0.01769931895093755 0.01093619269791076 0
131 0.01059069980673311 0.002229889719604021 0
132 0.01458270784076942 0.0217103173414387 0
133 0.002171458809637736 0.005178772079872941 0
134 0.01464069538805907 0.01235136284372418 0
135 0.01076543305869348 0.02790179935068185 0
136 0.01786448205877177 0.005361026322945878 0
137 0.01162387376564426 0.01504477196145016 0
138 0.005459516882237577 0.00783015087780399 0
139 0.01481654436029144 0.002041498519749661 0
140 0.005331713145254297 0.01259946375634711 0
141 0.005094229558643114 0.002050550075597844 0
142 0.01445891956870254 0.01647367617400613 0
143 0.01194136248088048 0.02449031529724194 0
144 0.005262923767819667 0.01721602468668788 0
145 0.008240714895822366 0.01498166607339542 0
146 0.01500371228747731 0.02788728657196751 0
147 0.00499628771252269 0.02788728657196751 0
148 0.005256200067042309 0.02187290724207357 0
149 0.01210589940917148 0.005180437050317241 0
150 0.01811769109433106 0.02810311918309757 0
151 0.001929329752343925 0.02807234781859681 0
152 0.007644553292734555 0.005031177839578967 0
153 0.01028195863832356 0.0116503004548793 0
154 0.01804854563656786 0.02057967327199837 0
155 0.01811859360399321 0.001853659777681083 0
156 0.001918077997538521 0.02068531198397271 0
157 0.01494312320468228 0.007767648832103948 0
158 0.002096015577077184 0.01474842122723844 0
159 0.009386902861471319 0.02128486435376747 0
160 0.01790053417593292 0.01467409896708732 0
161 0.008808905189821237 0.02798573979824573 0
162 0.001801052058338196 0.001794341592174953 0
163 0.005538806789747356 0.0258419372088876 0
164 0.0145682819182854 0.02581125045671377 0
165 0.0180627514623312 0.008931720127856788 0
166 0.001853051141345858 0.008944535172497133 0
167 0.006707367175345594 0.01930530550457938 0
168 0.01569000825215091 0.01451664243654589 0
169 0.004182940824729035 0.02395338224759716 0
170 0.004215839101726009 0.0147069268051464 0
171 0.01463192344389632 0.004151461907005365 0
172 0.008727991719348488 0.001892830201819479 0
173 0.01583140970663135 0.02374825862350705 0
174 0.008159825149054892 0.02534208761756374 0
175 0.01176448569247556 0.0131168451138947 0
176 0.01157929522500754 0.009659936960618261 0
177 0.01595802648448805 0.005601200223487137 0
178 0.01274025444250974 0.02253958035322755 0
179 0.005187247194753494 0.004014182103836769 0
180 0.01829679582573109 0.0168956707776587 0
181 0.01817531459075824 0.02602738548306133 0
182 0.001866000740281719 0.02603903488222424 0
183 0.003928868656433189 0.005932266322322435 0
184 0.001693834224207484 0.01706768334805919 0
185 0.009915264142051647 0.007917821344536415 0
186 0.009953361185653316 0.005941702102807688 0
187 0.01080525212049581 0.01783921078306147 0
188 0.01340051093812564 0.01877546846439111 0
189 0.01304885754269586 0.007095883502126723 0
190 0.01607426078939499 0.0201500503104972 0
191 0.01813046214842268 0.02259668273369143 0
192 0.0183614567883898 0.003677159138225788 0
193 0.008238335117852654 0.01326533395193113 0
194 0.009071495001775395 0.0181248648612531 0
195 0.002042000816155388 0.02263059579197861 0
196 0.00363678930414667 0.02043578432509418 0
197 0.01626132090886672 0.00159178171237441 0
198 0.00844675293031049 0.01972015710418883 0
199 0.01619912439364841 0.01774072503834551 0
200 0.001685918319487129 0.003777098717824738 0
201 0.01096791972775188 0.02074899939775253 0
202 0.001724616737825284 0.006835722402263896 0
203 0.0100419921639647 0.02400921323328763 0
204 0.001871499645890909 0.0126291486215432 0
205 0.003676859805690148 0.001705434806494755 0
206 0.01811527740819928 0.006772531856174683 0
207 0.01372649185733471 0.0106057367870867 0
208 0.006782260468399924 0.007073754397142069 0
209 0.007147473971062794 0.02273083550728628 0
210 0.008275678327193926 0.01040951378914806 0
211 0.01820194204265576 0.01239768112119498 0
212 0.0122454848138171 0.00167087514868295 0
213 0.01636713130192715 0.02836912955281285 0
214 0.003632868698072847 0.02836912955281285 0
215 0.003737408914172851 0.01138638621644292 0
216 0.00687814601648446 0.02892431420545878 0
217 0.01301489718443661 0.0285817838438108 0
218 0.005998996238381902 0.01043293554469951 0
219 0.003714267768912824 0.009293001211927273 0
220 0.007141154996250513 0.01632019566669101 0
221 0.003961218857259412 0.01787344488582844 0
222 0.006865498506736751 0.001060642106191561 0
223 0.01667620382897315 0.0089131994916163 0
224 0.01332844050935515 0.01612990705314511 0
225 0.01647257889892336 0.01156352599651501 0
226 0.01151475450094542 0.02613275386079807 0
227 0.01326786543231212 0.01292531773473488 0
228 0.00868109716018392 0.003186439143700122 0
229 0.01118508716578709 0.003463418080865605 0
230 0.0121607905454556 0.01921088652309219 0
231 0.008301411870694381 0.008803999922426737 0
232 0.00671008078598187 0.01324632533852308 0
233 0.008727516684463414 0.01198884088222372 0
234 0.01311447535132454 0.02538434615235414 0
235 0.005743991986441805 0.02045687457264733 0
236 0.01391257463447891 0.02040326511522117 0
237 0.008443953268028336 0.01629879377439439 0
238 0.006416501764631082 0.004257745619694447 0
239 0.01331369555775308 0.004358201463415978 0
240 0.0112698688164626 0.01650005883470007 0
241 0.01354151688437825 0.001337931059106623 0
242 0.006708933477066584 0.02518133331205622 0
243 0.005263275637750535 0.01612244907897244 0
244 0.01583022415822215 0.02522278982516333 0
245 0.009003751523040898 0.02678285693815122 0
246 0.01024138714759234 0.01499483369834353 0
247 0.0144890515590369 0.0178836612299871 0
248 0.01869310408601075 0.01938670135834071 0
249 0.01178786180805243 0.008385065031401311 0
250 0.005679052292917872 0.009167471868212049 0
251 0.001267703656456835 0.01950479194510253 0
252 0.01458032696200263 0.009128183198982986 0
253 0.004188711145399886 0.02533904184290774 0
254 0.01178383597764817 0.02874558976838051 0
255 0.003435311601932396 0.004668708456518034 0
256 0.009621839501801326 0.02256471129009775 0
257 0.008424280183363522 0.02203153898272562 0
258 0.007373360216023802 0.02405847457240188 0
259 0.008766490920108451 0.005372779091336216 0
260 0.001356491399792294 0.01371399680958682 0
261 0.001212771957330321 0.0158192481394399 0
262 0.01479414430444452 0.02295160077965388 0
263 0.006241531206154632 0.0180847931691869 0
264 0.01866443033217191 0.01364140965709705 0
265 0.009892504696188964 0.0287042694867118 0
266 0.01187877486688816 0.02147851213666752 0
267 0.001291866402212748 0.01013426446790352 0
268 0.01888562451739984 0.0157225518611426 0
269 0.01867023875886939 0.01003390516197324 0
270 0.01085888221178768 0.00533050445839643 0
271 0.01625278415377837 0.01891172427073507 0
272 0.007530936642447406 0.008034915273931263 0
273 0.01486285223075604 0.01360003296651906 0
274 0.01867180574273111 0.0214775910578924 0
275 0.01670158376355914 0.004745712623552544 0
276 0.01240985978788356 0.01404569854137656 0
277 0.01889725897415226 0.02437500000000001 0
278 0.01052684557237297 0.008968749608877417 0
279 0.003582957782335264 0.0193197218497022 0
280 0.001126576137859851 0.02178505174821547 0
281 0.005138340100493294 0.01384653703265201 0
282 0.01885507691788511 0.01802451317402048 0
283 0.009807648396607842 0.001419122301129123 0
284 0.005155499864569184 0.01138393008244082 0
285 0.001065533610512202 0.0181085608797165 0
286 0.001084788873353502 0.02438372890825683 0
287 0.01539460341082297 0.01559915970437211 0
288 0.001046744988789766 0.00800862774468474 0
289 0.004930790314594031 0.006665331358402707 0
290 0.01402862091170225 0.003195168293335278 0
291 0.004190290832673296 0.02273488992247913 0
292 0.01586352006128262 0.02136449664231092 0
293 0.01698705745037269 0.02335780274712538 0
294 0.0135686210933873 0.01179671056342394 0
295 0.0009205195260039 0.005784113268283004 0
296 0.0188784674170497 0.02690956328415655 0
297 0.01891596425996582 0.007972952056894692 0
298 0.01672549795802734 0.01018429713445347 0
299 0.00343499455492751 0.01028144183797097 0
300 0.01324341879843628 0.02156178951853049 0
301 0.003008595046871503 0.02347068631088801 0
302 0.01720570080208968 0.02550388797605176 0
303 0.005738040165589792 0.003102042319250506 0
304 0.01721535234714793 0.01730517445222792 0
305 0.005624999999999997 0.00104670347527127 0
306 0.01685635689564506 0.01420794911908479 0
307 0.01905610032557214 0.005796351488762393 0
308 0.009093390589772639 0.02466904500864649 0
309 0.008018035323073731 0.02890422332062569 0
310 0.009936650763735086 0.003203812144952979 0
311 0.001153937320004182 0.02695917951605881 0
312 0.01227532129754449 0.006342002103227789 0
313 0.01303914961044037 0.02392518797967406 0
314 0.002816114456355281 0.02551911037887536 0
315 0.007936628361375594 0.01867644134149751 0
316 0.01902746649952217 0.0290270945889313 0
317 0.001202411920684598 0.02879758807931541 0
318 0.01434861622574068 0.02888998296362682 0
319 0.005633557641079499 0.02894707135723481 0
320 0.01507309922175729 0.006367385812301476 0
321 0.01271744008308228 0.01005247422876453 0
322 0.01003771276850519 0.02687871754295801 0
323 0.007632533565954515 0.01421717951607106 0
324 0.002799689670548261 0.01737151344028088 0
325 0.01534178305546347 0.02662674935754172 0
326 0.004680810492070264 0.02669134249742151 0
327 0.01415755677599034 0.02689438100884951 0
328 0.005818803351769777 0.02689394675635001 0
329 0.001301253470247187 0.01174213289590275 0
330 0.009195070780624095 0.01072731475940818 0
331 0.01532457320887817 0.0009640286514607001 0
332 0.003103811565468474 0.01429674225747914 0
333 0.01902134890782135 0.01136888264281469 0
334 0.01458331189060054 0.0111289100931832 0
335 0.004108323849235605 0.007945132750647543 0
336 0.01151531822784757 0.01086061442740301 0
337 0.01105368038827459 0.00123036671434036 0
338 0.004028506565324661 0.02148218373980421 0
339 0.01534131137334993 0.003279097732594645 0
340 0.01696555220512821 0.006147034695596677 0
341 0.01572950838917003 0.01282947227227664 0
342 0.01182513761702177 0.02751842983369348 0
343 0.01884226247104941 0.001157737528950589 0
344 0.002851064965934889 0.006364474437778425 0
345 0.01112817329772025 0.0139415450657307 0
346 0.001086398777816017 0.002776017161798826 0
347 0.006470587794239244 0.01184705957857176 0
348 0.007942757097576062 0.001057507887619245 0
349 0.01068831935338471 0.01279638164938547 0
350 0.005295418557556822 0.02463740641710933 0
351 0.00266943474947908 0.01194136922387615 0
352 0.004456606362522852 0.003000040142297076 0
353 0.01479017270484088 0.0247258185684678 0
354 0.01888379048390578 0.002720806936670764 0
355 0.004680753809998581 0.00508341354206383 0
356 0.01345856934987549 0.01742039238174969 0
357 0.006234744402452115 0.0167916946627559 0
358 0.007820862187522152 0.006051644260343624 0
359 0.006499167020275549 0.008265921855932293 0
360 0.01412900141373113 0.01531014603797198 0
361 0.01757554782025181 0.02685141685644312 0
362 0.01194546261738482 0.0233364274578907 0
363 0.01758223278449593 0.01595209475037531 0
364 0.004312623324134383 0.01308483725995165 0
365 0.01731608856284724 0.001106495707557416 0
366 0.01498671183019632 0.005173202190012067 0
367 0.006057682070201554 0.02274397346749908 0
368 0.006373167186762891 0.02161143910032805 0
369 0.01735347256503618 0.02889288041859758 0
370 0.002646527434963827 0.02889288041859758 0
371 0.001107425675688495 0.001107425675688499 0
372 0.002473033827081224 0.02689412551503809 0
373 0.00462921787286665 0.0009605376714727741 0
374 0.01501362390857336 0.02037057971451679 0
375 0.01731961314205469 0.01196118192163094 0
376 0.004401069416587974 0.01663990906580886 0
377 0.009155089579862663 0.01533736150668717 0
378 0.01093533441654594 0.0249463635322427 0
379 0.002660965567499569 0.001095503226648755 0
380 0.01726757675330259 0.01973635130780932 0
381 0.01900324406607399 0.004519550753453797 0
382 0.01160802548818336 0.002527102185846439 0
383 0.01153755490171526 0.01202643687977878 0
384 0.009029292228563883 0.01416225818046332 0
385 0.002297026194899835 0.02172028911299399 0
386 0.004602542810335007 0.02904069749640303 0
387 0.01539389196302903 0.02902927981768143 0
388 0.007716180423713612 0.02777146273700649 0
389 0.01767414377840282 0.02157545934034889 0
390 0.01596756718232195 0.007962409758138141 0
391 0.002409227918701217 0.0161137147734587 0
392 0.0110190544665155 0.01971560725632889 0
393 0.01381052592031491 0.008050646149421258 0
394 0.007771563697763755 0.003979487206452942 0
395 0.005168759951376461 0.0182715581737993 0
396 0.008405380648152183 0.02079039589543429 0
397 0.002660403016876541 0.01996965268988161 0
398 0.01218429030751133 0.00410349512419397 0
399 0.009260004030931638 0.02006232681446263 0
400 0.002246854462593612 0.002934123670545869 0
401 0.01326024694181099 0.005772016845934889 0
402 0.0008624715583710422 0.02064503113545814 0
403 0.01772808742003751 0.007996927034566989 0
404 0.01754818361968364 0.002987196174008246 0
405 0.01538198778620817 0.01705650591898014 0
406 0.01580896952213616 0.02260646183284892 0
407 0.01044868686084906 0.02156312678571714 0
408 0.0009555793310257535 0.004697996813196135 0
409 0.01907875682826149 0.02052957621738765 0
410 0.004657471643120165 0.008953999514523806 0
411 0.0104619341523607 0.01033851585816244 0
412 0.002144309726718198 0.007929923343113984 0
413 0.0009934853036313949 0.02563749531732137 0
414 0.004641863536578611 0.02038232392705738 0
415 0.0140720518586636 0.006820469288904585 0
416 0.003300753816832335 0.02454894331380147 0
417 0.005147715350342979 0.02340335473715152 0
418 0.006532313790758595 0.005626229625301278 0
419 0.003223803830513857 0.01530890529014637 0
420 0.007663426438639619 0.002100144185397229 0
421 0.01666801759140712 0.02443944307328637 0
422 0.0009843922139571859 0.01465624999300739 0
423 0.01909011780510093 0.01455761209706539 0
424 0.01909852357603304 0.02561491064227262 0
425 0.009537982621675031 0.01284373710306047 0
426 0.009123308183933868 0.01905642828411795 0
427 0.01375842890328215 0.02284395255968284 0
428 0.002573502418740482 0.009705904920642654 0
429 0.007312456189625506 0.01065197117941775 0
430 0.007458453642677295 0.02006947028394785 0
431 0.01569494249246357 0.004421306307974746 0
432 0.01664678921973333 0.01521812403926116 0
433 0.0008963995177035163 0.009183631579587388 0
434 0.01770557522442155 0.01357369334707343 0
435 0.002326625971805251 0.01364612845493705 0
436 0.01444517113184688 0.0008553331697172921 0
437 0.009363559924574456 0.007043285955658694 0
438 0.01083039917424065 0.02908063492461797 0
439 0.01905782282660836 0.02325310178736238 0
440 0.01909332506523139 0.009117446047542742 0
441 0.01609973125803874 0.02739954663953213 0
442 0.003900268741961276 0.02739954663953213 0
443 0.003789190975676555 0.006879935131925823 0
444 0.01041232013218205 0.007047654743618029 0
445 0.0160507367479491 0.006800558548605269 0
446 0.01760807420551725 0.009821789618744574 0
447 0.009804487039359211 0.01730902156811266 0
448 0.002645511779836681 0.004055555297939084 0
449 0.007741750442534126 0.02625651510862448 0
450 0.009973486293180633 0.01838209683983062 0
451 0.005752190343965381 0.01906508152871138 0
452 0.01253682840660969 0.01223789525487233 0
453 0.009615976917472057 0.002301031280223562 0
454 0.01760822344981614 0.004313644312435243 0
455 0.000993944672238083 0.02312915212515389 0
456 0.008981784933045696 0.02905281083925787 0
457 0.006357242797287966 0.00208285081452796 0
458 0.0133890750068236 0.002383533363934645 0
459 0.0007425686102466317 0.016875 0
460 0.01553077572717958 0.008806600573904221 0
461 0.01926294604656727 0.016875 0
462 0.006347905784768633 0.02789154087334204 0
463 0.01388202730776007 0.02782964230225957 0
464 0.01175899562775608 0.01798519271314507 0
465 0.01132620930231882 0.006173584254059573 0
466 0.01821752688757961 0.02512008995414988 0
467 0.006551043211778707 0.02620138511789079 0
468 0.008934461284726213 0.0009285515121280358 0
469 0.00521121080201127 0.01506679096157161 0
470 0.008798632851933432 0.007883809113480064 0
471 0.007064040143044919 0.01836840864673619 0
472 0.01081685270315567 0.007912918220770481 0
473 0.004215967790739608 0.003990527529001274 0
474 0.008624788707005991 0.004397221699139671 0
475 0.01088521943416779 0.02683375574036442 0
476 0.005658728239113145 0.004871040475535156 0
477 0.006253981720965853 0.01566472383751701 0
478 0.009722718872202689 0.02774101233716791 0
479 0.009056828532675462 0.02563730162991776 0
480 0.01275544580623317 0.008153968034699918 0
481 0.0127550341252957 0.0008464886790682177 0
482 0.01233015767442222 0.01592190366551788 0
483 0.01125325459177531 0.004503707183221833 0
484 0.01331187794128026 0.01970800468736058 0
485 0.01416489051806891 0.0193169511262056 0
486 0.008806272372092243 0.006290110793145266 0
487 0.008753536482571836 0.009621447177554556 0
488 0.007486599676865515 0.01264039285800345 0
489 0.01215321944841142 0.02544612978840758 0
490 0.0170248183252079 0.02770955989166064 0
491 0.009425148951516204 0.008791966165789991 0
492 0.008408782429117112 0.0174422412881213 0
493 0.0009058489031860788 0.01286705566540655 0
494 0.01920472500218059 0.02805795541123709 0
495 0.008169557822063332 0.01120821694480961 0
496 0.01410957236888995 0.005026419804362988 0
497 0.005865445230013781 0.006575646693710696 0
498 0.002741130375722447 0.002143139339230998 0
499 0.01096151025657218 0.01875094614315554 0
500 0.008301615361320876 0.02439726883457224 0
501 0.01264931320064366 0.01819149834353894 0
502 0.01693781097112404 0.02091273635216925 0
503 0.01188558371321209 0.02248902855919548 0
504 0.01295693776615477 0.01505450220725301 0
505 0.01388048671213828 0.02487228424662296 0
506 0.0118759710880382 0.0007133435904484522 0
507 0.00424697266715296 0.01566447018158888 0
508 0.0008024714742852716 0.02798941173319541 0
509 0.002984767034442845 0.02772567720310017 0
510 0.001813559396885572 0.02520837305508337 0
511 0.01076298905220749 0.01570715985108266 0
512 0.01619890319852826 0.002589774714858361 0
513 0.000762673105712432 0.001912131768892027 0
514 0.0137212309645788 0.02597140779751672 0
515 0.002968400457767624 0.02108249213578599 0
516 0.004366314552370291 0.01226750199629104 0
517 0.01796884620725251 0.01768678000307046 0
518 0.001887347403884888 0.02361533178500329 0
519 0.012364061531548 0.009160789394211504 0
520 0.0006980079091936185 0.006875353409717509 0
521 0.01914760964037724 0.01280633258330886 0
522 0.01478115562902426 0.01456739276574929 0
523 0.01606946517828191 0.01367361103411764 0
524 0.006736040581794634 0.02054595704742505 0
525 0.01018900840559147 0.02045793455858395 0
526 0.01925636269064469 0.006863119343118824 0
527 0.01923645815518493 0.001911644643601274 0
528 0.01817633651363639 0.0236084566240593 0
529 0.01489249437439122 0.02381755938914512 0
530 0.001872140060853998 0.0007265301041531943 0
531 0.01542818466334097 0.01818796288064295 0
532 0.01915496800168262 0.02225884390480317 0
533 0.01444761723702825 0.01013425100828847 0
534 0.01224683109203405 0.007422718462134926 0
535 0.003935799923560921 0.01383353642654839 0
536 0.01809864550184386 0.0007243103596475987 0
537 0.01708861797878381 0.002025781617295901 0
538 0.01539399918194515 0.0116144359855434 0
539 0.01116839892096832 0.02387678276193182 0
540 0.003130466428880902 0.005514007505447963 0
541 0.002944632581307939 0.008461917455597651 0
542 0.01373484488140618 0.009775177845625973 0
543 0.007917448031303375 0.009689127170015825 0
544 0.007334690752990401 0.01533023374336816 0
545 0.01812399523450867 0.02930090221144856 0
546 0.001890758663008084 0.02935611056771191 0
547 0.01170472121465604 0.02025926311566174 0
$EndNodes
$Elements
1096
1 15 2 0 1 1
2 15 2 0 2 2
3 15 2 0 3 3
4 15 2 0 4 4
5 1 2 0 1 1 5
6 1 2 0 1 5 6
7 1 2 0 1 6 7
8 1 2 0 1 7 8
9 1 2 0 1 8 9
10 1 2 0 1 9 10
11 1 2 0 1 10 11
12 1 2 0 1 11 12
13 1 2 0 1 12 13
14 1 2 0 1 13 14
15 1 2 0 1 14 15
16 1 2 0 1 15 16
17 1 2 0 1 16 17
18 1 2 0 1 17 18
19 1 2 0 1 18 19
20 1 2 0 1 19 2
21 1 2 0 2 2 20
22 1 2 0 2 20 21
23 1 2 0 2 21 22
24 1 2 0 2 22 23
25 1 2 0 2 23 24
26 1 2 0 2 24 25
27 1 2 0 2 25 26
28 1 2 0 2 26 27
29 1 2 0 2 27 28
30 1 2 0 2 28 29
31 1 2 0 2 29 30
32 1 2 0 2 30 31
33 1 2 0 2 31 32
34 1 2 0 2 32 33
35 1 2 0 2 33 34
36 1 2 0 2 34 35
37 1 2 0 2 35 36
38 1 2 0 2 36 37
39 1 2 0 2 37 38
40 1 2 0 2 38 39
41 1 2 0 2 39 40
42 1 2 0 2 40 41
43 1 2 0 2 41 42
44 1 2 0 2 42 3
45 1 2 0 3 3 43
46 1 2 0 3 43 44
47 1 2 0 3 44 45
48 1 2 0 3 45 46
49 1 2 0 3 46 47
50 1 2 0 3 47 48
51 1 2 0 3 48 49
52 1 2 0 3 49 50
53 1 2 0 3 50 51
54 1 2 0 3 51 52
55 1 2 0 3 52 53
56 1 2 0 3 53 54
57 1 2 0 3 54 55
58 1 2 0 3 55 56
59 1 2 0 3 56 57
60 1 2 0 3 57 4
61 1 2 0 4 4 58
62 1 2 0 4 58 59
63 1 2 0 4 59 60
64 1 2 0 4 60 61
65 1 2 0 4 61 62
66 1 2 0 4 62 63
67 1 2 0 4 63 64
68 1 2 0 4 64 65
69 1 2 0 4 65 66
70 1 2 0 4 66 67
71 1 2 0 4 67 68
72 1 2 0 4 68 69
73 1 2 0 4 69 70
74 1 2 0 4 70 71
75 1 2 0 4 71 72
76 1 2 0 4 72 73
77 1 2 0 4 73 74
78 1 2 0 4 74 75
79 1 2 0 4 75 76
80 1 2 0 4 76 77
81 1 2 0 4 77 78
82 1 2 0 4 78 79
83 1 2 0 4 79 80
84 1 2 0 4 80 1
85 2 2 0 1 203 256 102
86 2 2 0 1 124 256 203
87 2 2 0 1 220 237 108
88 2 2 0 1 126 285 184
89 2 2 0 1 447 492 237
90 2 2 0 1 111 403 223
91 2 2 0 1 223 403 165
92 2 2 0 1 218 250 123
93 2 2 0 1 91 250 218
94 2 2 0 1 134 273 227
95 2 2 0 1 227 273 83
96 2 2 0 1 401 415 189
97 2 2 0 1 48 217 47
98 2 2 0 1 53 216 52
99 2 2 0 1 186 259 93
100 2 2 0 1 60 413 311
101 2 2 0 1 121 447 237
102 2 2 0 1 87 415 401
103 2 2 0 1 84 281 232
104 2 2 0 1 232 281 140
105 2 2 0 1 192 354 22
106 2 2 0 1 93 270 186
107 2 2 0 1 191 293 101
108 2 2 0 1 184 324 126
109 2 2 0 1 103 376 221
110 2 2 0 1 104 301 195
111 2 2 0 1 206 340 136
112 2 2 0 1 143 313 234
113 2 2 0 1 10 222 9
114 2 2 0 1 29 521 333
115 2 2 0 1 311 413 182
116 2 2 0 1 89 271 190
117 2 2 0 1 17 365 197
118 2 2 0 1 148 414 235
119 2 2 0 1 110 257 209
120 2 2 0 1 197 331 17
121 2 2 0 1 125 271 199
122 2 2 0 1 141 352 205
123 2 2 0 1 205 352 100
124 2 2 0 1 111 340 206
125 2 2 0 1 190 374 89
126 2 2 0 1 78 346 200
127 2 2 0 1 22 381 192
128 2 2 0 1 101 389 191
129 2 2 0 1 118 420 228
130 2 2 0 1 228 420 172
131 2 2 0 1 29 333 28
132 2 2 0 1 48 254 217
133 2 2 0 1 243 357 144
134 2 2 0 1 27 333 269
135 2 2 0 1 187 447 240
136 2 2 0 1 205 379 7
137 2 2 0 1 221 324 103
138 2 2 0 1 28 333 27
139 2 2 0 1 338 414 148
140 2 2 0 1 184 391 324
141 2 2 0 1 133 408 200
142 2 2 0 1 73 267 72
143 2 2 0 1 292 406 132
144 2 2 0 1 132 406 262
145 2 2 0 1 132 427 300
146 2 2 0 1 388 449 245
147 2 2 0 1 315 430 167
148 2 2 0 1 244 325 164
149 2 2 0 1 96 325 244
150 2 2 0 1 213 369 45
151 2 2 0 1 55 370 214
152 2 2 0 1 313 505 234
153 2 2 0 1 161 388 245
154 2 2 0 1 267 329 72
155 2 2 0 1 324 391 103
156 2 2 0 1 240 447 121
157 2 2 0 1 195 385 104
158 2 2 0 1 243 477 357
159 2 2 0 1 209 257 124
160 2 2 0 1 193 384 323
161 2 2 0 1 94 308 203
162 2 2 0 1 136 307 206
163 2 2 0 1 329 493 71
164 2 2 0 1 43 316 3
165 2 2 0 1 3 316 42
166 2 2 0 1 58 317 4
167 2 2 0 1 4 317 57
168 2 2 0 1 202 295 133
169 2 2 0 1 112 342 226
170 2 2 0 1 197 512 139
171 2 2 0 1 209 258 85
172 2 2 0 1 124 258 209
173 2 2 0 1 203 378 94
174 2 2 0 1 202 344 115
175 2 2 0 1 133 344 202
176 2 2 0 1 99 304 199
177 2 2 0 1 105 321 207
178 2 2 0 1 119 272 208
179 2 2 0 1 323 384 145
180 2 2 0 1 102 407 266
181 2 2 0 1 102 539 203
182 2 2 0 1 226 489 112
183 2 2 0 1 139 331 197
184 2 2 0 1 199 304 125
185 2 2 0 1 193 425 384
186 2 2 0 1 199 405 99
187 2 2 0 1 200 408 78
188 2 2 0 1 91 284 215
189 2 2 0 1 215 516 106
190 2 2 0 1 200 448 133
191 2 2 0 1 194 492 447
192 2 2 0 1 300 427 178
193 2 2 0 1 198 430 315
194 2 2 0 1 123 429 218
195 2 2 0 1 115 412 202
196 2 2 0 1 397 515 156
197 2 2 0 1 217 342 112
198 2 2 0 1 203 308 124
199 2 2 0 1 106 435 204
200 2 2 0 1 208 359 138
201 2 2 0 1 205 373 141
202 2 2 0 1 196 515 397
203 2 2 0 1 100 498 205
204 2 2 0 1 72 329 71
205 2 2 0 1 204 351 106
206 2 2 0 1 221 376 144
207 2 2 0 1 112 489 234
208 2 2 0 1 207 294 105
209 2 2 0 1 206 403 111
210 2 2 0 1 92 298 225
211 2 2 0 1 225 298 130
212 2 2 0 1 129 299 215
213 2 2 0 1 215 299 91
214 2 2 0 1 366 431 177
215 2 2 0 1 304 363 180
216 2 2 0 1 7 373 205
217 2 2 0 1 212 458 116
218 2 2 0 1 177 431 275
219 2 2 0 1 233 488 114
220 2 2 0 1 193 488 233
221 2 2 0 1 129 351 329
222 2 2 0 1 329 351 204
223 2 2 0 1 234 514 112
224 2 2 0 1 105 336 321
225 2 2 0 1 188 484 230
226 2 2 0 1 230 484 120
227 2 2 0 1 266 407 201
228 2 2 0 1 109 341 225
229 2 2 0 1 99 363 304
230 2 2 0 1 384 425 95
231 2 2 0 1 240 464 187
232 2 2 0 1 225 538 92
233 2 2 0 1 142 356 224
234 2 2 0 1 224 356 107
235 2 2 0 1 224 360 142
236 2 2 0 1 211 434 109
237 2 2 0 1 90 279 221
238 2 2 0 1 221 279 126
239 2 2 0 1 259 358 152
240 2 2 0 1 106 516 364
241 2 2 0 1 208 358 119
242 2 2 0 1 163 350 242
243 2 2 0 1 242 350 85
244 2 2 0 1 138 497 208
245 2 2 0 1 53 319 216
246 2 2 0 1 217 318 47
247 2 2 0 1 220 544 237
248 2 2 0 1 167 471 315
249 2 2 0 1 242 258 174
250 2 2 0 1 209 368 110
251 2 2 0 1 85 367 209
252 2 2 0 1 259 486 358
253 2 2 0 1 237 544 145
254 2 2 0 1 218 284 91
255 2 2 0 1 227 276 175
256 2 2 0 1 83 276 227
257 2 2 0 1 235 368 148
258 2 2 0 1 147 386 214
259 2 2 0 1 213 387 146
260 2 2 0 1 107 482 224
261 2 2 0 1 2 343 19
262 2 2 0 1 20 343 2
263 2 2 0 1 109 375 211
264 2 2 0 1 154 502 380
265 2 2 0 1 165 446 223
266 2 2 0 1 107 464 240
267 2 2 0 1 188 356 247
268 2 2 0 1 253 326 97
269 2 2 0 1 163 326 253
270 2 2 0 1 146 441 213
271 2 2 0 1 214 442 147
272 2 2 0 1 130 333 211
273 2 2 0 1 363 432 160
274 2 2 0 1 211 375 130
275 2 2 0 1 222 305 9
276 2 2 0 1 116 382 212
277 2 2 0 1 45 387 213
278 2 2 0 1 214 386 55
279 2 2 0 1 174 449 242
280 2 2 0 1 226 475 94
281 2 2 0 1 229 310 131
282 2 2 0 1 93 310 229
283 2 2 0 1 106 351 215
284 2 2 0 1 114 495 233
285 2 2 0 1 216 309 52
286 2 2 0 1 91 299 219
287 2 2 0 1 92 538 334
288 2 2 0 1 215 351 129
289 2 2 0 1 449 467 242
290 2 2 0 1 321 336 176
291 2 2 0 1 112 463 217
292 2 2 0 1 179 352 303
293 2 2 0 1 380 502 190
294 2 2 0 1 193 323 232
295 2 2 0 1 234 489 143
296 2 2 0 1 232 488 193
297 2 2 0 1 176 411 278
298 2 2 0 1 126 324 221
299 2 2 0 1 219 410 91
300 2 2 0 1 223 298 92
301 2 2 0 1 246 384 95
302 2 2 0 1 233 425 193
303 2 2 0 1 140 347 232
304 2 2 0 1 221 395 90
305 2 2 0 1 144 395 221
306 2 2 0 1 160 432 306
307 2 2 0 1 333 521 211
308 2 2 0 1 377 384 246
309 2 2 0 1 138 335 289
310 2 2 0 1 275 340 177
311 2 2 0 1 136 340 275
312 2 2 0 1 289 355 88
313 2 2 0 1 183 355 289
314 2 2 0 1 35 248 34
315 2 2 0 1 94 378 226
316 2 2 0 1 388 462 113
317 2 2 0 1 303 352 141
318 2 2 0 1 335 443 289
319 2 2 0 1 188 501 356
320 2 2 0 1 92 460 223
321 2 2 0 1 175 452 227
322 2 2 0 1 108 357 220
323 2 2 0 1 227 294 134
324 2 2 0 1 223 390 111
325 2 2 0 1 236 374 132
326 2 2 0 1 10 348 222
327 2 2 0 1 172 453 228
328 2 2 0 1 123 272 231
329 2 2 0 1 216 462 388
330 2 2 0 1 229 483 93
331 2 2 0 1 312 401 189
332 2 2 0 1 291 301 104
333 2 2 0 1 169 301 291
334 2 2 0 1 280 455 63
335 2 2 0 1 86 505 313
336 2 2 0 1 278 411 82
337 2 2 0 1 130 375 225
338 2 2 0 1 258 500 174
339 2 2 0 1 231 543 123
340 2 2 0 1 225 375 109
341 2 2 0 1 125 282 248
342 2 2 0 1 85 258 242
343 2 2 0 1 228 310 93
344 2 2 0 1 132 300 236
345 2 2 0 1 236 300 120
346 2 2 0 1 342 475 226
347 2 2 0 1 137 345 276
348 2 2 0 1 276 345 175
349 2 2 0 1 69 261 68
350 2 2 0 1 1 371 80
351 2 2 0 1 5 371 1
352 2 2 0 1 90 414 279
353 2 2 0 1 279 414 196
354 2 2 0 1 66 251 65
355 2 2 0 1 337 382 131
356 2 2 0 1 212 382 337
357 2 2 0 1 45 369 44
358 2 2 0 1 56 370 55
359 2 2 0 1 204 493 329
360 2 2 0 1 157 445 390
361 2 2 0 1 148 417 291
362 2 2 0 1 296 424 40
363 2 2 0 1 240 482 107
364 2 2 0 1 118 457 420
365 2 2 0 1 239 290 171
366 2 2 0 1 116 290 239
367 2 2 0 1 12 337 283
368 2 2 0 1 367 417 148
369 2 2 0 1 320 445 157
370 2 2 0 1 266 503 102
371 2 2 0 1 241 458 212
372 2 2 0 1 49 254 48
373 2 2 0 1 251 285 126
374 2 2 0 1 230 501 188
375 2 2 0 1 124 257 256
376 2 2 0 1 229 382 116
377 2 2 0 1 93 474 228
378 2 2 0 1 347 488 232
379 2 2 0 1 179 303 238
380 2 2 0 1 7 379 6
381 2 2 0 1 362 539 102
382 2 2 0 1 13 337 12
383 2 2 0 1 123 543 429
384 2 2 0 1 228 394 118
385 2 2 0 1 116 398 229
386 2 2 0 1 254 342 217
387 2 2 0 1 131 382 229
388 2 2 0 1 18 365 17
389 2 2 0 1 244 353 173
390 2 2 0 1 166 541 428
391 2 2 0 1 235 524 368
392 2 2 0 1 428 541 219
393 2 2 0 1 256 257 159
394 2 2 0 1 232 323 84
395 2 2 0 1 224 504 360
396 2 2 0 1 420 457 222
397 2 2 0 1 405 531 247
398 2 2 0 1 248 282 34
399 2 2 0 1 233 330 153
400 2 2 0 1 142 405 247
401 2 2 0 1 64 280 63
402 2 2 0 1 22 354 21
403 2 2 0 1 235 451 167
404 2 2 0 1 90 451 235
405 2 2 0 1 195 455 280
406 2 2 0 1 153 425 233
407 2 2 0 1 120 484 236
408 2 2 0 1 118 394 238
409 2 2 0 1 238 394 152
410 2 2 0 1 244 302 96
411 2 2 0 1 136 454 381
412 2 2 0 1 120 547 230
413 2 2 0 1 79 346 78
414 2 2 0 1 17 331 16
415 2 2 0 1 295 408 133
416 2 2 0 1 181 361 302
417 2 2 0 1 302 361 96
418 2 2 0 1 97 314 253
419 2 2 0 1 110 396 257
420 2 2 0 1 245 478 161
421 2 2 0 1 241 436 139
422 2 2 0 1 404 454 98
423 2 2 0 1 35 409 248
424 2 2 0 1 94 475 322
425 2 2 0 1 218 429 347
426 2 2 0 1 237 492 108
427 2 2 0 1 290 339 171
428 2 2 0 1 139 339 290
429 2 2 0 1 66 285 251
430 2 2 0 1 60 311 59
431 2 2 0 1 238 303 118
432 2 2 0 1 89 485 247
433 2 2 0 1 247 485 188
434 2 2 0 1 176 278 249
435 2 2 0 1 41 296 40
436 2 2 0 1 248 380 125
437 2 2 0 1 154 380 248
438 2 2 0 1 237 377 121
439 2 2 0 1 145 377 237
440 2 2 0 1 347 429 114
441 2 2 0 1 181 424 296
442 2 2 0 1 152 418 238
443 2 2 0 1 132 374 292
444 2 2 0 1 32 268 31
445 2 2 0 1 114 488 347
446 2 2 0 1 113 449 388
447 2 2 0 1 139 512 339
448 2 2 0 1 69 422 261
449 2 2 0 1 250 410 138
450 2 2 0 1 374 485 89
451 2 2 0 1 167 524 235
452 2 2 0 1 136 381 307
453 2 2 0 1 223 446 298
454 2 2 0 1 199 531 405
455 2 2 0 1 236 485 374
456 2 2 0 1 235 414 90
457 2 2 0 1 314 372 182
458 2 2 0 1 97 372 314
459 2 2 0 1 301 518 195
460 2 2 0 1 264 434 211
461 2 2 0 1 139 458 241
462 2 2 0 1 239 401 149
463 2 2 0 1 169 350 253
464 2 2 0 1 272 359 208
465 2 2 0 1 210 487 330
466 2 2 0 1 159 525 407
467 2 2 0 1 34 282 33
468 2 2 0 1 241 481 15
469 2 2 0 1 94 322 245
470 2 2 0 1 238 476 179
471 2 2 0 1 93 483 270
472 2 2 0 1 261 391 184
473 2 2 0 1 121 511 240
474 2 2 0 1 378 489 226
475 2 2 0 1 252 393 157
476 2 2 0 1 122 393 252
477 2 2 0 1 341 538 225
478 2 2 0 1 125 517 282
479 2 2 0 1 248 409 154
480 2 2 0 1 353 529 173
481 2 2 0 1 126 397 251
482 2 2 0 1 251 397 156
483 2 2 0 1 186 465 444
484 2 2 0 1 255 355 183
485 2 2 0 1 257 396 159
486 2 2 0 1 322 478 245
487 2 2 0 1 239 398 116
488 2 2 0 1 149 398 239
489 2 2 0 1 360 504 83
490 2 2 0 1 283 468 12
491 2 2 0 1 246 345 137
492 2 2 0 1 95 345 246
493 2 2 0 1 262 427 132
494 2 2 0 1 12 468 11
495 2 2 0 1 119 470 272
496 2 2 0 1 330 495 210
497 2 2 0 1 204 435 260
498 2 2 0 1 75 288 74
499 2 2 0 1 313 362 178
500 2 2 0 1 266 300 178
501 2 2 0 1 240 511 137
502 2 2 0 1 271 531 199
503 2 2 0 1 137 482 240
504 2 2 0 1 252 460 92
505 2 2 0 1 228 453 310
506 2 2 0 1 26 297 25
507 2 2 0 1 332 419 158
508 2 2 0 1 251 402 65
509 2 2 0 1 156 402 251
510 2 2 0 1 158 419 391
511 2 2 0 1 67 285 66
512 2 2 0 1 212 481 241
513 2 2 0 1 418 476 238
514 2 2 0 1 320 366 177
515 2 2 0 1 87 366 320
516 2 2 0 1 164 353 244
517 2 2 0 1 270 465 186
518 2 2 0 1 133 448 255
519 2 2 0 1 52 309 51
520 2 2 0 1 39 277 38
521 2 2 0 1 171 496 239
522 2 2 0 1 144 376 243
523 2 2 0 1 164 514 505
524 2 2 0 1 196 397 279
525 2 2 0 1 182 372 311
526 2 2 0 1 311 372 151
527 2 2 0 1 36 532 274
528 2 2 0 1 192 454 404
529 2 2 0 1 50 456 265
530 2 2 0 1 191 528 293
531 2 2 0 1 208 497 418
532 2 2 0 1 139 436 331
533 2 2 0 1 247 356 142
534 2 2 0 1 137 511 246
535 2 2 0 1 250 359 123
536 2 2 0 1 247 531 89
537 2 2 0 1 330 487 82
538 2 2 0 1 138 359 250
539 2 2 0 1 191 389 274
540 2 2 0 1 120 300 266
541 2 2 0 1 227 452 294
542 2 2 0 1 129 329 267
543 2 2 0 1 260 422 70
544 2 2 0 1 37 532 36
545 2 2 0 1 141 373 305
546 2 2 0 1 11 348 10
547 2 2 0 1 272 470 231
548 2 2 0 1 91 410 250
549 2 2 0 1 296 361 181
550 2 2 0 1 150 361 296
551 2 2 0 1 84 544 477
552 2 2 0 1 242 467 163
553 2 2 0 1 143 489 378
554 2 2 0 1 15 436 241
555 2 2 0 1 254 438 135
556 2 2 0 1 62 286 61
557 2 2 0 1 98 454 275
558 2 2 0 1 121 377 246
559 2 2 0 1 294 452 105
560 2 2 0 1 271 380 190
561 2 2 0 1 159 407 256
562 2 2 0 1 256 407 102
563 2 2 0 1 245 479 94
564 2 2 0 1 135 342 254
565 2 2 0 1 77 295 76
566 2 2 0 1 51 456 50
567 2 2 0 1 246 511 121
568 2 2 0 1 173 421 244
569 2 2 0 1 113 467 449
570 2 2 0 1 137 504 482
571 2 2 0 1 180 363 268
572 2 2 0 1 169 417 350
573 2 2 0 1 381 454 192
574 2 2 0 1 253 350 163
575 2 2 0 1 157 460 252
576 2 2 0 1 316 545 150
577 2 2 0 1 151 546 317
578 2 2 0 1 67 459 285
579 2 2 0 1 287 522 168
580 2 2 0 1 138 410 335
581 2 2 0 1 249 472 117
582 2 2 0 1 95 349 345
583 2 2 0 1 345 349 175
584 2 2 0 1 294 334 134
585 2 2 0 1 207 334 294
586 2 2 0 1 97 509 372
587 2 2 0 1 442 509 97
588 2 2 0 1 9 305 8
589 2 2 0 1 255 473 355
590 2 2 0 1 24 307 23
591 2 2 0 1 150 545 369
592 2 2 0 1 370 546 151
593 2 2 0 1 269 333 130
594 2 2 0 1 202 520 295
595 2 2 0 1 92 533 252
596 2 2 0 1 362 503 178
597 2 2 0 1 289 497 138
598 2 2 0 1 208 418 358
599 2 2 0 1 280 385 195
600 2 2 0 1 70 422 69
601 2 2 0 1 145 384 377
602 2 2 0 1 303 457 118
603 2 2 0 1 249 519 176
604 2 2 0 1 284 516 215
605 2 2 0 1 290 458 139
606 2 2 0 1 505 514 234
607 2 2 0 1 252 542 122
608 2 2 0 1 233 495 330
609 2 2 0 1 192 404 354
610 2 2 0 1 354 404 155
611 2 2 0 1 307 526 206
612 2 2 0 1 319 386 147
613 2 2 0 1 146 387 318
614 2 2 0 1 218 347 284
615 2 2 0 1 276 504 137
616 2 2 0 1 135 438 265
617 2 2 0 1 89 531 271
618 2 2 0 1 99 405 287
619 2 2 0 1 47 318 46
620 2 2 0 1 54 319 53
621 2 2 0 1 259 474 93
622 2 2 0 1 269 440 27
623 2 2 0 1 268 423 31
624 2 2 0 1 285 459 184
625 2 2 0 1 360 522 287
626 2 2 0 1 30 423 264
627 2 2 0 1 356 501 107
628 2 2 0 1 117 534 249
629 2 2 0 1 314 416 253
630 2 2 0 1 88 476 418
631 2 2 0 1 273 523 168
632 2 2 0 1 407 525 201
633 2 2 0 1 15 481 14
634 2 2 0 1 283 337 131
635 2 2 0 1 325 441 146
636 2 2 0 1 147 442 326
637 2 2 0 1 104 338 291
638 2 2 0 1 8 373 7
639 2 2 0 1 263 357 108
640 2 2 0 1 357 477 220
641 2 2 0 1 23 381 22
642 2 2 0 1 327 463 112
643 2 2 0 1 113 462 328
644 2 2 0 1 325 327 164
645 2 2 0 1 326 328 147
646 2 2 0 1 146 327 325
647 2 2 0 1 163 328 326
648 2 2 0 1 149 465 270
649 2 2 0 1 46 387 45
650 2 2 0 1 55 386 54
651 2 2 0 1 173 406 293
652 2 2 0 1 293 406 101
653 2 2 0 1 361 490 96
654 2 2 0 1 39 424 277
655 2 2 0 1 99 432 363
656 2 2 0 1 323 544 84
657 2 2 0 1 27 440 26
658 2 2 0 1 134 341 273
659 2 2 0 1 267 428 129
660 2 2 0 1 166 428 267
661 2 2 0 1 319 462 216
662 2 2 0 1 217 463 318
663 2 2 0 1 253 416 169
664 2 2 0 1 78 408 77
665 2 2 0 1 61 413 60
666 2 2 0 1 144 357 263
667 2 2 0 1 96 490 441
668 2 2 0 1 261 422 158
669 2 2 0 1 128 518 301
670 2 2 0 1 299 428 219
671 2 2 0 1 82 491 278
672 2 2 0 1 265 438 50
673 2 2 0 1 222 457 305
674 2 2 0 1 31 423 30
675 2 2 0 1 183 540 255
676 2 2 0 1 255 540 133
677 2 2 0 1 38 439 37
678 2 2 0 1 73 433 267
679 2 2 0 1 94 479 308
680 2 2 0 1 101 406 292
681 2 2 0 1 268 363 160
682 2 2 0 1 123 359 272
683 2 2 0 1 268 461 180
684 2 2 0 1 32 461 268
685 2 2 0 1 291 338 148
686 2 2 0 1 70 493 260
687 2 2 0 1 202 412 288
688 2 2 0 1 264 521 30
689 2 2 0 1 62 455 286
690 2 2 0 1 288 433 74
691 2 2 0 1 244 421 302
692 2 2 0 1 284 347 140
693 2 2 0 1 260 435 158
694 2 2 0 1 341 523 273
695 2 2 0 1 313 427 86
696 2 2 0 1 178 427 313
697 2 2 0 1 49 438 254
698 2 2 0 1 266 547 120
699 2 2 0 1 201 547 266
700 2 2 0 1 295 520 76
701 2 2 0 1 389 502 154
702 2 2 0 1 158 391 261
703 2 2 0 1 98 512 404
704 2 2 0 1 127 421 293
705 2 2 0 1 293 421 173
706 2 2 0 1 278 491 185
707 2 2 0 1 358 486 119
708 2 2 0 1 312 465 149
709 2 2 0 1 255 448 100
710 2 2 0 1 512 537 404
711 2 2 0 1 239 496 401
712 2 2 0 1 152 474 259
713 2 2 0 1 100 473 255
714 2 2 0 1 171 431 366
715 2 2 0 1 274 409 36
716 2 2 0 1 50 438 49
717 2 2 0 1 355 473 179
718 2 2 0 1 263 395 144
719 2 2 0 1 160 423 268
720 2 2 0 1 169 416 301
721 2 2 0 1 301 416 128
722 2 2 0 1 156 515 385
723 2 2 0 1 24 526 307
724 2 2 0 1 125 380 271
725 2 2 0 1 281 364 140
726 2 2 0 1 74 433 73
727 2 2 0 1 429 543 210
728 2 2 0 1 142 360 287
729 2 2 0 1 261 459 68
730 2 2 0 1 184 459 261
731 2 2 0 1 26 440 297
732 2 2 0 1 336 411 176
733 2 2 0 1 30 521 29
734 2 2 0 1 262 406 173
735 2 2 0 1 297 403 206
736 2 2 0 1 349 425 153
737 2 2 0 1 36 409 35
738 2 2 0 1 399 525 159
739 2 2 0 1 274 389 154
740 2 2 0 1 282 461 33
741 2 2 0 1 180 461 282
742 2 2 0 1 156 385 280
743 2 2 0 1 158 422 260
744 2 2 0 1 293 528 127
745 2 2 0 1 160 434 264
746 2 2 0 1 71 493 70
747 2 2 0 1 350 417 85
748 2 2 0 1 170 535 281
749 2 2 0 1 155 536 343
750 2 2 0 1 292 374 190
751 2 2 0 1 288 520 202
752 2 2 0 1 75 520 288
753 2 2 0 1 336 383 153
754 2 2 0 1 278 472 249
755 2 2 0 1 196 414 338
756 2 2 0 1 167 451 263
757 2 2 0 1 143 362 313
758 2 2 0 1 198 426 399
759 2 2 0 1 151 508 311
760 2 2 0 1 86 427 262
761 2 2 0 1 296 494 150
762 2 2 0 1 230 547 392
763 2 2 0 1 317 508 151
764 2 2 0 1 305 457 141
765 2 2 0 1 264 423 160
766 2 2 0 1 330 411 153
767 2 2 0 1 279 397 126
768 2 2 0 1 399 426 81
769 2 2 0 1 418 497 88
770 2 2 0 1 305 373 8
771 2 2 0 1 365 536 155
772 2 2 0 1 124 500 258
773 2 2 0 1 11 468 348
774 2 2 0 1 166 433 288
775 2 2 0 1 344 443 115
776 2 2 0 1 183 443 344
777 2 2 0 1 309 388 161
778 2 2 0 1 216 388 309
779 2 2 0 1 64 402 280
780 2 2 0 1 154 409 274
781 2 2 0 1 153 411 336
782 2 2 0 1 280 402 156
783 2 2 0 1 153 383 349
784 2 2 0 1 265 456 161
785 2 2 0 1 190 502 292
786 2 2 0 1 292 502 101
787 2 2 0 1 343 527 155
788 2 2 0 1 307 381 23
789 2 2 0 1 130 446 269
790 2 2 0 1 269 446 165
791 2 2 0 1 147 462 319
792 2 2 0 1 318 463 146
793 2 2 0 1 297 526 25
794 2 2 0 1 206 526 297
795 2 2 0 1 444 465 117
796 2 2 0 1 174 479 449
797 2 2 0 1 449 479 245
798 2 2 0 1 265 478 135
799 2 2 0 1 309 456 51
800 2 2 0 1 150 494 316
801 2 2 0 1 168 432 287
802 2 2 0 1 287 432 99
803 2 2 0 1 65 402 64
804 2 2 0 1 455 518 286
805 2 2 0 1 267 433 166
806 2 2 0 1 186 486 259
807 2 2 0 1 346 400 200
808 2 2 0 1 162 400 346
809 2 2 0 1 155 527 354
810 2 2 0 1 320 415 87
811 2 2 0 1 400 498 100
812 2 2 0 1 260 493 204
813 2 2 0 1 396 430 198
814 2 2 0 1 110 430 396
815 2 2 0 1 477 544 220
816 2 2 0 1 482 504 224
817 2 2 0 1 302 421 127
818 2 2 0 1 287 405 142
819 2 2 0 1 318 387 46
820 2 2 0 1 54 386 319
821 2 2 0 1 105 383 336
822 2 2 0 1 424 466 277
823 2 2 0 1 173 529 262
824 2 2 0 1 108 471 263
825 2 2 0 1 262 529 86
826 2 2 0 1 286 413 61
827 2 2 0 1 165 440 269
828 2 2 0 1 288 412 166
829 2 2 0 1 275 431 98
830 2 2 0 1 263 471 167
831 2 2 0 1 165 403 297
832 2 2 0 1 104 515 338
833 2 2 0 1 315 492 194
834 2 2 0 1 108 492 315
835 2 2 0 1 77 408 295
836 2 2 0 1 158 435 332
837 2 2 0 1 127 466 302
838 2 2 0 1 302 466 181
839 2 2 0 1 42 494 41
840 2 2 0 1 135 475 342
841 2 2 0 1 291 417 169
842 2 2 0 1 161 478 265
843 2 2 0 1 211 521 264
844 2 2 0 1 40 424 39
845 2 2 0 1 283 453 172
846 2 2 0 1 131 453 283
847 2 2 0 1 149 401 312
848 2 2 0 1 178 503 266
849 2 2 0 1 16 436 15
850 2 2 0 1 306 434 160
851 2 2 0 1 277 439 38
852 2 2 0 1 390 460 157
853 2 2 0 1 148 368 367
854 2 2 0 1 367 368 209
855 2 2 0 1 401 496 87
856 2 2 0 1 128 510 286
857 2 2 0 1 335 541 115
858 2 2 0 1 219 541 335
859 2 2 0 1 297 440 165
860 2 2 0 1 439 532 37
861 2 2 0 1 349 383 175
862 2 2 0 1 275 454 136
863 2 2 0 1 140 516 284
864 2 2 0 1 281 535 364
865 2 2 0 1 59 508 58
866 2 2 0 1 371 530 162
867 2 2 0 1 270 483 149
868 2 2 0 1 115 443 335
869 2 2 0 1 368 524 110
870 2 2 0 1 273 522 83
871 2 2 0 1 390 445 111
872 2 2 0 1 157 415 320
873 2 2 0 1 128 416 314
874 2 2 0 1 430 524 167
875 2 2 0 1 162 530 379
876 2 2 0 1 129 428 299
877 2 2 0 1 185 472 278
878 2 2 0 1 194 426 315
879 2 2 0 1 315 426 198
880 2 2 0 1 82 411 330
881 2 2 0 1 321 542 207
882 2 2 0 1 122 542 321
883 2 2 0 1 127 528 277
884 2 2 0 1 400 448 200
885 2 2 0 1 100 448 400
886 2 2 0 1 277 466 127
887 2 2 0 1 168 522 273
888 2 2 0 1 316 494 42
889 2 2 0 1 289 443 183
890 2 2 0 1 338 515 196
891 2 2 0 1 274 532 191
892 2 2 0 1 369 490 150
893 2 2 0 1 213 490 369
894 2 2 0 1 335 410 219
895 2 2 0 1 230 499 464
896 2 2 0 1 161 456 309
897 2 2 0 1 83 504 276
898 2 2 0 1 281 469 170
899 2 2 0 1 84 469 281
900 2 2 0 1 170 419 332
901 2 2 0 1 172 468 283
902 2 2 0 1 163 467 328
903 2 2 0 1 63 455 62
904 2 2 0 1 306 432 168
905 2 2 0 1 164 505 353
906 2 2 0 1 109 434 306
907 2 2 0 1 68 459 67
908 2 2 0 1 243 507 469
909 2 2 0 1 346 513 162
910 2 2 0 1 298 446 130
911 2 2 0 1 33 461 32
912 2 2 0 1 85 417 367
913 2 2 0 1 327 514 164
914 2 2 0 1 391 419 103
915 2 2 0 1 111 445 340
916 2 2 0 1 340 445 177
917 2 2 0 1 80 513 79
918 2 2 0 1 334 533 92
919 2 2 0 1 207 533 334
920 2 2 0 1 172 420 348
921 2 2 0 1 348 420 222
922 2 2 0 1 116 458 290
923 2 2 0 1 84 477 469
924 2 2 0 1 469 477 243
925 2 2 0 1 331 436 16
926 2 2 0 1 58 508 317
927 2 2 0 1 282 517 180
928 2 2 0 1 134 538 341
929 2 2 0 1 98 431 339
930 2 2 0 1 339 431 171
931 2 2 0 1 394 474 152
932 2 2 0 1 469 507 170
933 2 2 0 1 14 506 13
934 2 2 0 1 135 478 322
935 2 2 0 1 412 541 166
936 2 2 0 1 103 507 376
937 2 2 0 1 21 527 20
938 2 2 0 1 308 479 174
939 2 2 0 1 151 509 370
940 2 2 0 1 370 509 214
941 2 2 0 1 198 399 396
942 2 2 0 1 177 445 320
943 2 2 0 1 19 536 18
944 2 2 0 1 76 520 75
945 2 2 0 1 312 534 117
946 2 2 0 1 189 534 312
947 2 2 0 1 141 457 303
948 2 2 0 1 6 530 5
949 2 2 0 1 25 526 24
950 2 2 0 1 162 513 371
951 2 2 0 1 57 546 56
952 2 2 0 1 44 545 43
953 2 2 0 1 358 418 152
954 2 2 0 1 396 399 159
955 2 2 0 1 332 435 106
956 2 2 0 1 88 497 289
957 2 2 0 1 96 441 325
958 2 2 0 1 326 442 97
959 2 2 0 1 306 523 109
960 2 2 0 1 286 518 128
961 2 2 0 1 393 415 157
962 2 2 0 1 189 415 393
963 2 2 0 1 95 425 349
964 2 2 0 1 310 453 131
965 2 2 0 1 41 494 296
966 2 2 0 1 464 499 187
967 2 2 0 1 308 500 124
968 2 2 0 1 117 465 312
969 2 2 0 1 419 507 103
970 2 2 0 1 182 510 314
971 2 2 0 1 314 510 128
972 2 2 0 1 315 471 108
973 2 2 0 1 174 500 308
974 2 2 0 1 304 517 125
975 2 2 0 1 180 517 304
976 2 2 0 1 146 463 327
977 2 2 0 1 328 462 147
978 2 2 0 1 106 535 332
979 2 2 0 1 263 451 395
980 2 2 0 1 168 523 306
981 2 2 0 1 328 467 113
982 2 2 0 1 176 519 321
983 2 2 0 1 322 475 135
984 2 2 0 1 311 508 59
985 2 2 0 1 109 523 341
986 2 2 0 1 366 496 171
987 2 2 0 1 122 519 480
988 2 2 0 1 480 519 249
989 2 2 0 1 43 545 316
990 2 2 0 1 317 546 57
991 2 2 0 1 286 510 413
992 2 2 0 1 321 519 122
993 2 2 0 1 112 514 327
994 2 2 0 1 426 450 81
995 2 2 0 1 194 450 426
996 2 2 0 1 102 503 362
997 2 2 0 1 383 452 175
998 2 2 0 1 105 452 383
999 2 2 0 1 145 544 323
1000 2 2 0 1 185 491 470
1001 2 2 0 1 392 499 230
1002 2 2 0 1 179 473 352
1003 2 2 0 1 352 473 100
1004 2 2 0 1 348 468 172
1005 2 2 0 1 13 506 337
1006 2 2 0 1 337 506 212
1007 2 2 0 1 332 535 170
1008 2 2 0 1 20 527 343
1009 2 2 0 1 181 466 424
1010 2 2 0 1 179 476 355
1011 2 2 0 1 355 476 88
1012 2 2 0 1 364 535 106
1013 2 2 0 1 83 522 360
1014 2 2 0 1 339 512 98
1015 2 2 0 1 334 538 134
1016 2 2 0 1 205 498 379
1017 2 2 0 1 379 498 162
1018 2 2 0 1 155 537 365
1019 2 2 0 1 365 537 197
1020 2 2 0 1 122 480 393
1021 2 2 0 1 393 480 189
1022 2 2 0 1 86 529 353
1023 2 2 0 1 343 536 19
1024 2 2 0 1 470 491 231
1025 2 2 0 1 79 513 346
1026 2 2 0 1 395 451 90
1027 2 2 0 1 371 513 80
1028 2 2 0 1 195 518 455
1029 2 2 0 1 344 540 183
1030 2 2 0 1 133 540 344
1031 2 2 0 1 81 499 392
1032 2 2 0 1 223 460 390
1033 2 2 0 1 150 490 361
1034 2 2 0 1 376 507 243
1035 2 2 0 1 353 505 86
1036 2 2 0 1 437 444 185
1037 2 2 0 1 201 525 392
1038 2 2 0 1 392 525 81
1039 2 2 0 1 210 495 429
1040 2 2 0 1 429 495 114
1041 2 2 0 1 398 483 229
1042 2 2 0 1 149 483 398
1043 2 2 0 1 87 496 366
1044 2 2 0 1 186 444 437
1045 2 2 0 1 354 527 21
1046 2 2 0 1 447 450 194
1047 2 2 0 1 187 450 447
1048 2 2 0 1 228 474 394
1049 2 2 0 1 364 516 140
1050 2 2 0 1 372 509 151
1051 2 2 0 1 143 539 362
1052 2 2 0 1 101 502 389
1053 2 2 0 1 5 530 371
1054 2 2 0 1 18 536 365
1055 2 2 0 1 444 472 185
1056 2 2 0 1 385 515 104
1057 2 2 0 1 185 470 437
1058 2 2 0 1 378 539 143
1059 2 2 0 1 203 539 378
1060 2 2 0 1 369 545 44
1061 2 2 0 1 56 546 370
1062 2 2 0 1 379 530 6
1063 2 2 0 1 464 501 230
1064 2 2 0 1 162 498 400
1065 2 2 0 1 437 486 186
1066 2 2 0 1 231 491 487
1067 2 2 0 1 487 491 82
1068 2 2 0 1 277 528 439
1069 2 2 0 1 450 499 81
1070 2 2 0 1 214 509 442
1071 2 2 0 1 441 490 213
1072 2 2 0 1 249 534 480
1073 2 2 0 1 191 532 439
1074 2 2 0 1 81 525 399
1075 2 2 0 1 413 510 182
1076 2 2 0 1 437 470 119
1077 2 2 0 1 392 547 201
1078 2 2 0 1 170 507 419
1079 2 2 0 1 117 472 444
1080 2 2 0 1 404 537 155
1081 2 2 0 1 487 543 231
1082 2 2 0 1 119 486 437
1083 2 2 0 1 197 537 512
1084 2 2 0 1 115 541 412
1085 2 2 0 1 187 499 450
1086 2 2 0 1 110 524 430
1087 2 2 0 1 439 528 191
1088 2 2 0 1 107 501 464
1089 2 2 0 1 481 506 14
1090 2 2 0 1 188 485 484
1091 2 2 0 1 484 485 236
1092 2 2 0 1 212 506 481
1093 2 2 0 1 480 534 189
1094 2 2 0 1 210 543 487
1095 2 2 0 1 533 542 252
1096 2 2 0 1 207 542 533
$EndElements
