$MeshFormat
2.2 0 8
$EndMeshFormat
$Nodes
43
1 0 0 0
2 0.02 0 0
3 0.02 0.03 0
4 0 0.03 0
5 0.004999999999999998 0 0
6 0.009999999999999998 0 0
7 0.015 0 0
8 0.02 0.004999999999999998 0
9 0.02 0.009999999999999998 0
10 0.02 0.015 0
11 0.02 0.02 0
12 0.02 0.025 0
13 0.015 0.03 0
14 0.01 0.03 0
15 0.005000000000000001 0.03 0
16 0 0.025 0
17 0 0.02 0
18 0 0.015 0
19 0 0.009999999999999995 0
20 0 0.004999999999999994 0
21 0.009987297870684199 0.0128449159509767 0
22 0.008304467719850462 0.02102587245187837 0
23 0.006312863764532364 0.007080934948018605 0
24 0.01372373019134374 0.007290483525258119 0
25 0.01459206433512667 0.01711210303026931 0
26 0.0140529803530779 0.02424640516442157 0
27 0.00564814814814815 0.01634259259259259 0
28 0.01505985380926553 0.01118924315790788 0
29 0.005125 0.024875 0
30 0.004977605337427841 0.0110500877378338 0
31 0.009927660184605907 0.02570547582061062 0
32 0.004361767607297181 0.02054596225899527 0
33 0.01009353836900399 0.01737283092507362 0
34 0.01000457325789669 0.003816760453008664 0
35 0.015973868759373 0.003934694201073726 0
36 0.004035231573392124 0.003900597950600077 0
37 0.01000358142141866 0.008655010997226525 0
38 0.01625699293968648 0.02187590401255598 0
39 0.002938513985277598 0.007479973889598732 0
40 0.01707236991629551 0.00749622603572252 0
41 0.01706199465855288 0.02622446183539551 0
42 0.01238414056895558 0.02080912336975057 0
43 0.002575710641399418 0.02742428935860058 0
$EndNodes
$Elements
88
1 15 2 0 1 1
2 15 2 0 2 2
3 15 2 0 3 3
4 15 2 0 4 4
5 1 2 0 1 1 5
6 1 2 0 1 5 6
7 1 2 0 1 6 7
8 1 2 0 1 7 2
9 1 2 0 2 2 8
10 1 2 0 2 8 9
11 1 2 0 2 9 10
12 1 2 0 2 10 11
13 1 2 0 2 11 12
14 1 2 0 2 12 3
15 1 2 0 3 3 13
16 1 2 0 3 13 14
17 1 2 0 3 14 15
18 1 2 0 3 15 4
19 1 2 0 4 4 16
20 1 2 0 4 16 17
21 1 2 0 4 17 18
22 1 2 0 4 18 19
23 1 2 0 4 19 20
24 1 2 0 4 20 1
25 2 2 0 1 11 25 10
26 2 2 0 1 11 38 25
27 2 2 0 1 18 27 17
28 2 2 0 1 13 31 26
29 2 2 0 1 27 32 17
30 2 2 0 1 14 31 13
31 2 2 0 1 34 36 5
32 2 2 0 1 25 28 10
33 2 2 0 1 7 35 34
34 2 2 0 1 21 28 25
35 2 2 0 1 28 37 24
36 2 2 0 1 29 31 15
37 2 2 0 1 15 31 14
38 2 2 0 1 18 30 27
39 2 2 0 1 25 33 21
40 2 2 0 1 21 37 28
41 2 2 0 1 6 34 5
42 2 2 0 1 7 34 6
43 2 2 0 1 26 41 13
44 2 2 0 1 19 30 18
45 2 2 0 1 23 36 34
46 2 2 0 1 16 32 29
47 2 2 0 1 34 35 24
48 2 2 0 1 17 32 16
49 2 2 0 1 27 30 21
50 2 2 0 1 12 41 38
51 2 2 0 1 24 40 28
52 2 2 0 1 38 41 26
53 2 2 0 1 10 28 9
54 2 2 0 1 30 37 21
55 2 2 0 1 23 37 30
56 2 2 0 1 27 33 22
57 2 2 0 1 22 32 27
58 2 2 0 1 21 33 27
59 2 2 0 1 12 38 11
60 2 2 0 1 28 40 9
61 2 2 0 1 2 35 7
62 2 2 0 1 8 35 2
63 2 2 0 1 5 36 1
64 2 2 0 1 1 36 20
65 2 2 0 1 22 31 29
66 2 2 0 1 29 32 22
67 2 2 0 1 31 42 26
68 2 2 0 1 22 42 31
69 2 2 0 1 13 41 3
70 2 2 0 1 3 41 12
71 2 2 0 1 19 39 30
72 2 2 0 1 30 39 23
73 2 2 0 1 29 43 16
74 2 2 0 1 15 43 29
75 2 2 0 1 33 42 22
76 2 2 0 1 20 39 19
77 2 2 0 1 9 40 8
78 2 2 0 1 4 43 15
79 2 2 0 1 16 43 4
80 2 2 0 1 25 42 33
81 2 2 0 1 24 37 34
82 2 2 0 1 34 37 23
83 2 2 0 1 36 39 20
84 2 2 0 1 23 39 36
85 2 2 0 1 8 40 35
86 2 2 0 1 35 40 24
87 2 2 0 1 38 42 25
88 2 2 0 1 26 42 38
$EndElements
