$MeshFormat
2.2 0 8
$EndMeshFormat
$Nodes
864
1 0 0 0
2 0.04 0 0
3 0.04 0.08 0
4 0 0.08 0
5 0 0.0405 0
6 0.01 0.0405 0
7 0.01 0.0395 0
8 0 0.0395 0
9 0.002499999999995044 0 0
10 0.00499999999999123 0 0
11 0.007499999999983943 0 0
12 0.009999999999976318 0 0
13 0.01249999999996852 0 0
14 0.01499999999996174 0 0
15 0.01749999999995258 0 0
16 0.01999999999994783 0 0
17 0.02249999999995257 0 0
18 0.02499999999996205 0 0
19 0.0274999999999668 0 0
20 0.02999999999997357 0 0
21 0.03249999999998034 0 0
22 0.03499999999999051 0 0
23 0.03749999999998983 0 0
24 0.04 0.00249999999999526 0
25 0.04 0.004999999999990089 0
26 0.04 0.00749999999998636 0
27 0.04 0.00999999999998246 0
28 0.04 0.012499999999975 0
29 0.04 0.01499999999996789 0
30 0.04 0.01749999999995941 0
31 0.04 0.01999999999995264 0
32 0.04 0.02249999999994585 0
33 0.04 0.02499999999993704 0
34 0.04 0.02749999999993093 0
35 0.04 0.02999999999992348 0
36 0.04 0.03249999999991533 0
37 0.04 0.03499999999990516 0
38 0.04 0.03749999999990447 0
39 0.04 0.03999999999989566 0
40 0.04 0.04249999999990446 0
41 0.04 0.04499999999990514 0
42 0.04 0.04749999999991394 0
43 0.04 0.04999999999992411 0
44 0.04 0.0524999999999275 0
45 0.04 0.0549999999999336 0
46 0.04 0.05749999999994376 0
47 0.04 0.05999999999994714 0
48 0.04 0.06249999999995053 0
49 0.04 0.06499999999996069 0
50 0.04 0.06749999999997085 0
51 0.04 0.06999999999998102 0
52 0.04 0.07249999999997764 0
53 0.04 0.07499999999997967 0
54 0.04 0.07749999999998984 0
55 0.03750000000000195 0.08 0
56 0.03500000000001339 0.08 0
57 0.03250000000002076 0.08 0
58 0.03000000000002135 0.08 0
59 0.02750000000003279 0.08 0
60 0.02500000000004084 0.08 0
61 0.02250000000004821 0.08 0
62 0.02000000000005288 0.08 0
63 0.01750000000004805 0.08 0
64 0.01500000000003848 0.08 0
65 0.01250000000003364 0.08 0
66 0.01000000000002678 0.08 0
67 0.007500000000019921 0.08 0
68 0.00500000000000967 0.08 0
69 0.002500000000010251 0.08 0
70 0 0.0775312500000061 0
71 0 0.0750625000000122 0
72 0 0.07259375000001829 0
73 0 0.07012500000002982 0
74 0 0.06765625000003592 0
75 0 0.06518750000004203 0
76 0 0.06271875000004813 0
77 0 0.06025000000005559 0
78 0 0.05778125000004542 0
79 0 0.05531250000004203 0
80 0 0.05284375000003322 0
81 0 0.05037500000002712 0
82 0 0.04790625000002102 0
83 0 0.04543750000001356 0
84 0 0.04296875000000746 0
85 0.002499999999994079 0.0405 0
86 0.004999999999986958 0.0405 0
87 0.007499999999993393 0.0405 0
88 0.007500000000005337 0.0395 0
89 0.00500000000001322 0.0395 0
90 0.002500000000006696 0.0395 0
91 0 0.03703125000000373 0
92 0 0.03456250000000746 0
93 0 0.03209375000001524 0
94 0 0.02962500000002304 0
95 0 0.02715625000003084 0
96 0 0.02468750000003728 0
97 0 0.02221875000004372 0
98 0 0.01975000000005084 0
99 0 0.01728125000004509 0
100 0 0.01481250000003932 0
101 0 0.0123437500000322 0
102 0 0.009875000000026439 0
103 0 0.007406250000019994 0
104 0 0.004937500000012883 0
105 0 0.002468750000007118 0
106 0.0197320372850744 0.02203978721222783 0
107 0.01973203728507558 0.05796021278777172 0
108 0.02499583333333334 0.03999999999999996 0
109 0.01801118240717723 0.03246725997809925 0
110 0.01801118240717736 0.04753274002190112 0
111 0.02824033682252981 0.02940500925473992 0
112 0.02832525377216654 0.05059004347462844 0
113 0.0175493585405184 0.04024351477760444 0
114 0.01239407234094941 0.0123937204085565 0
115 0.01239407234094954 0.06760627959144364 0
116 0.02747502313977606 0.01225359958236908 0
117 0.02747502313977627 0.06774640041763143 0
118 0.009098808875067239 0.03059613160954998 0
119 0.009098808875065529 0.04940386839045291 0
120 0.009372001529748765 0.02123515936343939 0
121 0.009372001529754887 0.05876484063656012 0
122 0.03114435214590625 0.02104906244994409 0
123 0.03114432698880765 0.05895097225991309 0
124 0.03211891539731125 0.03647536071512429 0
125 0.01983599809978984 0.008144304300598419 0
126 0.01983599809979107 0.07185569569940174 0
127 0.03141861569194456 0.04413633633111131 0
128 0.01404344851444205 0.03602347713053169 0
129 0.01404344851444208 0.04397652286946844 0
130 0.01440604455114303 0.02652338540140575 0
131 0.01440604455114365 0.0534766145985953 0
132 0.02390932984763312 0.03378349405427745 0
133 0.02380638249973768 0.04609419794526914 0
134 0.007420008707100269 0.007124891560707506 0
135 0.007420008707101936 0.07287510843929172 0
136 0.03248458723447715 0.07279344909923466 0
137 0.03248458723447309 0.007206550900764489 0
138 0.02212940645238384 0.02815531676456756 0
139 0.02216185011152776 0.05181188197951108 0
140 0.01869862065519493 0.01532295847113475 0
141 0.01869862065519512 0.06467704152886501 0
142 0.01372810065676814 0.03999999999999995 0
143 0.009380907526870812 0.03510385435709579 0
144 0.009380907526870295 0.04489614564290549 0
145 0.006348887298520501 0.06465290587340787 0
146 0.006348887298522742 0.01534709412659133 0
147 0.03319398899147445 0.0151468884087772 0
148 0.03319398899147644 0.06485311159121862 0
149 0.0249486300462241 0.01806868128779672 0
150 0.02494863004622034 0.06193131871220287 0
151 0.03386577008631254 0.0264052970741965 0
152 0.03384819854176783 0.0536220412819125 0
153 0.01356537408119327 0.005628973427973892 0
154 0.01356537408120558 0.07437102657203809 0
155 0.02622741884890546 0.005843357059661404 0
156 0.02622741884892216 0.07415664294033837 0
157 0.00590493751879852 0.02581293437135976 0
158 0.00590493751879218 0.05418706562864423 0
159 0.02124270717560433 0.03745282877346221 0
160 0.02124270717560433 0.04254717122653753 0
161 0.02599687453963226 0.02391196659625475 0
162 0.02599685781259697 0.05608804917888383 0
163 0.01321669135043922 0.0316365249553271 0
164 0.01321669135043853 0.04836347504467455 0
165 0.01467344229103634 0.01982245168925429 0
166 0.01467344229104074 0.06017754831074524 0
167 0.004426780550566348 0.03326124245888858 0
168 0.004426780550567109 0.0467387575411157 0
169 0.03444966469183383 0.04796140556917374 0
170 0.03426785605208407 0.03168965457037218 0
171 0.01770599408762117 0.03662179120427742 0
172 0.01771409527889433 0.04333530650166605 0
173 0.02776543902631828 0.03656805205467269 0
174 0.03558194598397552 0.04016312951265083 0
175 0.02728329420777206 0.04370860235346157 0
176 0.004190285479478607 0.02158191771438371 0
177 0.004190285479480229 0.05841808228561726 0
178 0.02251703937843218 0.01247125130995328 0
179 0.02251703937843253 0.06752874869004606 0
180 0.02875810017608584 0.03989125931015097 0
181 0.0108493560363535 0.01692142970233366 0
182 0.01084935603635751 0.0630785702976653 0
183 0.01029264260119592 0.0262782423011502 0
184 0.01029264260119597 0.05372175769885255 0
185 0.004552379234753417 0.06874915394346919 0
186 0.004552379234761466 0.0112508460565403 0
187 0.03503540724553383 0.01894116707518273 0
188 0.03503540724553119 0.06105883292480705 0
189 0.01792280972634237 0.02837575243136547 0
190 0.01792280972634235 0.05162424756863512 0
191 0.01213010313190593 0.03798582287930815 0
192 0.01213010313190593 0.04201417712069195 0
193 0.02920541506877971 0.01667598760518289 0
194 0.02920541506877753 0.06332401239481628 0
195 0.03585061912935215 0.01055924114943481 0
196 0.03585061912935151 0.06944075885055921 0
197 0.0183374488450447 0.004189191759810864 0
198 0.01833744884505157 0.07581080824019251 0
199 0.03034044636856654 0.03308907748189303 0
200 0.02021085158563802 0.03479700108859708 0
201 0.02021954060620751 0.04520137187498001 0
202 0.01669038694316689 0.01152477280675253 0
203 0.01669038694316727 0.06847522719324771 0
204 0.003976554558916823 0.02958360268674038 0
205 0.003976554558914946 0.05041639731326227 0
206 0.01559141087788487 0.03840425644276002 0
207 0.0155934230777623 0.04165249700021347 0
208 0.003821581400539814 0.07573219867705483 0
209 0.003821581400537311 0.004267801322948029 0
210 0.03626374470100376 0.07569070161542578 0
211 0.03626374470099967 0.004309298384570053 0
212 0.01034802451898567 0.004251670942586574 0
213 0.01034802451900776 0.07574832905741401 0
214 0.02965930887665979 0.07570982303925568 0
215 0.02965930887663789 0.004290176960745151 0
216 0.03627801957608794 0.03554676832369483 0
217 0.03007581829017048 0.02551045478162444 0
218 0.03008032412067436 0.05449906805355765 0
219 0.02912402931874694 0.04678695698069529 0
220 0.03611967223904296 0.04455173201982668 0
221 0.0223276235861643 0.07583107300716263 0
222 0.02232762358616506 0.004168926992838788 0
223 0.02474587737389829 0.03020143961042828 0
224 0.02472530946193378 0.04978907109320294 0
225 0.02431680365838616 0.03692461022791631 0
226 0.02076849710330823 0.03106305336588064 0
227 0.02075352477069253 0.04894486949049958 0
228 0.03122889245391648 0.01137538501090238 0
229 0.03122889245391509 0.06862461498909776 0
230 0.00870477624505059 0.06829739515127951 0
231 0.00870477624505254 0.01170260484871852 0
232 0.01277433085297078 0.02291763383759264 0
233 0.01277433085297501 0.05708236616240814 0
234 0.03602829556699663 0.02311557202591947 0
235 0.03602845456936352 0.0568847439851163 0
236 0.01484292894982583 0.01583628522858662 0
237 0.01484292894982866 0.06416371477141128 0
238 0.02015567161870275 0.04032485857506008 0
239 0.02080441118449112 0.0184260562963996 0
240 0.0208044111844909 0.06157394370359964 0
241 0.02429963998073349 0.04304868445248872 0
242 0.006496210615396595 0.03594016169447233 0
243 0.006496210615393972 0.0440598383055297 0
244 0.01650282289629777 0.02302834026740972 0
245 0.01650282289630088 0.05697165973259035 0
246 0.009926888453111621 0.03726143646648306 0
247 0.009926888453110357 0.04273856353351779 0
248 0.01251092415403181 0.03399858884149313 0
249 0.01251092415403184 0.0460014111585078 0
250 0.01586041819290972 0.03439493072983687 0
251 0.01586041819290986 0.04560506927016333 0
252 0.003596737131128309 0.06234751539867233 0
253 0.003596737131130545 0.01765248460132877 0
254 0.02265008925126266 0.02471438048640758 0
255 0.0226500892512627 0.05528561951359098 0
256 0.02912395551688133 0.07176574792069478 0
257 0.02912395551687953 0.008234252079308913 0
258 0.01073988548089623 0.007945403467812038 0
259 0.01073988548089477 0.07205459653218547 0
260 0.0364201934541373 0.05104716175014519 0
261 0.03197989637531033 0.02946648304711795 0
262 0.03186276499885835 0.05063968869577056 0
263 0.03657295701298533 0.02864216475586029 0
264 0.02355818196209315 0.008747879255804839 0
265 0.02355818196209527 0.07125212074419542 0
266 0.01183052119075924 0.03999999999999995 0
267 0.02737976018085388 0.02064357054485386 0
268 0.02737976018084852 0.05935642945514496 0
269 0.02678132373806403 0.03237586064080033 0
270 0.01149483494625145 0.02875480604486024 0
271 0.01149483494625124 0.05124519395514241 0
272 0.003403269508846277 0.07237530585247497 0
273 0.003403269508851091 0.007624694147534051 0
274 0.006965639711658779 0.01870227588813819 0
275 0.006965639711671448 0.06129772411186434 0
276 0.0193114567255216 0.02542419637950206 0
277 0.01931145672552194 0.05457580362049801 0
278 0.02501414794014037 0.02702416938944585 0
279 0.02501414794013964 0.05297583061055223 0
280 0.003174632246857349 0.03608234842734492 0
281 0.003174632246855325 0.04391765157265766 0
282 0.02358723411534826 0.02129030791739965 0
283 0.02358723411534615 0.05870969208259796 0
284 0.01575026510664315 0.03027502915987746 0
285 0.01575026510664292 0.04972497084012318 0
286 0.03228973654244433 0.03991583266359631 0
287 0.02581951304162822 0.01505853239637199 0
288 0.02581951304162674 0.06494146760362882 0
289 0.003303982254620228 0.06570045651389714 0
290 0.003303982254622626 0.01429954348612772 0
291 0.007262037983909471 0.03298484203820332 0
292 0.007262037983910653 0.04701515796179979 0
293 0.03663426030839437 0.0165501180847179 0
294 0.03663426030839344 0.06344988191526352 0
295 0.03669287735501876 0.008111156270171616 0
296 0.0366928773550194 0.07188884372982013 0
297 0.02271309442640747 0.0397854535351792 0
298 0.01873737923622934 0.03792823486449669 0
299 0.01879429161589327 0.04152021744329071 0
300 0.01799953426591184 0.01953196733286236 0
301 0.01799953426591371 0.06046803266713664 0
302 0.003229704618074021 0.02354282253717626 0
303 0.003229704618074677 0.0564571774628302 0
304 0.01382353403337506 0.009474850691499436 0
305 0.01382353403337553 0.07052514930850319 0
306 0.01382022209850457 0.00329832496846802 0
307 0.01382022209855065 0.07670167503154306 0
308 0.02618876963862921 0.07666823757905025 0
309 0.02618876963858399 0.003331762420948045 0
310 0.03288168947423002 0.01749181105442045 0
311 0.03288168947423185 0.06250818894557432 0
312 0.0333386852646962 0.02285796350176524 0
313 0.03333479461865056 0.05715782463573824 0
314 0.01691841192670134 0.007939782941874111 0
315 0.01691841192670089 0.07206021705813261 0
316 0.009692815543661923 0.01437243064786114 0
317 0.009692815543662745 0.06562756935213697 0
318 0.006584523906380021 0.02842952979411243 0
319 0.006584523906380724 0.05157047020589194 0
320 0.007264681284936217 0.003079936443222049 0
321 0.007264681284943312 0.07692006355677992 0
322 0.03273807923016021 0.07691705160996053 0
323 0.0327380792301523 0.003082948390036734 0
324 0.008052111746890207 0.02403425804238292 0
325 0.008052111746891757 0.05596574195761796 0
326 0.01158573631711903 0.03600385049583273 0
327 0.01158573631711883 0.0439961495041679 0
328 0.01012340888596328 0.03241458348264348 0
329 0.01012340888596303 0.04758541651735883 0
330 0.03202546386764099 0.04667154176213347 0
331 0.0268640187575683 0.04741191979042938 0
332 0.03709416015119998 0.0378425081158345 0
333 0.01943260626558567 0.01253624897346742 0
334 0.019432606265586 0.06746375102653235 0
335 0.01174094670002024 0.01956357735514692 0
336 0.01174094670002656 0.06043642264485288 0
337 0.03278165414546819 0.03336162274847945 0
338 0.02257740176994899 0.0157409281039303 0
339 0.02257740176994773 0.06425907189606954 0
340 0.01556661644354644 0.04000000000000001 0
341 0.01378268580516593 0.03832260955210035 0
342 0.01378268580516594 0.04167739044789962 0
343 0.002958823749516083 0.02700383939097497 0
344 0.002958823749502349 0.05299616060903366 0
345 0.03711341488288206 0.05452918241957198 0
346 0.03080589244656178 0.0140513456030952 0
347 0.03080589244656153 0.06594865439690431 0
348 0.03744236245465502 0.02605930448477115 0
349 0.02632155592807649 0.0702171129391387 0
350 0.02632155592807492 0.009782887060862449 0
351 0.02235696059498391 0.03550266829599829 0
352 0.02217480498270315 0.04493087875796956 0
353 0.02986689826484535 0.03766815408885545 0
354 0.03701937301400399 0.04719308218823536 0
355 0.02701417640592054 0.03853560874650143 0
356 0.03679114603712578 0.03270289897266629 0
357 0.002838333188928957 0.03187090674588965 0
358 0.002838333188926304 0.04812909325411894 0
359 0.01704673215777041 0.02587113835869055 0
360 0.01704673215777055 0.05412886164131046 0
361 0.03719830548145124 0.01292114506137616 0
362 0.03719830548144583 0.06707885493860961 0
363 0.006253070645499617 0.03099487816403243 0
364 0.006253070645502672 0.04900512183597234 0
365 0.02934519332180714 0.02299118225656815 0
366 0.02934537465062083 0.05700924646469293 0
367 0.0158463024387413 0.03619362014352896 0
368 0.01584630243874135 0.04380637985647107 0
369 0.03444871804650606 0.03758745037270335 0
370 0.02712346337513138 0.0417766464086036 0
371 0.03354512149443923 0.04313648801974557 0
372 0.03724183250447011 0.04218460067470836 0
373 0.02762639614150517 0.0269419908880656 0
374 0.02762639614150844 0.05305800911193963 0
375 0.01407085107939418 0.03435734823809668 0
376 0.0140708510793942 0.04564265176190391 0
377 0.02559851423531791 0.03531648972552968 0
378 0.0291873073525261 0.04257170367544143 0
379 0.01403458840014188 0.0286998907451094 0
380 0.01403458840014201 0.05130010925489144 0
381 0.02296970534725801 0.03138676814737187 0
382 0.02291704542808102 0.04859208351223872 0
383 0.0196645451330119 0.03669939786295073 0
384 0.01971257376819605 0.04324614216917239 0
385 0.01845372139496959 0.03396374919229752 0
386 0.01845523776143515 0.04603560153765968 0
387 0.0150495575114039 0.03245962703202992 0
388 0.01504955751140391 0.04754037296797122 0
389 0.02205728760814528 0.00652063223455599 0
390 0.02205728760814894 0.07347936776544502 0
391 0.01607255577823113 0.002173715226582635 0
392 0.01607255577827632 0.07782628477342664 0
393 0.03747567146395843 0.02078231714208873 0
394 0.03748415276719641 0.05912897517684897 0
395 0.02013955365691009 0.002656334244015697 0
396 0.02013955365690464 0.07734366575597862 0
397 0.02299883023438252 0.04157606482664277 0
398 0.01860236824952835 0.03061895585809595 0
399 0.01860236824952841 0.04938104414190449 0
400 0.006498031218636575 0.06794385734477329 0
401 0.006498031218641791 0.01205614265522914 0
402 0.017094771091406 0.01686926526046099 0
403 0.01709477109140789 0.06313073473953787 0
404 0.03029946036914308 0.049059428930522 0
405 0.02986903087103904 0.03546721645570042 0
406 0.0125252133924138 0.02508289607459213 0
407 0.01252521339241577 0.05491710392540911 0
408 0.02535662054684559 0.04457813396435096 0
409 0.005364586315905541 0.02359849015943017 0
410 0.005364586315904347 0.05640150984057168 0
411 0.009334230454852621 0.01879094430227776 0
412 0.009334230454859843 0.06120905569772102 0
413 0.01486271985720965 0.01358723598206945 0
414 0.01486271985721165 0.06641276401793041 0
415 0.03352273192090002 0.02082602112274876 0
416 0.03352273192089707 0.05917397887724707 0
417 0.002627828517544383 0.06022249643811685 0
418 0.002627828517545076 0.01977750356188842 0
419 0.02497353309864824 0.01217639956676343 0
420 0.02497353309864857 0.06782360043323669 0
421 0.01066176449079005 0.02353539100995753 0
422 0.01066176449079352 0.05646460899004378 0
423 0.01734821664103961 0.03849153948892436 0
424 0.01723124444759376 0.0416168969894653 0
425 0.02912060132568861 0.01932890458097018 0
426 0.02912060132568442 0.06067109541902829 0
427 0.01234722036222702 0.01473882718752082 0
428 0.01234722036222912 0.06526117281247727 0
429 0.01063644989250705 0.03847283572167487 0
430 0.01063644989250596 0.04152716427832537 0
431 0.03194426556455466 0.03153605663241534 0
432 0.008067763748657343 0.016464268032672 0
433 0.008067763748659862 0.06353573196732702 0
434 0.01334040641621498 0.01762417110283965 0
435 0.0133404064162186 0.0623758288971589 0
436 0.006428445933388517 0.07022096346311132 0
437 0.006428445933394104 0.009779036536888372 0
438 0.02912297999372665 0.04469615859270537 0
439 0.02409453560866284 0.07782871807872012 0
440 0.02409453560861429 0.002171281921280354 0
441 0.002475176318706382 0.07752494012029737 0
442 0.002475176318706264 0.002475059879702577 0
443 0.03364215850758281 0.01236762098626831 0
444 0.03364215850757818 0.06763237901372936 0
445 0.002448079983464964 0.03413373068651071 0
446 0.002448079983464357 0.04586626931349874 0
447 0.008619655348875063 0.03643362642664793 0
448 0.008619655348873394 0.0435663735733534 0
449 0.03752671777537244 0.002473282224627395 0
450 0.03752671777537291 0.07752671777537262 0
451 0.006788574096627032 0.0212111245088287 0
452 0.006788574096633563 0.05878887549116911 0
453 0.009055598000054321 0.02852585976657198 0
454 0.009055598000055051 0.05147414023343132 0
455 0.002191356080069541 0.06884638750020852 0
456 0.002191356080074982 0.01115361249983076 0
457 0.02141638736293291 0.01033463856461896 0
458 0.02141638736293247 0.0696653614353796 0
459 0.03793673040511042 0.01837404478984686 0
460 0.0379494663842708 0.06161871473354481 0
461 0.01128353895113893 0.03085146177369566 0
462 0.01128353895113833 0.04914853822630701 0
463 0.03316734542328081 0.009739654542033724 0
464 0.03316734542328049 0.0702603454579646 0
465 0.02164132153102419 0.03318854855863546 0
466 0.02160132662358524 0.04684257940033665 0
467 0.03429628594007331 0.02919891695579542 0
468 0.03383632855452653 0.04551339721868295 0
469 0.007940093153762278 0.02656146113837753 0
470 0.007940093153763577 0.05343853886162304 0
471 0.02670488710517611 0.01664616082516169 0
472 0.02670488710517294 0.06335383917483872 0
473 0.03411746470518409 0.05093153250994618 0
474 0.02017855530159776 0.0287743356192966 0
475 0.02019220250612881 0.05121590601712064 0
476 0.002292101669593143 0.0743758883201729 0
477 0.002292101669595778 0.005624111679833913 0
478 0.0196325847073239 0.03259830639968743 0
479 0.01963258470732392 0.04740169360031264 0
480 0.02567027565098064 0.02197296053408312 0
481 0.02567027365966371 0.05802704134390799 0
482 0.01167847778825397 0.07783609029105333 0
483 0.01167847778820952 0.002163909708950397 0
484 0.02832957330353001 0.07783078135209182 0
485 0.02832957330348413 0.002169218647907718 0
486 0.03004217393698747 0.02816374394255047 0
487 0.01130860955917441 0.01035802039651762 0
488 0.01130860955917243 0.06964197960348008 0
489 0.01277931092376369 0.03907275613308248 0
490 0.01277931092376369 0.04092724386691752 0
491 0.03010520120793924 0.05187870186795639 0
492 0.00901428369853575 0.03812525373658075 0
493 0.009014283698532903 0.04187474626342026 0
494 0.03127345929568302 0.04143095942152757 0
495 0.01980007041185539 0.006077042268692164 0
496 0.01980007041185791 0.07392295773130694 0
497 0.02917455777679432 0.01060887565473313 0
498 0.02917455777679186 0.06939112434527003 0
499 0.03764701563810566 0.009665364677071719 0
500 0.03764701563810711 0.07033463532292139 0
501 0.02720987226494347 0.04557884444275279 0
502 0.03461767731196802 0.01674475289716599 0
503 0.03461767731197425 0.06325524710282779 0
504 0.03791717878945786 0.03053742558530686 0
505 0.01593189628376755 0.005344706754349033 0
506 0.015931896283785 0.07465529324565726 0
507 0.03779499015296055 0.04929192672669894 0
508 0.02611087493713136 0.02879693811695333 0
509 0.02615037222021463 0.05124110237224625 0
510 0.00208133203031399 0.01592367652141532 0
511 0.002081332030312365 0.06407632347862424 0
512 0.03794786367247789 0.00617996028919137 0
513 0.03794786367247974 0.07382003971079343 0
514 0.028389911878207 0.07385694483527043 0
515 0.02838991187819492 0.006143055164729587 0
516 0.03042028203478939 0.07340895482732898 0
517 0.0304202820347805 0.006591045172671977 0
518 0.02796288065777898 0.01443622212490802 0
519 0.02796288065777808 0.06556377787509235 0
520 0.01603735037901568 0.02815085176290955 0
521 0.01603735037901577 0.05184914823709126 0
522 0.01724881681068114 0.01365656496992081 0
523 0.01724881681068229 0.0663434350300789 0
524 0.0382933978093588 0.03609760708192909 0
525 0.009425736205986022 0.006409647967602594 0
526 0.009425736205990718 0.07359035203239425 0
527 0.01150930164093187 0.006048701531752436 0
528 0.01150930164094255 0.07395129846825237 0
529 0.02847135915823832 0.03158478629284459 0
530 0.0277414657141304 0.03397762583443476 0
531 0.01468517316268497 0.02194276186204906 0
532 0.0146851731626903 0.05805723813795098 0
533 0.001923656220374136 0.02874748519430718 0
534 0.001923656220380876 0.05125251480569847 0
535 0.02284006746259738 0.03784232684791796 0
536 0.0145011673949927 0.0241590464133383 0
537 0.01450116739499596 0.05584095358666146 0
538 0.006179598773846758 0.005182166977592178 0
539 0.006179598773850547 0.07481783302241013 0
540 0.03390777561409386 0.07482146832809704 0
541 0.0339077756140885 0.005178531671900119 0
542 0.0183976019351836 0.01002448469951627 0
543 0.01839760193518404 0.0699755153004851 0
544 0.01852258232610363 0.02370873427309327 0
545 0.01852258232610484 0.05629126572690679 0
546 0.01284705482158378 0.0368191833457344 0
547 0.01284705482158378 0.04318081665426581 0
548 0.01255066477822922 0.02706784411342354 0
549 0.01255066477822973 0.05293215588657817 0
550 0.03374138802085119 0.03530944813035893 0
551 0.01902736175797406 0.01732090969301741 0
552 0.01902736175797469 0.06267909030698142 0
553 0.02425714849063167 0.07523144844032389 0
554 0.02425714849061127 0.004768551559681189 0
555 0.005154535008262699 0.002322406453667515 0
556 0.005154535008273186 0.07767759354633415 0
557 0.0250541485295247 0.03209777518092229 0
558 0.03486069866804756 0.07767659364783973 0
559 0.03486069866803518 0.002323406352158066 0
560 0.007851995333948477 0.03471047779833685 0
561 0.007851995333947905 0.04528952220166513 0
562 0.0311773215533658 0.0089278255743426 0
563 0.03117732155336618 0.07107217442565879 0
564 0.002172611922473487 0.02198835635041068 0
565 0.002172611922473428 0.05801164364959126 0
566 0.023123506667411 0.02958292422228836 0
567 0.02313876342998231 0.0503900281889887 0
568 0.02822384678344823 0.04864014246064032 0
569 0.00877164092886925 0.008876127570576056 0
570 0.008771640928867975 0.0711238724294206 0
571 0.03815278212807314 0.0238018760478831 0
572 0.03254992292703818 0.02506855906602629 0
573 0.03240212581865653 0.05495011004602274 0
574 0.03817888379412479 0.05624999999993865 0
575 0.02665079528131612 0.03072935721848438 0
576 0.004832463887737903 0.02745413635645406 0
577 0.004832463887733914 0.05254586364354932 0
578 0.02545585115062919 0.03850724875446109 0
579 0.03808529484238123 0.04404321496435544 0
580 0.009092439245612007 0.07791821165473763 0
581 0.009092439245576359 0.002081788345250959 0
582 0.03090853227798855 0.002084665159448951 0
583 0.03090853227802439 0.07791533484056234 0
584 0.03254350787173094 0.04891166382461177 0
585 0.01782676036975125 0.02181805566352414 0
586 0.01782676036975353 0.05818194433647584 0
587 0.03487877348429034 0.03371463253776259 0
588 0.02103158363577334 0.01440099158290565 0
589 0.0210315836357735 0.0655990084170938 0
590 0.03140769183707583 0.01634491045031503 0
591 0.03140769183707579 0.06365508954968217 0
592 0.01470827455625212 0.03720504694424347 0
593 0.01470827455625212 0.04279495305575656 0
594 0.03021370424675755 0.03035457937844759 0
595 0.02722461795728703 0.01858272936075811 0
596 0.02722461795728179 0.06141727063924113 0
597 0.02144901284437161 0.04086413133675787 0
598 0.02503071897335873 0.0413964281650951 0
599 0.0226886422992215 0.01743089030979016 0
600 0.02268864229921901 0.06256910969020942 0
601 0.02781850219940488 0.02466774374302072 0
602 0.02781885695847597 0.0553331437936082 0
603 0.01266628396451805 0.03531041012640879 0
604 0.01266628396451796 0.04468958987359168 0
605 0.02335563204566848 0.02663805476071998 0
606 0.02335563204566863 0.05336194523927867 0
607 0.001913378513361054 0.00902284806434683 0
608 0.001913378513347702 0.07097715193569705 0
609 0.01886004102564523 0.03963393450918778 0
610 0.02123590316954035 0.02051643221264181 0
611 0.02123590316954122 0.05948356778735781 0
612 0.03211689174565151 0.02730394630530735 0
613 0.0321052111448031 0.05271982902330827 0
614 0.004385129713883525 0.03736496172670916 0
615 0.004385129713875406 0.04263503827329263 0
616 0.004970750629420422 0.06065096713198797 0
617 0.004970750629417331 0.01934903286801156 0
618 0.02456051517446284 0.02519199210941451 0
619 0.0245605095987846 0.05480801314896394 0
620 0.005652932296036348 0.06286094052297353 0
621 0.005652932296038163 0.01713905947702116 0
622 0.01117042956048031 0.03719291769318912 0
623 0.01117042956048024 0.04280708230681175 0
624 0.03795987009617232 0.04011684394448552 0
625 0.0146515959399227 0.03926070205067019 0
626 0.01465181654538733 0.04074365704848685 0
627 0.02602451546013643 0.0371305306964157 0
628 0.01148227264967338 0.02166298692186837 0
629 0.01148227264967888 0.05833701307813225 0
630 0.004654494086334133 0.0351651042456515 0
631 0.004654494086333187 0.04483489575435189 0
632 0.02067386158557321 0.0240938744475553 0
633 0.02067386158557351 0.05590612555244435 0
634 0.03481584587838237 0.02507972841651581 0
635 0.03465881309700573 0.05533061918839843 0
636 0.02006404576279421 0.0385483785245716 0
637 0.03555230647576966 0.01441140024034202 0
638 0.03555230647576795 0.06558859975964713 0
639 0.01182802332982397 0.03264719295186945 0
640 0.01182802332982483 0.04735280704813299 0
641 0.02490950036797916 0.04787279481970676 0
642 0.03535625962485182 0.04630490424897968 0
643 0.03363927641534002 0.04104737991588449 0
644 0.02264528705829473 0.04321848596111493 0
645 0.01267319520496878 0.007878148831745386 0
646 0.01267319520497199 0.0721218511682581 0
647 0.03462049366099459 0.008001303630489748 0
648 0.03462049366099484 0.0719986963695079 0
649 0.02431942302368464 0.006790325547744793 0
650 0.02431942302369396 0.07320967445225673 0
651 0.03530068204544853 0.02121334356818195 0
652 0.03530093606843408 0.05878288998399698 0
653 0.01829610420274006 0.001848531604491921 0
654 0.01829610420277191 0.07815146839551305 0
655 0.02395464375905228 0.03537748172964527 0
656 0.004566601231199266 0.03168205167888099 0
657 0.004566601231202605 0.04831794832112282 0
658 0.01094706478805754 0.0345710860488443 0
659 0.01094706478805724 0.04542891395115648 0
660 0.001926403088579854 0.04244885182394374 0
661 0.001926403088584237 0.03755114817606018 0
662 0.02413225838309683 0.02328758871741268 0
663 0.02413225838309645 0.05671241128258447 0
664 0.006084256256275291 0.0341131200642081 0
665 0.006084256256275262 0.04588687993579493 0
666 0.01500683298456906 0.03526680155241135 0
667 0.01500683298456916 0.04473319844758878 0
668 0.00911383713644176 0.03369117927568835 0
669 0.009113837136441762 0.04630882072431303 0
670 0.02711198407614458 0.007614951798716582 0
671 0.02711198407615175 0.07238504820128465 0
672 0.005374171093533107 0.07221312420935437 0
673 0.005374171093535716 0.007786875790648319 0
674 0.001929238895379717 0.05477324124548269 0
675 0.001929238895379036 0.02522675875454577 0
676 0.03818417539893468 0.06873737215872829 0
677 0.03818417539893187 0.01126262784125134 0
678 0.02096664617747171 0.03604661932021826 0
679 0.02107793473250493 0.04391775012207413 0
680 0.02202847755503488 0.02263672617751117 0
681 0.02202847755503503 0.05736327382248756 0
682 0.001706272703376926 0.06193988723307773 0
683 0.001706272703386483 0.01806011276695119 0
684 0.03570436020294097 0.05299163797644494 0
685 0.001498656570754317 0.04417167109770469 0
686 0.001498656570757854 0.03582832890230333 0
687 0.02195122897042031 0.07811071791187515 0
688 0.02195122897039746 0.001889282088118821 0
689 0.0116703554564652 0.03904192699555596 0
690 0.01167035545646492 0.04095807300444407 0
691 0.01044824339137384 0.01243651724039875 0
692 0.01044824339137513 0.06756348275959452 0
693 0.03050628799287075 0.04553844807822139 0
694 0.001649632555309603 0.06646957934137794 0
695 0.00164963255530317 0.01353042065868201 0
696 0.03567003897059565 0.02697167434641625 0
697 0.03151719538246234 0.03483086713807467 0
698 0.0128574871396745 0.03011359292377593 0
699 0.01285748713967409 0.04988640707622594 0
700 0.024001176533931 0.03889520355894755 0
701 0.03806807653666881 0.05248929070869539 0
702 0.03840658540019214 0.0285826426303399 0
703 0.03129079438992365 0.02349544441118564 0
704 0.03126138923948198 0.05651344429198493 0
705 0.03168660714914491 0.07525558964385966 0
706 0.0316866071491318 0.004744410356141125 0
707 0.01817207226765025 0.006371718798440442 0
708 0.01817207226765563 0.07362828120156237 0
709 0.02106245661129355 0.02641001787067408 0
710 0.02106904102039012 0.05358390218368207 0
711 0.02750187728588932 0.02262506283870313 0
712 0.02750190871017641 0.0573750181811593 0
713 0.0165471745664559 0.0373398010686055 0
714 0.01654717456645585 0.04266019893139449 0
715 0.01727637624881858 0.03505317238268945 0
716 0.01728886802168589 0.0449294946170188 0
717 0.008292246953388014 0.07530033717833483 0
718 0.0082922469533759 0.004699662821663072 0
719 0.01029917103023478 0.03605409080741947 0
720 0.01029917103023433 0.04394590919258168 0
721 0.02775899650916128 0.004355514050798381 0
722 0.02775899650918964 0.07564448594920133 0
723 0.01578006736299223 0.009681583534875809 0
724 0.01578006736299356 0.0703184164651272 0
725 0.02932944929496552 0.01254508559520156 0
726 0.02932944929496456 0.06745491440479917 0
727 0.01092167057799897 0.04000000000000002 0
728 0.02080467021710065 0.01644045574286297 0
729 0.02080467021710015 0.06355954425713646 0
730 0.02365654701366292 0.04437407621623866 0
731 0.004338852968563159 0.0642919909856705 0
732 0.004338852968564886 0.01570800901433681 0
733 0.02529594199594949 0.02001390814689987 0
734 0.02529594199594527 0.05998609185309876 0
735 0.02651615775194942 0.0493177965118448 0
736 0.01220954629406013 0.07579945571995672 0
737 0.01220954629403394 0.0042005442800595 0
738 0.03595267283708149 0.04937043404280503 0
739 0.01334485160090559 0.03301907589419863 0
740 0.01334485160090555 0.04698092410580262 0
741 0.004276169244782069 0.07389911251252099 0
742 0.004276169244782279 0.006100887487483162 0
743 0.01636001680238353 0.02119269927401036 0
744 0.0163600168023871 0.05880730072598945 0
745 0.02410547555844552 0.02841847034375019 0
746 0.02414851059648647 0.05155164246031139 0
747 0.014039407538006 0.01144639310248754 0
748 0.01403940753800795 0.06855360689751396 0
749 0.0168292914418892 0.03153803791000348 0
750 0.01682929144188931 0.04846196208999717 0
751 0.02023350005155553 0.04169816589215735 0
752 0.005174069780487152 0.01357158374951768 0
753 0.005174069780479719 0.06642841625048615 0
754 0.0359879874612938 0.03059595192700497 0
755 0.03080326039112232 0.03933735422557992 0
756 0.01307123313127714 0.02118188233318226 0
757 0.0130712331312823 0.05881811766681791 0
758 0.0382725126845145 0.03436945487562214 0
759 0.03536237791562846 0.04222486934921887 0
760 0.0262032871990291 0.02554757254524028 0
761 0.02620335369030112 0.05445260916878956 0
762 0.0147820798154997 0.007658007697052945 0
763 0.01478207981550542 0.07234199230295273 0
764 0.03579275678806546 0.07375609641615827 0
765 0.03579275678806345 0.006243903583836434 0
766 0.01913819491704731 0.02706996663666953 0
767 0.01913819491704743 0.05293003336333072 0
768 0.02581874741676826 0.04290169906879999 0
769 0.03808774304258841 0.01472506951881082 0
770 0.03808774304258764 0.06527493048116871 0
771 0.0155123483616552 0.01790866631660337 0
772 0.01551234836165812 0.06209133368339551 0
773 0.006835879896118247 0.03781066726406835 0
774 0.006835879896109337 0.04218933273593266 0
775 0.01691342453286137 0.03331279620415941 0
776 0.01691575922275024 0.04668420675078522 0
777 0.03095147320433319 0.0183585195800994 0
778 0.03095147320433164 0.06164148041989742 0
779 0.02311038696105681 0.01930976969695659 0
780 0.02311038696105467 0.06069023030304238 0
781 0.0283511534682925 0.03816576855004513 0
782 0.02375733954603628 0.01070261115160059 0
783 0.02375733954603707 0.0692973888483993 0
784 0.008249799106519032 0.03178279394912 0
785 0.008249799106519625 0.04821720605088347 0
786 0.01652258099465739 0.03937773814860149 0
787 0.01652809873071088 0.04067546714460268 0
788 0.02166322400266914 0.02972848786756703 0
789 0.02168120773774154 0.05025060160834457 0
790 0.03220039164269493 0.03839162361006964 0
791 0.001567449450888639 0.04953482940344312 0
792 0.00156744945090651 0.03046517059655349 0
793 0.02394613934988142 0.01419573792478021 0
794 0.02394613934988052 0.06580426207522051 0
795 0.02926450153514413 0.02116449683096556 0
796 0.02926450153513771 0.05883550316903379 0
797 0.03312882694548721 0.03048768485821264 0
798 0.02051131704945326 0.004457446355421252 0
799 0.02051131704945439 0.07554255364457574 0
800 0.02390781505829602 0.04033017454330321 0
801 0.01655710069163396 0.01524467123754981 0
802 0.01655710069163648 0.0647553287624492 0
803 0.02562927888741484 0.0463071781925018 0
804 0.005718549333489998 0.03260722688084268 0
805 0.005718549333491661 0.04739277311916112 0
806 0.0336387487535787 0.03941940048941494 0
807 0.003352892240896128 0.06733685122256954 0
808 0.003352892240906214 0.01266314877745532 0
809 0.02141076654841296 0.03913632959882481 0
810 0.003977166727323092 0.07056368115071923 0
811 0.003977166727329736 0.009436318849298107 0
812 0.02581695641293404 0.0335102490871929 0
813 0.01030662646347315 0.02979149827882044 0
814 0.01030662646347158 0.05020850172118425 0
815 0.02444339018557663 0.01621699691514007 0
816 0.02444339018557421 0.06378300308486012 0
817 0.0217169637582403 0.008436863588894552 0
818 0.02171696375824193 0.07156313641110544 0
819 0.00772078307814799 0.03003362198614579 0
820 0.007720783078149052 0.04996637801385965 0
821 0.01720597461572982 0.0297897956010079 0
822 0.01720597461572973 0.05021020439899267 0
823 0.001466311087185309 0.02353283752844275 0
824 0.001466311087185564 0.0564671624715983 0
825 0.001529740307473193 0.00399994315323764 0
826 0.001529740307478914 0.07600005684676622 0
827 0.03548744640460349 0.01258087403072784 0
828 0.03548744640460148 0.06741912596926425 0
829 0.03853429394705038 0.06356870542597763 0
830 0.03853174675121863 0.01642984647866057 0
831 0.03840768906307267 0.04579227748426218 0
832 0.008115111448221798 0.019984876015671 0
833 0.008115111448229935 0.06001512398432864 0
834 0.004021904435564863 0.02540788378244967 0
835 0.004021904435553686 0.05459211621755141 0
836 0.00757423379050858 0.06603835724072719 0
837 0.007574233790511423 0.01396164275927366 0
838 0.03850051922214333 0.07603997870026315 0
839 0.0385005192221362 0.00396002129973074 0
840 0.01423006187957722 0.03062952740576798 0
841 0.01423006187957672 0.04937047259423346 0
842 0.02607147630930099 0.01348776707755416 0
843 0.02607147630930095 0.06651223292244669 0
844 0.02639635723574317 0.04001786523080202 0
845 0.03838514764112723 0.008135342486054303 0
846 0.03838514764112634 0.07186465751392948 0
847 0.01869428199908946 0.03547709722204218 0
848 0.01869172047312641 0.04452677294829609 0
849 0.003782427831749872 0.07880063341665786 0
850 0.003782427831738809 0.001199366583342523 0
851 0.0255025040041336 0.007910326259396803 0
852 0.02550250400413919 0.07208967374060436 0
853 0.03270713079818066 0.01933331625647909 0
854 0.03270712576675988 0.06066669068548779 0
855 0.0137862668373932 0.001409748662067253 0
856 0.01378626683745531 0.07859025133793848 0
857 0.02623483721800442 0.07857486121371297 0
858 0.02623483721794145 0.001425138786283836 0
859 0.001243794079679158 0.07876404753007583 0
860 0.001243794079675327 0.001235952469927423 0
861 0.03622185411084699 0.001199172144196365 0
862 0.03622185411085894 0.07880082785580307 0
863 0.001743379085811377 0.00728343606789477 0
864 0.001743379085796254 0.0727165639321329 0
$EndNodes
$Elements
1621
1 2 2 1 1 300 165 771
2 2 2 1 1 166 301 772
3 2 2 1 1 358 82 446
4 2 2 1 1 93 357 445
5 2 2 1 1 299 113 609
6 2 2 1 1 183 270 453
7 2 2 1 1 271 184 454
8 2 2 1 1 171 298 423
9 2 2 1 1 299 172 424
10 2 2 1 1 315 506 763
11 2 2 1 1 505 314 762
12 2 2 1 1 216 332 369
13 2 2 1 1 270 183 548
14 2 2 1 1 184 271 549
15 2 2 1 1 300 239 610
16 2 2 1 1 240 301 611
17 2 2 1 1 106 300 610
18 2 2 1 1 301 107 611
19 2 2 1 1 82 83 446
20 2 2 1 1 92 93 445
21 2 2 1 1 3 55 450
22 2 2 1 1 2 24 449
23 2 2 1 1 23 2 449
24 2 2 1 1 54 3 450
25 2 2 1 1 181 316 427
26 2 2 1 1 317 182 428
27 2 2 1 1 234 312 651
28 2 2 1 1 313 235 652
29 2 2 1 1 348 34 702
30 2 2 1 1 169 330 468
31 2 2 1 1 147 346 443
32 2 2 1 1 347 148 444
33 2 2 1 1 291 363 784
34 2 2 1 1 364 292 785
35 2 2 1 1 346 228 443
36 2 2 1 1 229 347 444
37 2 2 1 1 488 305 646
38 2 2 1 1 304 487 645
39 2 2 1 1 402 300 771
40 2 2 1 1 301 403 772
41 2 2 1 1 219 330 404
42 2 2 1 1 204 318 363
43 2 2 1 1 319 205 364
44 2 2 1 1 165 300 743
45 2 2 1 1 301 166 744
46 2 2 1 1 33 34 348
47 2 2 1 1 507 43 701
48 2 2 1 1 120 324 451
49 2 2 1 1 325 121 452
50 2 2 1 1 487 304 747
51 2 2 1 1 305 488 748
52 2 2 1 1 113 299 424
53 2 2 1 1 332 38 624
54 2 2 1 1 293 187 502
55 2 2 1 1 188 294 503
56 2 2 1 1 295 195 647
57 2 2 1 1 196 296 648
58 2 2 1 1 187 293 459
59 2 2 1 1 294 188 460
60 2 2 1 1 506 154 763
61 2 2 1 1 153 505 762
62 2 2 1 1 473 152 613
63 2 2 1 1 302 176 409
64 2 2 1 1 177 303 410
65 2 2 1 1 332 174 369
66 2 2 1 1 351 225 535
67 2 2 1 1 169 468 642
68 2 2 1 1 341 546 592
69 2 2 1 1 547 342 593
70 2 2 1 1 195 295 499
71 2 2 1 1 296 196 500
72 2 2 1 1 127 330 693
73 2 2 1 1 221 390 553
74 2 2 1 1 389 222 554
75 2 2 1 1 11 320 555
76 2 2 1 1 321 67 556
77 2 2 1 1 553 390 650
78 2 2 1 1 389 554 649
79 2 2 1 1 312 415 651
80 2 2 1 1 416 313 652
81 2 2 1 1 506 315 708
82 2 2 1 1 314 505 707
83 2 2 1 1 57 322 558
84 2 2 1 1 323 21 559
85 2 2 1 1 238 299 609
86 2 2 1 1 784 363 819
87 2 2 1 1 364 785 820
88 2 2 1 1 183 324 421
89 2 2 1 1 325 184 422
90 2 2 1 1 159 351 535
91 2 2 1 1 298 171 383
92 2 2 1 1 172 299 384
93 2 2 1 1 330 127 468
94 2 2 1 1 314 125 542
95 2 2 1 1 126 315 543
96 2 2 1 1 266 489 490
97 2 2 1 1 263 348 702
98 2 2 1 1 341 191 546
99 2 2 1 1 192 342 547
100 2 2 1 1 85 615 660
101 2 2 1 1 614 90 661
102 2 2 1 1 151 467 612
103 2 2 1 1 310 187 853
104 2 2 1 1 188 311 854
105 2 2 1 1 175 370 378
106 2 2 1 1 300 106 585
107 2 2 1 1 107 301 586
108 2 2 1 1 429 7 492
109 2 2 1 1 6 430 493
110 2 2 1 1 324 120 421
111 2 2 1 1 121 325 422
112 2 2 1 1 639 248 658
113 2 2 1 1 249 640 659
114 2 2 1 1 38 39 624
115 2 2 1 1 259 488 646
116 2 2 1 1 487 258 645
117 2 2 1 1 112 404 491
118 2 2 1 1 427 316 691
119 2 2 1 1 317 428 692
120 2 2 1 1 170 337 431
121 2 2 1 1 488 115 748
122 2 2 1 1 114 487 747
123 2 2 1 1 359 130 536
124 2 2 1 1 131 360 537
125 2 2 1 1 226 465 478
126 2 2 1 1 466 227 479
127 2 2 1 1 404 262 491
128 2 2 1 1 393 32 571
129 2 2 1 1 153 306 505
130 2 2 1 1 307 154 506
131 2 2 1 1 312 234 634
132 2 2 1 1 235 313 635
133 2 2 1 1 370 180 378
134 2 2 1 1 312 122 415
135 2 2 1 1 123 313 416
136 2 2 1 1 125 314 707
137 2 2 1 1 315 126 708
138 2 2 1 1 244 359 536
139 2 2 1 1 360 245 537
140 2 2 1 1 264 350 782
141 2 2 1 1 349 265 783
142 2 2 1 1 755 353 790
143 2 2 1 1 489 142 490
144 2 2 1 1 170 431 797
145 2 2 1 1 239 300 551
146 2 2 1 1 301 240 552
147 2 2 1 1 615 86 774
148 2 2 1 1 89 614 773
149 2 2 1 1 316 181 432
150 2 2 1 1 182 317 433
151 2 2 1 1 231 316 837
152 2 2 1 1 317 230 836
153 2 2 1 1 7 88 492
154 2 2 1 1 87 6 493
155 2 2 1 1 324 157 409
156 2 2 1 1 158 325 410
157 2 2 1 1 350 419 782
158 2 2 1 1 420 349 783
159 2 2 1 1 353 124 790
160 2 2 1 1 157 324 469
161 2 2 1 1 325 158 470
162 2 2 1 1 122 312 703
163 2 2 1 1 313 123 704
164 2 2 1 1 615 281 660
165 2 2 1 1 280 614 661
166 2 2 1 1 324 183 469
167 2 2 1 1 184 325 470
168 2 2 1 1 176 302 564
169 2 2 1 1 303 177 565
170 2 2 1 1 46 394 574
171 2 2 1 1 124 353 405
172 2 2 1 1 269 529 530
173 2 2 1 1 260 507 701
174 2 2 1 1 306 153 737
175 2 2 1 1 154 307 736
176 2 2 1 1 174 332 624
177 2 2 1 1 529 199 530
178 2 2 1 1 335 120 411
179 2 2 1 1 121 336 412
180 2 2 1 1 225 351 655
181 2 2 1 1 308 156 722
182 2 2 1 1 155 309 721
183 2 2 1 1 156 308 553
184 2 2 1 1 309 155 554
185 2 2 1 1 45 345 701
186 2 2 1 1 171 423 713
187 2 2 1 1 424 172 714
188 2 2 1 1 152 473 684
189 2 2 1 1 398 109 749
190 2 2 1 1 110 399 750
191 2 2 1 1 328 639 658
192 2 2 1 1 640 329 659
193 2 2 1 1 378 180 494
194 2 2 1 1 187 310 502
195 2 2 1 1 311 188 503
196 2 2 1 1 147 310 590
197 2 2 1 1 311 148 591
198 2 2 1 1 333 140 522
199 2 2 1 1 141 334 523
200 2 2 1 1 202 333 522
201 2 2 1 1 334 203 523
202 2 2 1 1 432 274 621
203 2 2 1 1 275 433 620
204 2 2 1 1 310 147 502
205 2 2 1 1 148 311 503
206 2 2 1 1 328 118 461
207 2 2 1 1 119 329 462
208 2 2 1 1 178 333 457
209 2 2 1 1 334 179 458
210 2 2 1 1 330 219 693
211 2 2 1 1 181 335 411
212 2 2 1 1 336 182 412
213 2 2 1 1 546 128 592
214 2 2 1 1 129 547 593
215 2 2 1 1 86 87 774
216 2 2 1 1 88 89 773
217 2 2 1 1 127 371 468
218 2 2 1 1 299 238 751
219 2 2 1 1 598 397 800
220 2 2 1 1 733 282 779
221 2 2 1 1 283 734 780
222 2 2 1 1 316 231 691
223 2 2 1 1 230 317 692
224 2 2 1 1 371 127 494
225 2 2 1 1 40 372 624
226 2 2 1 1 173 353 781
227 2 2 1 1 262 473 613
228 2 2 1 1 324 409 451
229 2 2 1 1 410 325 452
230 2 2 1 1 320 11 581
231 2 2 1 1 67 321 580
232 2 2 1 1 185 400 436
233 2 2 1 1 401 186 437
234 2 2 1 1 318 157 469
235 2 2 1 1 158 319 470
236 2 2 1 1 322 57 583
237 2 2 1 1 21 323 582
238 2 2 1 1 95 343 533
239 2 2 1 1 344 80 534
240 2 2 1 1 400 230 436
241 2 2 1 1 231 401 437
242 2 2 1 1 226 381 465
243 2 2 1 1 382 227 466
244 2 2 1 1 467 151 696
245 2 2 1 1 85 86 615
246 2 2 1 1 89 90 614
247 2 2 1 1 318 204 576
248 2 2 1 1 205 319 577
249 2 2 1 1 417 77 565
250 2 2 1 1 98 418 564
251 2 2 1 1 46 47 394
252 2 2 1 1 31 32 393
253 2 2 1 1 494 180 755
254 2 2 1 1 149 733 779
255 2 2 1 1 734 150 780
256 2 2 1 1 114 427 691
257 2 2 1 1 428 115 692
258 2 2 1 1 157 318 576
259 2 2 1 1 319 158 577
260 2 2 1 1 241 397 598
261 2 2 1 1 335 181 434
262 2 2 1 1 182 336 435
263 2 2 1 1 165 335 434
264 2 2 1 1 336 166 435
265 2 2 1 1 658 143 668
266 2 2 1 1 144 659 669
267 2 2 1 1 116 350 497
268 2 2 1 1 349 117 498
269 2 2 1 1 333 178 588
270 2 2 1 1 179 334 589
271 2 2 1 1 350 257 497
272 2 2 1 1 256 349 498
273 2 2 1 1 77 78 565
274 2 2 1 1 97 98 564
275 2 2 1 1 187 415 853
276 2 2 1 1 416 188 854
277 2 2 1 1 21 22 559
278 2 2 1 1 56 57 558
279 2 2 1 1 465 200 478
280 2 2 1 1 201 466 479
281 2 2 1 1 353 173 405
282 2 2 1 1 67 68 556
283 2 2 1 1 10 11 555
284 2 2 1 1 113 423 609
285 2 2 1 1 234 393 571
286 2 2 1 1 246 429 492
287 2 2 1 1 430 247 493
288 2 2 1 1 351 200 465
289 2 2 1 1 201 352 466
290 2 2 1 1 36 356 504
291 2 2 1 1 345 235 635
292 2 2 1 1 467 261 612
293 2 2 1 1 328 658 668
294 2 2 1 1 659 329 669
295 2 2 1 1 44 45 701
296 2 2 1 1 538 209 555
297 2 2 1 1 208 539 556
298 2 2 1 1 346 193 518
299 2 2 1 1 194 347 519
300 2 2 1 1 216 369 550
301 2 2 1 1 320 538 555
302 2 2 1 1 539 321 556
303 2 2 1 1 343 95 675
304 2 2 1 1 80 344 674
305 2 2 1 1 337 199 431
306 2 2 1 1 219 331 501
307 2 2 1 1 234 348 634
308 2 2 1 1 363 291 804
309 2 2 1 1 292 364 805
310 2 2 1 1 433 145 620
311 2 2 1 1 146 432 621
312 2 2 1 1 39 40 624
313 2 2 1 1 322 540 558
314 2 2 1 1 541 323 559
315 2 2 1 1 540 210 558
316 2 2 1 1 211 541 559
317 2 2 1 1 7 429 727
318 2 2 1 1 430 6 727
319 2 2 1 1 298 383 636
320 2 2 1 1 43 44 701
321 2 2 1 1 354 42 507
322 2 2 1 1 181 427 434
323 2 2 1 1 428 182 435
324 2 2 1 1 109 398 478
325 2 2 1 1 399 110 479
326 2 2 1 1 351 159 678
327 2 2 1 1 250 387 775
328 2 2 1 1 388 251 776
329 2 2 1 1 394 235 574
330 2 2 1 1 372 174 624
331 2 2 1 1 398 749 821
332 2 2 1 1 750 399 822
333 2 2 1 1 111 373 486
334 2 2 1 1 581 212 718
335 2 2 1 1 213 580 717
336 2 2 1 1 374 112 491
337 2 2 1 1 332 216 524
338 2 2 1 1 120 335 628
339 2 2 1 1 336 121 629
340 2 2 1 1 427 236 434
341 2 2 1 1 237 428 435
342 2 2 1 1 583 214 705
343 2 2 1 1 215 582 706
344 2 2 1 1 709 474 766
345 2 2 1 1 475 710 767
346 2 2 1 1 350 116 419
347 2 2 1 1 117 349 420
348 2 2 1 1 250 375 387
349 2 2 1 1 376 251 388
350 2 2 1 1 138 474 709
351 2 2 1 1 475 139 710
352 2 2 1 1 406 183 421
353 2 2 1 1 184 407 422
354 2 2 1 1 355 180 844
355 2 2 1 1 373 217 486
356 2 2 1 1 218 374 491
357 2 2 1 1 118 784 819
358 2 2 1 1 785 119 820
359 2 2 1 1 314 542 723
360 2 2 1 1 543 315 724
361 2 2 1 1 530 377 812
362 2 2 1 1 330 169 584
363 2 2 1 1 284 379 520
364 2 2 1 1 380 285 521
365 2 2 1 1 381 226 788
366 2 2 1 1 227 382 789
367 2 2 1 1 341 142 489
368 2 2 1 1 142 342 490
369 2 2 1 1 413 236 427
370 2 2 1 1 237 414 428
371 2 2 1 1 333 202 542
372 2 2 1 1 203 334 543
373 2 2 1 1 140 333 588
374 2 2 1 1 334 141 589
375 2 2 1 1 320 581 718
376 2 2 1 1 580 321 717
377 2 2 1 1 383 159 636
378 2 2 1 1 200 385 478
379 2 2 1 1 386 201 479
380 2 2 1 1 385 109 478
381 2 2 1 1 110 386 479
382 2 2 1 1 191 341 489
383 2 2 1 1 342 192 490
384 2 2 1 1 322 583 705
385 2 2 1 1 582 323 706
386 2 2 1 1 132 351 465
387 2 2 1 1 352 133 466
388 2 2 1 1 114 413 427
389 2 2 1 1 414 115 428
390 2 2 1 1 345 635 684
391 2 2 1 1 52 53 513
392 2 2 1 1 25 26 512
393 2 2 1 1 411 274 432
394 2 2 1 1 275 412 433
395 2 2 1 1 193 425 595
396 2 2 1 1 426 194 596
397 2 2 1 1 180 370 844
398 2 2 1 1 369 124 550
399 2 2 1 1 38 332 524
400 2 2 1 1 159 535 809
401 2 2 1 1 356 170 754
402 2 2 1 1 457 333 542
403 2 2 1 1 334 458 543
404 2 2 1 1 401 231 837
405 2 2 1 1 230 400 836
406 2 2 1 1 199 337 697
407 2 2 1 1 429 689 727
408 2 2 1 1 690 430 727
409 2 2 1 1 226 398 474
410 2 2 1 1 399 227 475
411 2 2 1 1 423 298 609
412 2 2 1 1 14 15 391
413 2 2 1 1 63 64 392
414 2 2 1 1 335 165 756
415 2 2 1 1 166 336 757
416 2 2 1 1 371 494 643
417 2 2 1 1 361 28 769
418 2 2 1 1 50 362 770
419 2 2 1 1 357 167 445
420 2 2 1 1 168 358 446
421 2 2 1 1 471 193 595
422 2 2 1 1 194 472 596
423 2 2 1 1 634 348 696
424 2 2 1 1 365 122 703
425 2 2 1 1 123 366 704
426 2 2 1 1 404 330 584
427 2 2 1 1 398 226 478
428 2 2 1 1 227 399 479
429 2 2 1 1 31 393 459
430 2 2 1 1 394 47 460
431 2 2 1 1 387 749 775
432 2 2 1 1 750 388 776
433 2 2 1 1 331 219 568
434 2 2 1 1 400 185 753
435 2 2 1 1 186 401 752
436 2 2 1 1 452 275 616
437 2 2 1 1 274 451 617
438 2 2 1 1 183 406 548
439 2 2 1 1 407 184 549
440 2 2 1 1 169 354 738
441 2 2 1 1 124 369 790
442 2 2 1 1 353 180 781
443 2 2 1 1 361 195 677
444 2 2 1 1 196 362 676
445 2 2 1 1 189 359 766
446 2 2 1 1 360 190 767
447 2 2 1 1 588 178 793
448 2 2 1 1 179 589 794
449 2 2 1 1 346 147 590
450 2 2 1 1 148 347 591
451 2 2 1 1 348 263 696
452 2 2 1 1 495 125 707
453 2 2 1 1 126 496 708
454 2 2 1 1 753 185 807
455 2 2 1 1 186 752 808
456 2 2 1 1 354 220 831
457 2 2 1 1 276 359 544
458 2 2 1 1 360 277 545
459 2 2 1 1 447 246 492
460 2 2 1 1 247 448 493
461 2 2 1 1 269 530 812
462 2 2 1 1 431 199 594
463 2 2 1 1 359 244 544
464 2 2 1 1 245 360 545
465 2 2 1 1 204 343 576
466 2 2 1 1 344 205 577
467 2 2 1 1 343 204 533
468 2 2 1 1 205 344 534
469 2 2 1 1 235 345 574
470 2 2 1 1 118 328 784
471 2 2 1 1 329 119 785
472 2 2 1 1 35 36 504
473 2 2 1 1 52 513 846
474 2 2 1 1 512 26 845
475 2 2 1 1 302 409 834
476 2 2 1 1 410 303 835
477 2 2 1 1 566 381 788
478 2 2 1 1 382 567 789
479 2 2 1 1 204 357 792
480 2 2 1 1 358 205 791
481 2 2 1 1 337 170 587
482 2 2 1 1 173 377 530
483 2 2 1 1 265 349 852
484 2 2 1 1 350 264 851
485 2 2 1 1 345 45 574
486 2 2 1 1 453 270 813
487 2 2 1 1 271 454 814
488 2 2 1 1 199 529 594
489 2 2 1 1 359 189 520
490 2 2 1 1 190 360 521
491 2 2 1 1 124 405 697
492 2 2 1 1 180 355 781
493 2 2 1 1 284 520 821
494 2 2 1 1 521 285 822
495 2 2 1 1 47 48 460
496 2 2 1 1 30 31 459
497 2 2 1 1 122 425 777
498 2 2 1 1 426 123 778
499 2 2 1 1 641 331 735
500 2 2 1 1 200 383 847
501 2 2 1 1 384 201 848
502 2 2 1 1 175 378 438
503 2 2 1 1 177 452 616
504 2 2 1 1 451 176 617
505 2 2 1 1 142 341 625
506 2 2 1 1 342 142 626
507 2 2 1 1 200 351 678
508 2 2 1 1 352 201 679
509 2 2 1 1 167 357 656
510 2 2 1 1 358 168 657
511 2 2 1 1 356 216 587
512 2 2 1 1 170 356 587
513 2 2 1 1 461 118 813
514 2 2 1 1 119 462 814
515 2 2 1 1 122 777 853
516 2 2 1 1 778 123 854
517 2 2 1 1 378 127 438
518 2 2 1 1 246 447 719
519 2 2 1 1 448 247 720
520 2 2 1 1 793 419 842
521 2 2 1 1 420 794 843
522 2 2 1 1 42 43 507
523 2 2 1 1 359 276 766
524 2 2 1 1 277 360 767
525 2 2 1 1 193 346 590
526 2 2 1 1 347 194 591
527 2 2 1 1 349 256 671
528 2 2 1 1 257 350 670
529 2 2 1 1 535 297 809
530 2 2 1 1 338 588 793
531 2 2 1 1 589 339 794
532 2 2 1 1 173 355 627
533 2 2 1 1 348 234 571
534 2 2 1 1 306 391 505
535 2 2 1 1 392 307 506
536 2 2 1 1 224 641 735
537 2 2 1 1 14 391 855
538 2 2 1 1 392 64 856
539 2 2 1 1 125 457 542
540 2 2 1 1 458 126 543
541 2 2 1 1 195 361 827
542 2 2 1 1 362 196 828
543 2 2 1 1 228 346 725
544 2 2 1 1 347 229 726
545 2 2 1 1 443 228 463
546 2 2 1 1 229 444 464
547 2 2 1 1 195 443 463
548 2 2 1 1 444 196 464
549 2 2 1 1 363 318 819
550 2 2 1 1 319 364 820
551 2 2 1 1 206 340 625
552 2 2 1 1 340 207 626
553 2 2 1 1 33 348 571
554 2 2 1 1 195 463 647
555 2 2 1 1 464 196 648
556 2 2 1 1 365 217 601
557 2 2 1 1 218 366 602
558 2 2 1 1 369 174 806
559 2 2 1 1 180 353 755
560 2 2 1 1 383 200 678
561 2 2 1 1 201 384 679
562 2 2 1 1 354 169 642
563 2 2 1 1 371 220 468
564 2 2 1 1 178 419 793
565 2 2 1 1 420 179 794
566 2 2 1 1 130 359 520
567 2 2 1 1 360 131 521
568 2 2 1 1 216 356 758
569 2 2 1 1 71 72 864
570 2 2 1 1 103 104 863
571 2 2 1 1 381 132 465
572 2 2 1 1 133 382 466
573 2 2 1 1 367 250 715
574 2 2 1 1 251 368 716
575 2 2 1 1 28 29 769
576 2 2 1 1 49 50 770
577 2 2 1 1 220 354 642
578 2 2 1 1 357 204 656
579 2 2 1 1 205 358 657
580 2 2 1 1 250 367 666
581 2 2 1 1 368 251 667
582 2 2 1 1 476 71 864
583 2 2 1 1 104 477 863
584 2 2 1 1 222 389 798
585 2 2 1 1 390 221 799
586 2 2 1 1 356 36 758
587 2 2 1 1 185 436 810
588 2 2 1 1 437 186 811
589 2 2 1 1 138 605 745
590 2 2 1 1 606 139 746
591 2 2 1 1 391 306 855
592 2 2 1 1 307 392 856
593 2 2 1 1 236 413 801
594 2 2 1 1 414 237 802
595 2 2 1 1 232 406 421
596 2 2 1 1 407 233 422
597 2 2 1 1 599 239 728
598 2 2 1 1 240 600 729
599 2 2 1 1 355 173 781
600 2 2 1 1 206 592 713
601 2 2 1 1 593 207 714
602 2 2 1 1 441 208 556
603 2 2 1 1 209 442 555
604 2 2 1 1 384 299 751
605 2 2 1 1 436 672 810
606 2 2 1 1 673 437 811
607 2 2 1 1 122 365 795
608 2 2 1 1 366 123 796
609 2 2 1 1 128 367 592
610 2 2 1 1 368 129 593
611 2 2 1 1 60 61 439
612 2 2 1 1 17 18 440
613 2 2 1 1 217 365 703
614 2 2 1 1 366 218 704
615 2 2 1 1 340 206 786
616 2 2 1 1 207 340 787
617 2 2 1 1 373 111 508
618 2 2 1 1 112 374 509
619 2 2 1 1 346 518 725
620 2 2 1 1 519 347 726
621 2 2 1 1 409 157 834
622 2 2 1 1 158 410 835
623 2 2 1 1 278 373 508
624 2 2 1 1 374 279 509
625 2 2 1 1 297 397 597
626 2 2 1 1 603 326 658
627 2 2 1 1 327 604 659
628 2 2 1 1 135 539 672
629 2 2 1 1 538 134 673
630 2 2 1 1 130 406 536
631 2 2 1 1 407 131 537
632 2 2 1 1 286 755 790
633 2 2 1 1 672 539 741
634 2 2 1 1 538 673 742
635 2 2 1 1 338 599 728
636 2 2 1 1 600 339 729
637 2 2 1 1 210 450 558
638 2 2 1 1 449 211 559
639 2 2 1 1 393 187 459
640 2 2 1 1 188 394 460
641 2 2 1 1 370 175 768
642 2 2 1 1 471 287 518
643 2 2 1 1 288 472 519
644 2 2 1 1 341 206 625
645 2 2 1 1 207 342 626
646 2 2 1 1 540 136 648
647 2 2 1 1 137 541 647
648 2 2 1 1 647 541 765
649 2 2 1 1 540 648 764
650 2 2 1 1 181 411 432
651 2 2 1 1 412 182 433
652 2 2 1 1 406 232 536
653 2 2 1 1 233 407 537
654 2 2 1 1 486 217 612
655 2 2 1 1 387 375 739
656 2 2 1 1 376 388 740
657 2 2 1 1 218 491 613
658 2 2 1 1 387 284 749
659 2 2 1 1 285 388 750
660 2 2 1 1 372 40 579
661 2 2 1 1 375 128 603
662 2 2 1 1 129 376 604
663 2 2 1 1 204 363 656
664 2 2 1 1 364 205 657
665 2 2 1 1 635 152 684
666 2 2 1 1 42 354 831
667 2 2 1 1 445 167 630
668 2 2 1 1 168 446 631
669 2 2 1 1 413 522 801
670 2 2 1 1 523 414 802
671 2 2 1 1 28 361 677
672 2 2 1 1 362 50 676
673 2 2 1 1 199 405 530
674 2 2 1 1 160 384 751
675 2 2 1 1 592 367 713
676 2 2 1 1 368 593 714
677 2 2 1 1 206 341 592
678 2 2 1 1 342 207 593
679 2 2 1 1 132 381 557
680 2 2 1 1 504 356 754
681 2 2 1 1 555 442 850
682 2 2 1 1 441 556 849
683 2 2 1 1 480 282 733
684 2 2 1 1 283 481 734
685 2 2 1 1 395 16 688
686 2 2 1 1 62 396 687
687 2 2 1 1 389 125 495
688 2 2 1 1 126 390 496
689 2 2 1 1 171 367 715
690 2 2 1 1 368 172 716
691 2 2 1 1 133 352 730
692 2 2 1 1 147 443 637
693 2 2 1 1 444 148 638
694 2 2 1 1 389 495 798
695 2 2 1 1 496 390 799
696 2 2 1 1 174 372 759
697 2 2 1 1 409 176 451
698 2 2 1 1 177 410 452
699 2 2 1 1 127 378 494
700 2 2 1 1 418 176 564
701 2 2 1 1 177 417 565
702 2 2 1 1 284 387 840
703 2 2 1 1 388 285 841
704 2 2 1 1 217 572 612
705 2 2 1 1 550 124 697
706 2 2 1 1 546 191 622
707 2 2 1 1 192 547 623
708 2 2 1 1 558 450 862
709 2 2 1 1 449 559 861
710 2 2 1 1 573 218 613
711 2 2 1 1 351 132 655
712 2 2 1 1 500 196 676
713 2 2 1 1 195 499 677
714 2 2 1 1 473 262 584
715 2 2 1 1 438 219 501
716 2 2 1 1 447 143 719
717 2 2 1 1 144 448 720
718 2 2 1 1 391 197 505
719 2 2 1 1 198 392 506
720 2 2 1 1 226 474 788
721 2 2 1 1 475 227 789
722 2 2 1 1 421 120 628
723 2 2 1 1 121 422 629
724 2 2 1 1 169 473 584
725 2 2 1 1 367 128 666
726 2 2 1 1 129 368 667
727 2 2 1 1 487 231 569
728 2 2 1 1 230 488 570
729 2 2 1 1 286 494 755
730 2 2 1 1 197 391 653
731 2 2 1 1 392 198 654
732 2 2 1 1 398 189 474
733 2 2 1 1 190 399 475
734 2 2 1 1 73 74 455
735 2 2 1 1 101 102 456
736 2 2 1 1 258 487 569
737 2 2 1 1 488 259 570
738 2 2 1 1 220 372 579
739 2 2 1 1 542 202 723
740 2 2 1 1 203 543 724
741 2 2 1 1 337 550 697
742 2 2 1 1 263 467 696
743 2 2 1 1 80 81 534
744 2 2 1 1 94 95 533
745 2 2 1 1 417 177 616
746 2 2 1 1 176 418 617
747 2 2 1 1 473 260 684
748 2 2 1 1 219 404 568
749 2 2 1 1 395 197 653
750 2 2 1 1 198 396 654
751 2 2 1 1 372 220 759
752 2 2 1 1 450 210 838
753 2 2 1 1 211 449 839
754 2 2 1 1 280 445 630
755 2 2 1 1 446 281 631
756 2 2 1 1 151 634 696
757 2 2 1 1 379 270 548
758 2 2 1 1 271 380 549
759 2 2 1 1 357 93 792
760 2 2 1 1 82 358 791
761 2 2 1 1 128 375 666
762 2 2 1 1 376 129 667
763 2 2 1 1 252 417 616
764 2 2 1 1 418 253 617
765 2 2 1 1 228 497 562
766 2 2 1 1 498 229 563
767 2 2 1 1 256 498 563
768 2 2 1 1 497 257 562
769 2 2 1 1 723 202 747
770 2 2 1 1 203 724 748
771 2 2 1 1 153 527 737
772 2 2 1 1 528 154 736
773 2 2 1 1 379 284 840
774 2 2 1 1 285 380 841
775 2 2 1 1 205 534 791
776 2 2 1 1 533 204 792
777 2 2 1 1 220 579 831
778 2 2 1 1 637 443 827
779 2 2 1 1 444 638 828
780 2 2 1 1 377 225 655
781 2 2 1 1 379 130 520
782 2 2 1 1 131 380 521
783 2 2 1 1 385 200 847
784 2 2 1 1 201 386 848
785 2 2 1 1 373 278 760
786 2 2 1 1 279 374 761
787 2 2 1 1 16 17 688
788 2 2 1 1 61 62 687
789 2 2 1 1 354 507 738
790 2 2 1 1 293 502 637
791 2 2 1 1 503 294 638
792 2 2 1 1 151 572 634
793 2 2 1 1 573 152 635
794 2 2 1 1 502 147 637
795 2 2 1 1 148 503 638
796 2 2 1 1 220 371 759
797 2 2 1 1 572 312 634
798 2 2 1 1 313 573 635
799 2 2 1 1 404 112 568
800 2 2 1 1 367 171 713
801 2 2 1 1 172 368 714
802 2 2 1 1 210 513 838
803 2 2 1 1 512 211 839
804 2 2 1 1 175 438 501
805 2 2 1 1 306 483 855
806 2 2 1 1 482 307 856
807 2 2 1 1 248 603 658
808 2 2 1 1 604 249 659
809 2 2 1 1 308 484 857
810 2 2 1 1 485 309 858
811 2 2 1 1 405 173 530
812 2 2 1 1 202 413 747
813 2 2 1 1 414 203 748
814 2 2 1 1 65 66 482
815 2 2 1 1 12 13 483
816 2 2 1 1 396 62 654
817 2 2 1 1 16 395 653
818 2 2 1 1 381 223 557
819 2 2 1 1 58 59 484
820 2 2 1 1 19 20 485
821 2 2 1 1 453 318 469
822 2 2 1 1 319 454 470
823 2 2 1 1 371 643 759
824 2 2 1 1 225 377 627
825 2 2 1 1 643 174 759
826 2 2 1 1 92 445 686
827 2 2 1 1 446 83 685
828 2 2 1 1 156 514 722
829 2 2 1 1 515 155 721
830 2 2 1 1 90 8 661
831 2 2 1 1 5 85 660
832 2 2 1 1 8 91 661
833 2 2 1 1 84 5 660
834 2 2 1 1 142 625 626
835 2 2 1 1 208 441 826
836 2 2 1 1 442 209 825
837 2 2 1 1 518 287 842
838 2 2 1 1 288 519 843
839 2 2 1 1 217 373 601
840 2 2 1 1 374 218 602
841 2 2 1 1 483 212 581
842 2 2 1 1 213 482 580
843 2 2 1 1 408 175 501
844 2 2 1 1 66 67 580
845 2 2 1 1 11 12 581
846 2 2 1 1 183 453 469
847 2 2 1 1 454 184 470
848 2 2 1 1 57 58 583
849 2 2 1 1 20 21 582
850 2 2 1 1 484 214 583
851 2 2 1 1 215 485 582
852 2 2 1 1 248 375 603
853 2 2 1 1 376 249 604
854 2 2 1 1 413 202 522
855 2 2 1 1 203 414 523
856 2 2 1 1 132 377 655
857 2 2 1 1 223 381 566
858 2 2 1 1 382 224 567
859 2 2 1 1 326 546 622
860 2 2 1 1 547 327 623
861 2 2 1 1 270 379 698
862 2 2 1 1 380 271 699
863 2 2 1 1 476 208 826
864 2 2 1 1 209 477 825
865 2 2 1 1 108 598 800
866 2 2 1 1 520 189 821
867 2 2 1 1 190 521 822
868 2 2 1 1 316 432 837
869 2 2 1 1 433 317 836
870 2 2 1 1 163 387 739
871 2 2 1 1 388 164 740
872 2 2 1 1 486 261 594
873 2 2 1 1 130 379 548
874 2 2 1 1 380 131 549
875 2 2 1 1 516 256 563
876 2 2 1 1 257 517 562
877 2 2 1 1 300 402 551
878 2 2 1 1 403 301 552
879 2 2 1 1 136 516 563
880 2 2 1 1 517 137 562
881 2 2 1 1 269 557 575
882 2 2 1 1 102 103 607
883 2 2 1 1 72 73 608
884 2 2 1 1 75 76 511
885 2 2 1 1 99 100 510
886 2 2 1 1 262 404 584
887 2 2 1 1 402 140 551
888 2 2 1 1 141 403 552
889 2 2 1 1 145 433 836
890 2 2 1 1 432 146 837
891 2 2 1 1 134 525 569
892 2 2 1 1 526 135 570
893 2 2 1 1 525 258 569
894 2 2 1 1 259 526 570
895 2 2 1 1 40 41 579
896 2 2 1 1 111 486 594
897 2 2 1 1 382 133 641
898 2 2 1 1 297 597 809
899 2 2 1 1 557 223 575
900 2 2 1 1 484 308 722
901 2 2 1 1 309 485 721
902 2 2 1 1 36 37 758
903 2 2 1 1 397 160 597
904 2 2 1 1 566 138 745
905 2 2 1 1 139 567 746
906 2 2 1 1 598 370 768
907 2 2 1 1 224 382 641
908 2 2 1 1 95 96 675
909 2 2 1 1 79 80 674
910 2 2 1 1 483 306 737
911 2 2 1 1 307 482 736
912 2 2 1 1 377 173 627
913 2 2 1 1 375 250 666
914 2 2 1 1 251 376 667
915 2 2 1 1 560 242 664
916 2 2 1 1 243 561 665
917 2 2 1 1 418 98 683
918 2 2 1 1 77 417 682
919 2 2 1 1 439 221 553
920 2 2 1 1 222 440 554
921 2 2 1 1 308 439 553
922 2 2 1 1 440 309 554
923 2 2 1 1 453 118 819
924 2 2 1 1 119 454 820
925 2 2 1 1 406 130 548
926 2 2 1 1 131 407 549
927 2 2 1 1 160 397 644
928 2 2 1 1 455 74 694
929 2 2 1 1 101 456 695
930 2 2 1 1 436 230 570
931 2 2 1 1 231 437 569
932 2 2 1 1 396 221 687
933 2 2 1 1 222 395 688
934 2 2 1 1 62 63 654
935 2 2 1 1 15 16 653
936 2 2 1 1 614 242 773
937 2 2 1 1 243 615 774
938 2 2 1 1 37 38 524
939 2 2 1 1 135 436 570
940 2 2 1 1 437 134 569
941 2 2 1 1 287 793 842
942 2 2 1 1 794 288 843
943 2 2 1 1 51 52 846
944 2 2 1 1 26 27 845
945 2 2 1 1 405 199 697
946 2 2 1 1 193 471 518
947 2 2 1 1 472 194 519
948 2 2 1 1 156 553 650
949 2 2 1 1 554 155 649
950 2 2 1 1 518 116 725
951 2 2 1 1 117 519 726
952 2 2 1 1 605 278 745
953 2 2 1 1 279 606 746
954 2 2 1 1 383 171 847
955 2 2 1 1 172 384 848
956 2 2 1 1 197 395 798
957 2 2 1 1 396 198 799
958 2 2 1 1 98 99 683
959 2 2 1 1 76 77 682
960 2 2 1 1 377 132 812
961 2 2 1 1 198 506 708
962 2 2 1 1 505 197 707
963 2 2 1 1 387 163 840
964 2 2 1 1 164 388 841
965 2 2 1 1 258 525 527
966 2 2 1 1 526 259 528
967 2 2 1 1 525 212 527
968 2 2 1 1 213 526 528
969 2 2 1 1 109 385 775
970 2 2 1 1 386 110 776
971 2 2 1 1 625 340 626
972 2 2 1 1 390 265 650
973 2 2 1 1 264 389 649
974 2 2 1 1 232 531 536
975 2 2 1 1 532 233 537
976 2 2 1 1 749 109 775
977 2 2 1 1 110 750 776
978 2 2 1 1 338 793 815
979 2 2 1 1 794 339 816
980 2 2 1 1 318 453 819
981 2 2 1 1 454 319 820
982 2 2 1 1 125 389 817
983 2 2 1 1 390 126 818
984 2 2 1 1 391 15 653
985 2 2 1 1 63 392 654
986 2 2 1 1 65 482 856
987 2 2 1 1 483 13 855
988 2 2 1 1 75 511 694
989 2 2 1 1 510 100 695
990 2 2 1 1 19 485 858
991 2 2 1 1 484 59 857
992 2 2 1 1 275 452 833
993 2 2 1 1 451 274 832
994 2 2 1 1 265 390 818
995 2 2 1 1 389 264 817
996 2 2 1 1 32 33 571
997 2 2 1 1 365 601 711
998 2 2 1 1 602 366 712
999 2 2 1 1 632 254 709
1000 2 2 1 1 255 633 710
1001 2 2 1 1 514 256 516
1002 2 2 1 1 257 515 517
1003 2 2 1 1 214 514 516
1004 2 2 1 1 515 215 517
1005 2 2 1 1 393 234 651
1006 2 2 1 1 235 394 652
1007 2 2 1 1 439 308 857
1008 2 2 1 1 309 440 858
1009 2 2 1 1 60 439 857
1010 2 2 1 1 440 18 858
1011 2 2 1 1 511 289 694
1012 2 2 1 1 290 510 695
1013 2 2 1 1 187 393 651
1014 2 2 1 1 394 188 652
1015 2 2 1 1 531 244 536
1016 2 2 1 1 245 532 537
1017 2 2 1 1 500 51 846
1018 2 2 1 1 27 499 845
1019 2 2 1 1 143 447 560
1020 2 2 1 1 448 144 561
1021 2 2 1 1 355 578 627
1022 2 2 1 1 397 297 800
1023 2 2 1 1 463 228 562
1024 2 2 1 1 229 464 563
1025 2 2 1 1 137 463 562
1026 2 2 1 1 464 136 563
1027 2 2 1 1 45 46 574
1028 2 2 1 1 447 242 560
1029 2 2 1 1 243 448 561
1030 2 2 1 1 232 421 628
1031 2 2 1 1 422 233 629
1032 2 2 1 1 609 298 636
1033 2 2 1 1 508 111 575
1034 2 2 1 1 236 402 771
1035 2 2 1 1 403 237 772
1036 2 2 1 1 397 241 644
1037 2 2 1 1 395 222 798
1038 2 2 1 1 221 396 799
1039 2 2 1 1 535 225 700
1040 2 2 1 1 238 609 636
1041 2 2 1 1 524 216 758
1042 2 2 1 1 206 423 786
1043 2 2 1 1 424 207 787
1044 2 2 1 1 408 133 730
1045 2 2 1 1 599 149 779
1046 2 2 1 1 150 600 780
1047 2 2 1 1 525 134 718
1048 2 2 1 1 135 526 717
1049 2 2 1 1 295 512 845
1050 2 2 1 1 513 296 846
1051 2 2 1 1 550 337 587
1052 2 2 1 1 159 383 678
1053 2 2 1 1 384 160 679
1054 2 2 1 1 425 267 595
1055 2 2 1 1 268 426 596
1056 2 2 1 1 438 127 693
1057 2 2 1 1 516 136 705
1058 2 2 1 1 137 517 706
1059 2 2 1 1 293 637 769
1060 2 2 1 1 638 294 770
1061 2 2 1 1 637 361 769
1062 2 2 1 1 362 638 770
1063 2 2 1 1 576 343 834
1064 2 2 1 1 344 577 835
1065 2 2 1 1 439 61 687
1066 2 2 1 1 17 440 688
1067 2 2 1 1 157 576 834
1068 2 2 1 1 577 158 835
1069 2 2 1 1 27 28 677
1070 2 2 1 1 50 51 676
1071 2 2 1 1 221 439 687
1072 2 2 1 1 440 222 688
1073 2 2 1 1 140 402 801
1074 2 2 1 1 403 141 802
1075 2 2 1 1 539 135 717
1076 2 2 1 1 134 538 718
1077 2 2 1 1 223 508 575
1078 2 2 1 1 261 431 594
1079 2 2 1 1 160 644 679
1080 2 2 1 1 241 408 730
1081 2 2 1 1 282 480 662
1082 2 2 1 1 481 283 663
1083 2 2 1 1 225 578 700
1084 2 2 1 1 402 236 801
1085 2 2 1 1 237 403 802
1086 2 2 1 1 136 540 705
1087 2 2 1 1 541 137 706
1088 2 2 1 1 695 456 808
1089 2 2 1 1 455 694 807
1090 2 2 1 1 375 248 739
1091 2 2 1 1 249 376 740
1092 2 2 1 1 408 241 768
1093 2 2 1 1 461 163 639
1094 2 2 1 1 164 462 640
1095 2 2 1 1 480 161 662
1096 2 2 1 1 162 481 663
1097 2 2 1 1 93 94 792
1098 2 2 1 1 81 82 791
1099 2 2 1 1 41 42 831
1100 2 2 1 1 304 723 747
1101 2 2 1 1 724 305 748
1102 2 2 1 1 244 531 743
1103 2 2 1 1 532 245 744
1104 2 2 1 1 598 108 844
1105 2 2 1 1 482 66 580
1106 2 2 1 1 12 483 581
1107 2 2 1 1 485 20 582
1108 2 2 1 1 58 484 583
1109 2 2 1 1 163 461 698
1110 2 2 1 1 462 164 699
1111 2 2 1 1 214 484 722
1112 2 2 1 1 485 215 721
1113 2 2 1 1 219 438 693
1114 2 2 1 1 636 159 809
1115 2 2 1 1 497 228 725
1116 2 2 1 1 229 498 726
1117 2 2 1 1 106 610 680
1118 2 2 1 1 611 107 681
1119 2 2 1 1 544 244 585
1120 2 2 1 1 245 545 586
1121 2 2 1 1 231 487 691
1122 2 2 1 1 488 230 692
1123 2 2 1 1 415 187 651
1124 2 2 1 1 188 416 652
1125 2 2 1 1 689 266 727
1126 2 2 1 1 266 690 727
1127 2 2 1 1 242 630 664
1128 2 2 1 1 631 243 665
1129 2 2 1 1 456 102 607
1130 2 2 1 1 73 455 608
1131 2 2 1 1 529 269 575
1132 2 2 1 1 572 217 703
1133 2 2 1 1 218 573 704
1134 2 2 1 1 476 272 741
1135 2 2 1 1 273 477 742
1136 2 2 1 1 276 544 632
1137 2 2 1 1 545 277 633
1138 2 2 1 1 149 471 595
1139 2 2 1 1 472 150 596
1140 2 2 1 1 208 476 741
1141 2 2 1 1 477 209 742
1142 2 2 1 1 111 529 575
1143 2 2 1 1 411 120 832
1144 2 2 1 1 121 412 833
1145 2 2 1 1 212 483 737
1146 2 2 1 1 482 213 736
1147 2 2 1 1 328 461 639
1148 2 2 1 1 462 329 640
1149 2 2 1 1 108 578 844
1150 2 2 1 1 118 453 813
1151 2 2 1 1 454 119 814
1152 2 2 1 1 253 510 732
1153 2 2 1 1 511 252 731
1154 2 2 1 1 267 425 795
1155 2 2 1 1 426 268 796
1156 2 2 1 1 417 252 682
1157 2 2 1 1 253 418 683
1158 2 2 1 1 146 752 837
1159 2 2 1 1 753 145 836
1160 2 2 1 1 425 122 795
1161 2 2 1 1 123 426 796
1162 2 2 1 1 161 480 711
1163 2 2 1 1 481 162 712
1164 2 2 1 1 413 114 747
1165 2 2 1 1 115 414 748
1166 2 2 1 1 186 456 811
1167 2 2 1 1 455 185 810
1168 2 2 1 1 106 544 585
1169 2 2 1 1 545 107 586
1170 2 2 1 1 510 290 732
1171 2 2 1 1 289 511 731
1172 2 2 1 1 276 709 766
1173 2 2 1 1 710 277 767
1174 2 2 1 1 601 161 711
1175 2 2 1 1 162 602 712
1176 2 2 1 1 499 27 677
1177 2 2 1 1 51 500 676
1178 2 2 1 1 752 401 837
1179 2 2 1 1 400 753 836
1180 2 2 1 1 644 352 679
1181 2 2 1 1 434 236 771
1182 2 2 1 1 237 435 772
1183 2 2 1 1 585 244 743
1184 2 2 1 1 245 586 744
1185 2 2 1 1 274 411 832
1186 2 2 1 1 412 275 833
1187 2 2 1 1 276 632 709
1188 2 2 1 1 633 277 710
1189 2 2 1 1 112 509 735
1190 2 2 1 1 415 122 853
1191 2 2 1 1 123 416 854
1192 2 2 1 1 468 220 642
1193 2 2 1 1 191 429 622
1194 2 2 1 1 430 192 623
1195 2 2 1 1 495 197 798
1196 2 2 1 1 198 496 799
1197 2 2 1 1 189 398 821
1198 2 2 1 1 399 190 822
1199 2 2 1 1 447 492 773
1200 2 2 1 1 493 448 774
1201 2 2 1 1 423 113 786
1202 2 2 1 1 113 424 787
1203 2 2 1 1 70 71 826
1204 2 2 1 1 104 105 825
1205 2 2 1 1 261 486 612
1206 2 2 1 1 441 70 826
1207 2 2 1 1 105 442 825
1208 2 2 1 1 471 149 815
1209 2 2 1 1 150 472 816
1210 2 2 1 1 423 206 713
1211 2 2 1 1 207 424 714
1212 2 2 1 1 512 295 765
1213 2 2 1 1 296 513 764
1214 2 2 1 1 287 471 815
1215 2 2 1 1 472 288 816
1216 2 2 1 1 29 30 830
1217 2 2 1 1 48 49 829
1218 2 2 1 1 211 512 765
1219 2 2 1 1 513 210 764
1220 2 2 1 1 491 262 613
1221 2 2 1 1 419 178 782
1222 2 2 1 1 179 420 783
1223 2 2 1 1 546 326 603
1224 2 2 1 1 327 547 604
1225 2 2 1 1 480 267 711
1226 2 2 1 1 268 481 712
1227 2 2 1 1 175 408 768
1228 2 2 1 1 419 116 842
1229 2 2 1 1 117 420 843
1230 2 2 1 1 793 287 815
1231 2 2 1 1 288 794 816
1232 2 2 1 1 331 568 735
1233 2 2 1 1 461 270 698
1234 2 2 1 1 271 462 699
1235 2 2 1 1 91 92 686
1236 2 2 1 1 83 84 685
1237 2 2 1 1 436 135 672
1238 2 2 1 1 134 437 673
1239 2 2 1 1 749 284 821
1240 2 2 1 1 285 750 822
1241 2 2 1 1 508 223 745
1242 2 2 1 1 224 509 746
1243 2 2 1 1 684 260 701
1244 2 2 1 1 74 75 694
1245 2 2 1 1 100 101 695
1246 2 2 1 1 445 280 686
1247 2 2 1 1 281 446 685
1248 2 2 1 1 429 191 689
1249 2 2 1 1 192 430 690
1250 2 2 1 1 544 106 632
1251 2 2 1 1 107 545 633
1252 2 2 1 1 463 137 647
1253 2 2 1 1 136 464 648
1254 2 2 1 1 34 35 702
1255 2 2 1 1 345 684 701
1256 2 2 1 1 599 338 815
1257 2 2 1 1 339 600 816
1258 2 2 1 1 165 531 756
1259 2 2 1 1 532 166 757
1260 2 2 1 1 116 518 842
1261 2 2 1 1 519 117 843
1262 2 2 1 1 370 598 844
1263 2 2 1 1 294 460 829
1264 2 2 1 1 459 293 830
1265 2 2 1 1 133 408 803
1266 2 2 1 1 282 662 680
1267 2 2 1 1 663 283 681
1268 2 2 1 1 72 608 864
1269 2 2 1 1 607 103 863
1270 2 2 1 1 429 246 622
1271 2 2 1 1 247 430 623
1272 2 2 1 1 610 282 680
1273 2 2 1 1 283 611 681
1274 2 2 1 1 53 54 838
1275 2 2 1 1 24 25 839
1276 2 2 1 1 278 508 745
1277 2 2 1 1 509 279 746
1278 2 2 1 1 216 550 587
1279 2 2 1 1 214 516 705
1280 2 2 1 1 517 215 706
1281 2 2 1 1 578 355 844
1282 2 2 1 1 212 525 718
1283 2 2 1 1 526 213 717
1284 2 2 1 1 78 79 824
1285 2 2 1 1 96 97 823
1286 2 2 1 1 529 111 594
1287 2 2 1 1 165 434 771
1288 2 2 1 1 435 166 772
1289 2 2 1 1 69 4 859
1290 2 2 1 1 1 9 860
1291 2 2 1 1 128 546 603
1292 2 2 1 1 547 129 604
1293 2 2 1 1 425 193 777
1294 2 2 1 1 194 426 778
1295 2 2 1 1 258 527 645
1296 2 2 1 1 528 259 646
1297 2 2 1 1 242 614 630
1298 2 2 1 1 615 243 631
1299 2 2 1 1 527 153 645
1300 2 2 1 1 154 528 646
1301 2 2 1 1 178 457 782
1302 2 2 1 1 458 179 783
1303 2 2 1 1 489 266 689
1304 2 2 1 1 266 490 690
1305 2 2 1 1 457 264 782
1306 2 2 1 1 265 458 783
1307 2 2 1 1 238 597 751
1308 2 2 1 1 597 238 809
1309 2 2 1 1 449 24 839
1310 2 2 1 1 54 450 838
1311 2 2 1 1 170 467 754
1312 2 2 1 1 494 286 643
1313 2 2 1 1 9 10 850
1314 2 2 1 1 68 69 849
1315 2 2 1 1 254 605 709
1316 2 2 1 1 606 255 710
1317 2 2 1 1 239 551 728
1318 2 2 1 1 552 240 729
1319 2 2 1 1 13 14 855
1320 2 2 1 1 64 65 856
1321 2 2 1 1 22 23 861
1322 2 2 1 1 55 56 862
1323 2 2 1 1 59 60 857
1324 2 2 1 1 18 19 858
1325 2 2 1 1 70 441 859
1326 2 2 1 1 442 105 860
1327 2 2 1 1 105 1 860
1328 2 2 1 1 4 70 859
1329 2 2 1 1 161 618 662
1330 2 2 1 1 619 162 663
1331 2 2 1 1 431 261 797
1332 2 2 1 1 473 169 738
1333 2 2 1 1 572 151 612
1334 2 2 1 1 441 69 859
1335 2 2 1 1 9 442 860
1336 2 2 1 1 504 263 702
1337 2 2 1 1 443 195 827
1338 2 2 1 1 196 444 828
1339 2 2 1 1 568 112 735
1340 2 2 1 1 152 573 613
1341 2 2 1 1 614 280 630
1342 2 2 1 1 281 615 631
1343 2 2 1 1 442 9 850
1344 2 2 1 1 69 441 849
1345 2 2 1 1 777 310 853
1346 2 2 1 1 311 778 854
1347 2 2 1 1 467 263 754
1348 2 2 1 1 261 467 797
1349 2 2 1 1 289 753 807
1350 2 2 1 1 752 290 808
1351 2 2 1 1 487 114 691
1352 2 2 1 1 115 488 692
1353 2 2 1 1 120 451 832
1354 2 2 1 1 452 121 833
1355 2 2 1 1 30 459 830
1356 2 2 1 1 460 48 829
1357 2 2 1 1 620 145 731
1358 2 2 1 1 146 621 732
1359 2 2 1 1 260 473 738
1360 2 2 1 1 274 617 621
1361 2 2 1 1 616 275 620
1362 2 2 1 1 185 455 807
1363 2 2 1 1 456 186 808
1364 2 2 1 1 622 246 719
1365 2 2 1 1 247 623 720
1366 2 2 1 1 450 55 862
1367 2 2 1 1 23 449 861
1368 2 2 1 1 264 457 817
1369 2 2 1 1 458 265 818
1370 2 2 1 1 408 501 803
1371 2 2 1 1 467 170 797
1372 2 2 1 1 146 732 752
1373 2 2 1 1 731 145 753
1374 2 2 1 1 457 125 817
1375 2 2 1 1 126 458 818
1376 2 2 1 1 365 711 795
1377 2 2 1 1 712 366 796
1378 2 2 1 1 35 504 702
1379 2 2 1 1 300 585 743
1380 2 2 1 1 586 301 744
1381 2 2 1 1 617 253 621
1382 2 2 1 1 252 616 620
1383 2 2 1 1 711 267 795
1384 2 2 1 1 268 712 796
1385 2 2 1 1 252 511 682
1386 2 2 1 1 510 253 683
1387 2 2 1 1 197 495 707
1388 2 2 1 1 496 198 708
1389 2 2 1 1 267 480 733
1390 2 2 1 1 481 268 734
1391 2 2 1 1 326 622 719
1392 2 2 1 1 623 327 720
1393 2 2 1 1 191 489 689
1394 2 2 1 1 490 192 690
1395 2 2 1 1 256 514 671
1396 2 2 1 1 515 257 670
1397 2 2 1 1 514 156 671
1398 2 2 1 1 155 515 670
1399 2 2 1 1 511 76 682
1400 2 2 1 1 99 510 683
1401 2 2 1 1 578 225 627
1402 2 2 1 1 116 497 725
1403 2 2 1 1 498 117 726
1404 2 2 1 1 509 224 735
1405 2 2 1 1 143 560 668
1406 2 2 1 1 561 144 669
1407 2 2 1 1 171 715 847
1408 2 2 1 1 716 172 848
1409 2 2 1 1 522 140 801
1410 2 2 1 1 141 523 802
1411 2 2 1 1 507 260 738
1412 2 2 1 1 278 605 618
1413 2 2 1 1 606 279 619
1414 2 2 1 1 71 476 826
1415 2 2 1 1 477 104 825
1416 2 2 1 1 474 189 766
1417 2 2 1 1 190 475 767
1418 2 2 1 1 263 504 754
1419 2 2 1 1 272 476 864
1420 2 2 1 1 477 273 863
1421 2 2 1 1 474 138 788
1422 2 2 1 1 139 475 789
1423 2 2 1 1 456 607 811
1424 2 2 1 1 608 455 810
1425 2 2 1 1 605 254 618
1426 2 2 1 1 255 606 619
1427 2 2 1 1 501 331 803
1428 2 2 1 1 297 535 700
1429 2 2 1 1 215 515 721
1430 2 2 1 1 514 214 722
1431 2 2 1 1 632 106 680
1432 2 2 1 1 107 633 681
1433 2 2 1 1 551 140 728
1434 2 2 1 1 141 552 729
1435 2 2 1 1 672 272 810
1436 2 2 1 1 273 673 811
1437 2 2 1 1 578 108 700
1438 2 2 1 1 213 528 736
1439 2 2 1 1 527 212 737
1440 2 2 1 1 343 675 834
1441 2 2 1 1 674 344 835
1442 2 2 1 1 352 644 730
1443 2 2 1 1 630 167 664
1444 2 2 1 1 168 631 665
1445 2 2 1 1 675 302 834
1446 2 2 1 1 303 674 835
1447 2 2 1 1 644 241 730
1448 2 2 1 1 715 385 847
1449 2 2 1 1 386 716 848
1450 2 2 1 1 540 322 705
1451 2 2 1 1 323 541 706
1452 2 2 1 1 270 461 813
1453 2 2 1 1 462 271 814
1454 2 2 1 1 499 295 845
1455 2 2 1 1 296 500 846
1456 2 2 1 1 531 232 756
1457 2 2 1 1 233 532 757
1458 2 2 1 1 538 320 718
1459 2 2 1 1 321 539 717
1460 2 2 1 1 658 326 719
1461 2 2 1 1 327 659 720
1462 2 2 1 1 531 165 743
1463 2 2 1 1 166 532 744
1464 2 2 1 1 539 208 741
1465 2 2 1 1 209 538 742
1466 2 2 1 1 37 524 758
1467 2 2 1 1 662 254 680
1468 2 2 1 1 255 663 681
1469 2 2 1 1 140 588 728
1470 2 2 1 1 589 141 729
1471 2 2 1 1 312 572 703
1472 2 2 1 1 573 313 704
1473 2 2 1 1 291 560 664
1474 2 2 1 1 561 292 665
1475 2 2 1 1 25 512 839
1476 2 2 1 1 513 53 838
1477 2 2 1 1 618 254 662
1478 2 2 1 1 255 619 663
1479 2 2 1 1 210 540 764
1480 2 2 1 1 541 211 765
1481 2 2 1 1 639 163 739
1482 2 2 1 1 164 640 740
1483 2 2 1 1 557 269 812
1484 2 2 1 1 223 566 745
1485 2 2 1 1 567 224 746
1486 2 2 1 1 601 373 760
1487 2 2 1 1 374 602 761
1488 2 2 1 1 132 557 812
1489 2 2 1 1 161 601 760
1490 2 2 1 1 602 162 761
1491 2 2 1 1 174 643 806
1492 2 2 1 1 290 695 808
1493 2 2 1 1 694 289 807
1494 2 2 1 1 565 78 824
1495 2 2 1 1 97 564 823
1496 2 2 1 1 143 658 719
1497 2 2 1 1 659 144 720
1498 2 2 1 1 272 672 741
1499 2 2 1 1 673 273 742
1500 2 2 1 1 588 338 728
1501 2 2 1 1 339 589 729
1502 2 2 1 1 94 533 792
1503 2 2 1 1 534 81 791
1504 2 2 1 1 138 566 788
1505 2 2 1 1 567 139 789
1506 2 2 1 1 698 379 840
1507 2 2 1 1 380 699 841
1508 2 2 1 1 605 138 709
1509 2 2 1 1 139 606 710
1510 2 2 1 1 254 632 680
1511 2 2 1 1 633 255 681
1512 2 2 1 1 590 310 777
1513 2 2 1 1 311 591 778
1514 2 2 1 1 193 590 777
1515 2 2 1 1 591 194 778
1516 2 2 1 1 248 639 739
1517 2 2 1 1 640 249 740
1518 2 2 1 1 295 647 765
1519 2 2 1 1 648 296 764
1520 2 2 1 1 304 645 762
1521 2 2 1 1 646 305 763
1522 2 2 1 1 645 153 762
1523 2 2 1 1 154 646 763
1524 2 2 1 1 149 595 733
1525 2 2 1 1 596 150 734
1526 2 2 1 1 595 267 733
1527 2 2 1 1 268 596 734
1528 2 2 1 1 560 291 668
1529 2 2 1 1 292 561 669
1530 2 2 1 1 564 302 823
1531 2 2 1 1 303 565 824
1532 2 2 1 1 232 628 756
1533 2 2 1 1 629 233 757
1534 2 2 1 1 660 281 685
1535 2 2 1 1 280 661 686
1536 2 2 1 1 641 133 803
1537 2 2 1 1 597 160 751
1538 2 2 1 1 628 335 756
1539 2 2 1 1 336 629 757
1540 2 2 1 1 656 363 804
1541 2 2 1 1 364 657 805
1542 2 2 1 1 278 618 760
1543 2 2 1 1 619 279 761
1544 2 2 1 1 252 620 731
1545 2 2 1 1 621 253 732
1546 2 2 1 1 10 555 850
1547 2 2 1 1 556 68 849
1548 2 2 1 1 167 656 804
1549 2 2 1 1 657 168 805
1550 2 2 1 1 700 108 800
1551 2 2 1 1 56 558 862
1552 2 2 1 1 559 22 861
1553 2 2 1 1 289 731 753
1554 2 2 1 1 732 290 752
1555 2 2 1 1 241 598 768
1556 2 2 1 1 661 91 686
1557 2 2 1 1 84 660 685
1558 2 2 1 1 769 29 830
1559 2 2 1 1 49 770 829
1560 2 2 1 1 282 610 779
1561 2 2 1 1 611 283 780
1562 2 2 1 1 650 265 852
1563 2 2 1 1 264 649 851
1564 2 2 1 1 340 786 787
1565 2 2 1 1 618 161 760
1566 2 2 1 1 162 619 761
1567 2 2 1 1 786 113 787
1568 2 2 1 1 239 599 779
1569 2 2 1 1 600 240 780
1570 2 2 1 1 610 239 779
1571 2 2 1 1 240 611 780
1572 2 2 1 1 6 7 727
1573 2 2 1 1 643 286 806
1574 2 2 1 1 297 700 800
1575 2 2 1 1 331 641 803
1576 2 2 1 1 579 41 831
1577 2 2 1 1 492 88 773
1578 2 2 1 1 87 493 774
1579 2 2 1 1 149 599 815
1580 2 2 1 1 600 150 816
1581 2 2 1 1 715 250 775
1582 2 2 1 1 251 716 776
1583 2 2 1 1 272 608 810
1584 2 2 1 1 607 273 811
1585 2 2 1 1 723 304 762
1586 2 2 1 1 305 724 763
1587 2 2 1 1 314 723 762
1588 2 2 1 1 724 315 763
1589 2 2 1 1 649 155 851
1590 2 2 1 1 156 650 852
1591 2 2 1 1 242 447 773
1592 2 2 1 1 448 243 774
1593 2 2 1 1 291 664 804
1594 2 2 1 1 665 292 805
1595 2 2 1 1 273 607 863
1596 2 2 1 1 608 272 864
1597 2 2 1 1 238 636 809
1598 2 2 1 1 155 670 851
1599 2 2 1 1 671 156 852
1600 2 2 1 1 361 637 827
1601 2 2 1 1 638 362 828
1602 2 2 1 1 385 715 775
1603 2 2 1 1 716 386 776
1604 2 2 1 1 302 675 823
1605 2 2 1 1 674 303 824
1606 2 2 1 1 675 96 823
1607 2 2 1 1 79 674 824
1608 2 2 1 1 664 167 804
1609 2 2 1 1 168 665 805
1610 2 2 1 1 163 698 840
1611 2 2 1 1 699 164 841
1612 2 2 1 1 328 668 784
1613 2 2 1 1 669 329 785
1614 2 2 1 1 670 350 851
1615 2 2 1 1 349 671 852
1616 2 2 1 1 668 291 784
1617 2 2 1 1 292 669 785
1618 2 2 1 1 286 790 806
1619 2 2 1 1 770 294 829
1620 2 2 1 1 293 769 830
1621 2 2 1 1 790 369 806
$EndElements
