$MeshFormat
2.2 0 8
$EndMeshFormat
$PhysicalNames
15
0 8 "c001"
0 9 "c000"
0 10 "c011"
0 11 "c010"
0 12 "c101"
0 13 "c100"
0 14 "c111"
0 15 "c110"
2 2 "xmin"
2 3 "xmax"
2 4 "ymin"
2 5 "ymax"
2 6 "bottom"
2 7 "top"
3 1 "solid"
$EndPhysicalNames
$Nodes
477
1 0 0 0.04
2 0 0 0
3 0 0.02 0.04
4 0 0.02 0
5 0.02 0 0.04
6 0.02 0 0
7 0.02 0.02 0.04
8 0.02 0.02 0
9 0 0 0.003999999999999997
10 0 0 0.007999999999999997
11 0 0 0.012
12 0 0 0.016
13 0 0 0.02
14 0 0 0.024
15 0 0 0.028
16 0 0 0.032
17 0 0 0.036
18 0 0.003999999999999998 0.04
19 0 0.007999999999999998 0.04
20 0 0.012 0.04
21 0 0.016 0.04
22 0 0.02 0.003999999999999997
23 0 0.02 0.007999999999999997
24 0 0.02 0.012
25 0 0.02 0.016
26 0 0.02 0.02
27 0 0.02 0.024
28 0 0.02 0.028
29 0 0.02 0.032
30 0 0.02 0.036
31 0 0.003999999999999998 0
32 0 0.007999999999999998 0
33 0 0.012 0
34 0 0.016 0
35 0.02 0 0.003999999999999997
36 0.02 0 0.007999999999999997
37 0.02 0 0.012
38 0.02 0 0.016
39 0.02 0 0.02
40 0.02 0 0.024
41 0.02 0 0.028
42 0.02 0 0.032
43 0.02 0 0.036
44 0.02 0.003999999999999998 0.04
45 0.02 0.007999999999999998 0.04
46 0.02 0.012 0.04
47 0.02 0.016 0.04
48 0.02 0.02 0.003999999999999997
49 0.02 0.02 0.007999999999999997
50 0.02 0.02 0.012
51 0.02 0.02 0.016
52 0.02 0.02 0.02
53 0.02 0.02 0.024
54 0.02 0.02 0.028
55 0.02 0.02 0.032
56 0.02 0.02 0.036
57 0.02 0.003999999999999998 0
58 0.02 0.007999999999999998 0
59 0.02 0.012 0
60 0.02 0.016 0
61 0.003999999999999998 0 0
62 0.007999999999999998 0 0
63 0.012 0 0
64 0.016 0 0
65 0.003999999999999998 0 0.04
66 0.007999999999999998 0 0.04
67 0.012 0 0.04
68 0.016 0 0.04
69 0.003999999999999998 0.02 0
70 0.007999999999999998 0.02 0
71 0.012 0.02 0
72 0.016 0.02 0
73 0.003999999999999998 0.02 0.04
74 0.007999999999999998 0.02 0.04
75 0.012 0.02 0.04
76 0.016 0.02 0.04
77 0 0.009942719553642071 0.01034550315603934
78 0 0.01002552731886892 0.02168611185520586
79 0 0.01 0.03093122158869133
80 0 0.01313779365696191 0.01609839474022836
81 0 0.006405119642633432 0.01589962737255353
82 0 0.005933333333333333 0.02655555555555556
83 0 0.01406666666666667 0.02655555555555556
84 0 0.006035213542562317 0.00545495522455196
85 0 0.01382028057835704 0.005689660178297667
86 0 0.01486512011898391 0.03447108081675693
87 0 0.005134879881016095 0.03447108081675691
88 0 0.004893175128771154 0.02153412435614423
89 0 0.01510682487122885 0.02153412435614423
90 0 0.005242649404134065 0.01158043170683119
91 0 0.01521745069581106 0.01121729090769541
92 0 0.01 0.03699113797641036
93 0 0.009765942850259741 0.004043760038580947
94 0 0.004014406459606903 0.03056313401059423
95 0 0.0159855935403931 0.03056313401059424
96 0 0.01000319091485861 0.02652036624595279
97 0 0.009625525929657252 0.01412650485743098
98 0 0.0165665073306272 0.01843367618120502
99 0 0.009891188410222497 0.01772815489360471
100 0 0.003389759684949722 0.01845708166585932
101 0 0.01660462112188419 0.01437246622698896
102 0 0.003007505746343444 0.0147874281490488
103 0 0.003322862306898816 0.008086083126592591
104 0 0.01671902811810281 0.00804587957761484
105 0 0.003341666666666668 0.003341666666666668
106 0 0.01665833333333333 0.003341666666666671
107 0 0.01613049684798297 0.02420340505629162
108 0 0.00386950315201703 0.02420340505629162
109 0 0.003161491270774222 0.03683850872922578
110 0 0.01683850872922579 0.03683850872922578
111 0 0.007601383450162546 0.007759941049345713
112 0 0.007279291859894035 0.02956965009543274
113 0 0.01272104038863352 0.02956965009543274
114 0 0.01097337157603022 0.007286601960293943
115 0 0.01272604365579166 0.02365940709968084
116 0 0.007273956344208347 0.02365940709968084
117 0 0.01293563855324766 0.01965865852865731
118 0 0.01359817708333333 0.002689843750000003
119 0 0.006228564611897744 0.002568076385959915
120 0 0.007150881161722119 0.01939459782177105
121 0 0.002472419404102239 0.03383663294261492
122 0 0.006163367057385097 0.03752758059589776
123 0 0.01752758059589777 0.03383663294261493
124 0 0.01383663294261492 0.03752758059589779
125 0 0.002763448588991453 0.02666441892448828
126 0 0.01723655141100855 0.02666441892448829
127 0 0.01273993291789026 0.01291373752314852
128 0 0.01178946697287959 0.03344583333333333
129 0 0.008210533027120406 0.03344583333333333
130 0 0.01337862606123628 0.009062455025379074
131 0 0.01782346523812705 0.02184803916684226
132 0 0.002210326312736216 0.021819649659995
133 0.02 0.009942719553642071 0.01034550315603934
134 0.02 0.01002552731886892 0.02168611185520586
135 0.02 0.01 0.03093122158869133
136 0.02 0.01313779365696191 0.01609839474022836
137 0.02 0.006405119642633432 0.01589962737255353
138 0.02 0.005933333333333333 0.02655555555555556
139 0.02 0.01406666666666667 0.02655555555555556
140 0.02 0.006035213542562317 0.00545495522455196
141 0.02 0.01382028057835704 0.005689660178297667
142 0.02 0.01486512011898391 0.03447108081675693
143 0.02 0.005134879881016095 0.03447108081675691
144 0.02 0.004893175128771154 0.02153412435614423
145 0.02 0.01510682487122885 0.02153412435614423
146 0.02 0.005242649404134065 0.01158043170683119
147 0.02 0.01521745069581106 0.01121729090769541
148 0.02 0.01 0.03699113797641036
149 0.02 0.009765942850259741 0.004043760038580947
150 0.02 0.004014406459606903 0.03056313401059423
151 0.02 0.0159855935403931 0.03056313401059424
152 0.02 0.01000319091485861 0.02652036624595279
153 0.02 0.009625525929657252 0.01412650485743098
154 0.02 0.0165665073306272 0.01843367618120502
155 0.02 0.009891188410222497 0.01772815489360471
156 0.02 0.003389759684949722 0.01845708166585932
157 0.02 0.01660462112188419 0.01437246622698896
158 0.02 0.003007505746343444 0.0147874281490488
159 0.02 0.003322862306898816 0.008086083126592591
160 0.02 0.01671902811810281 0.00804587957761484
161 0.02 0.003341666666666668 0.003341666666666668
162 0.02 0.01665833333333333 0.003341666666666671
163 0.02 0.01613049684798297 0.02420340505629162
164 0.02 0.00386950315201703 0.02420340505629162
165 0.02 0.003161491270774222 0.03683850872922578
166 0.02 0.01683850872922579 0.03683850872922578
167 0.02 0.007601383450162546 0.007759941049345713
168 0.02 0.007279291859894035 0.02956965009543274
169 0.02 0.01272104038863352 0.02956965009543274
170 0.02 0.01097337157603022 0.007286601960293943
171 0.02 0.01272604365579166 0.02365940709968084
172 0.02 0.007273956344208347 0.02365940709968084
173 0.02 0.01293563855324766 0.01965865852865731
174 0.02 0.01359817708333333 0.002689843750000003
175 0.02 0.006228564611897744 0.002568076385959915
176 0.02 0.007150881161722119 0.01939459782177105
177 0.02 0.002472419404102239 0.03383663294261492
178 0.02 0.006163367057385097 0.03752758059589776
179 0.02 0.01752758059589777 0.03383663294261493
180 0.02 0.01383663294261492 0.03752758059589779
181 0.02 0.002763448588991453 0.02666441892448828
182 0.02 0.01723655141100855 0.02666441892448829
183 0.02 0.01273993291789026 0.01291373752314852
184 0.02 0.01178946697287959 0.03344583333333333
185 0.02 0.008210533027120406 0.03344583333333333
186 0.02 0.01337862606123628 0.009062455025379074
187 0.02 0.01782346523812705 0.02184803916684226
188 0.02 0.002210326312736216 0.021819649659995
189 0.009919591524367135 0 0.01018379384042652
190 0.01018338177256635 0 0.0299192853596368
191 0.009999999999999992 0 0.02
192 0.01397577343228766 0 0.01494388324670843
193 0.005990565242571985 0 0.01446832461731959
194 0.006234716673624131 0 0.02475617306864348
195 0.0138 0 0.02499999999999998
196 0.005936723147963344 0 0.03459738151860417
197 0.005936723147963332 0 0.005402618481395838
198 0.01425 0 0.03425000000000001
199 0.01425 0 0.005750000000000003
200 0.015 0 0.019856
201 0.00447638181649794 0 0.01997782342291129
202 0.01485761091556833 0 0.02952046915128896
203 0.004474408274518797 0 0.0111538430677597
204 0.01542075892857143 0 0.01044290178571429
205 0.004158542035784418 0 0.02924049593074957
206 0.009830279643500904 0 0.004021827258538557
207 0.009830279643500913 0 0.03597817274146144
208 0.009807036839035792 0 0.01406055323888521
209 0.009810634523516982 0 0.02410620968801835
210 0.003349516759630926 0 0.02295299609028827
211 0.01665048324036908 0 0.02295299609028826
212 0.01727676063007187 0 0.01412998781289022
213 0.002741975965692652 0 0.01412647453101537
214 0.01706161883118748 0 0.02589469304831545
215 0.003391007076943858 0 0.0262239364914106
216 0.003341666666666676 0 0.03665833333333334
217 0.003341666666666668 0 0.003341666666666668
218 0.01665833333333333 0 0.003341666666666669
219 0.01665833333333333 0 0.03665833333333333
220 0.01717529652019429 0 0.01706516844623648
221 0.003012729210499716 0 0.01726315403202836
222 0.01120526315789474 0 0.016972
223 0.01120526315789475 0 0.02697199999999999
224 0.007444555033630229 0 0.02765724150144771
225 0.007446129716127349 0 0.011869952901445
226 0.01244163893718308 0 0.01180644633252878
227 0.007154425232120773 0 0.02180717620498721
228 0.01305222355277721 0 0.02238304115566132
229 0.01129891304347828 0 0.03295108695652173
230 0.01140311302046114 0 0.007772117975431741
231 0.007378057356945847 0 0.01779271878801881
232 0.01684302850415565 0 0.03240440617728668
233 0.00315697149584434 0 0.007595593822713313
234 0.01684302850415565 0 0.007595593822713317
235 0.003156971495844347 0 0.03240440617728669
236 0.007429909453252553 0 0.03182115288367258
237 0.007452459546111855 0 0.008285678192530095
238 0.01374772259536685 0 0.002622698785041046
239 0.006221733891626179 0 0.002553222481320212
240 0.006221733891626186 0 0.03744677751867979
241 0.01374772259536685 0 0.03737730121495896
242 0.01008040847563287 0.02 0.02981620615957348
243 0.009919591524367135 0.02 0.01018379384042652
244 0.009989991495378905 0.02 0.0199679037405696
245 0.006024226567712343 0.02 0.01494388324670843
246 0.01400943475742801 0.02 0.01446832461731959
247 0.006238172268320894 0.02 0.02506019094638521
248 0.0138 0.02 0.025
249 0.005750000000000003 0.02 0.03425
250 0.005936723147963333 0.02 0.005402618481395838
251 0.01425 0.02 0.005750000000000003
252 0.01406327685203667 0.02 0.03459738151860417
253 0.005134302871463978 0.02 0.0196740302154962
254 0.01485403939456082 0.02 0.02012121407860669
255 0.01535253402843735 0.02 0.01043302937330841
256 0.01584182058615192 0.02 0.02924493412938079
257 0.004478415575130749 0.02 0.011210457190306
258 0.004579241071428574 0.02 0.02955709821428572
259 0.01016972035649909 0.02 0.03597817274146145
260 0.009830279643500904 0.02 0.004021827258538557
261 0.009823458343376208 0.02 0.02585129630390218
262 0.01016998931078339 0.02 0.01406055323888521
263 0.003349516759630927 0.02 0.02295299609028829
264 0.01698718999741242 0.02 0.02305898139603355
265 0.01714193548387096 0.02 0.01399999999999999
266 0.002703074270668563 0.02 0.01428349889380856
267 0.003327968704834371 0.02 0.02632480502433133
268 0.01665346901380441 0.02 0.02626875094723074
269 0.003341666666666679 0.02 0.03665833333333333
270 0.003341666666666668 0.02 0.003341666666666668
271 0.01665833333333333 0.02 0.003341666666666669
272 0.01665833333333333 0.02 0.03665833333333333
273 0.002772320741968977 0.02 0.01698028247120264
274 0.01698727078950027 0.02 0.01726315403202837
275 0.008794736842105275 0.02 0.016972
276 0.01120526315789476 0.02 0.023028
277 0.00750708691950578 0.02 0.02227457322935595
278 0.007432648723418339 0.02 0.028028
279 0.01287674309655698 0.02 0.02797866228713034
280 0.01235446416245777 0.02 0.01159798103198143
281 0.007463134995673001 0.02 0.01192681500206999
282 0.01138989876239486 0.02 0.007753551843377896
283 0.008586197154760066 0.02 0.03221380433175609
284 0.01245501794020863 0.02 0.01751917742190502
285 0.003156971495844352 0.02 0.0324044061772867
286 0.003156971495844342 0.02 0.007595593822713318
287 0.01684302850415565 0.02 0.0324044061772867
288 0.01684302850415565 0.02 0.007595593822713318
289 0.01263731357511332 0.02 0.03174765247788471
290 0.007453573592124904 0.02 0.008299236776975444
291 0.006252277404633155 0.02 0.03737730121495896
292 0.01374772259536685 0.02 0.002622698785041046
293 0.006221733891626179 0.02 0.002553222481320213
294 0.01377826610837382 0.02 0.03744677751867979
295 0.009826038307572556 0.0101521164686305 0
296 0.0058980436895255 0.005959007687698119 0
297 0.005957261165335698 0.01386300413751857 0
298 0.01425 0.005750000000000003 0
299 0.01425 0.01425 0
300 0.01022502720032112 0.004104836898462266 0
301 0.01 0.01590217391304348 0
302 0.00364875698385895 0.009934645391496608 0
303 0.01597492713516763 0.0101528836664628 0
304 0.01676108276643991 0.003238917233560092 0
305 0.003341666666666667 0.003341666666666667 0
306 0.003341666666666669 0.01665833333333334 0
307 0.01671075651348975 0.01671075651348975 0
308 0.01211758403810173 0.008406350136650798 0
309 0.008931111456006093 0.007465378612835468 0
310 0.008912046028241164 0.01239535798116466 0
311 0.01384722199335221 0.002618750826404472 0
312 0.01731015625 0.01359817708333333 0
313 0.002577693468010223 0.006247063949172279 0
314 0.002653288798532165 0.01363207631406816 0
315 0.006292947511302657 0.00268110225056541 0
316 0.01359817708333334 0.01731015625 0
317 0.006259785566400472 0.01728470227677908 0
318 0.01739720198032151 0.006228360180004579 0
319 0.01181283783436302 0.01206090950790308 0
320 0.007102349594114217 0.009692058213748633 0
321 0.009826038307572556 0.0101521164686305 0.04
322 0.0058980436895255 0.005959007687698119 0.04
323 0.005957261165335698 0.01386300413751857 0.04
324 0.01425 0.005750000000000003 0.04
325 0.01425 0.01425 0.04
326 0.01022502720032112 0.004104836898462266 0.04
327 0.01 0.01590217391304348 0.04
328 0.00364875698385895 0.009934645391496608 0.04
329 0.01597492713516763 0.0101528836664628 0.04
330 0.01676108276643991 0.003238917233560092 0.04
331 0.003341666666666667 0.003341666666666667 0.04
332 0.003341666666666669 0.01665833333333334 0.04
333 0.01671075651348975 0.01671075651348975 0.04
334 0.01211758403810173 0.008406350136650798 0.04
335 0.008931111456006093 0.007465378612835468 0.04
336 0.008912046028241164 0.01239535798116466 0.04
337 0.01384722199335221 0.002618750826404472 0.04
338 0.01731015625 0.01359817708333333 0.04
339 0.002577693468010223 0.006247063949172279 0.04
340 0.002653288798532165 0.01363207631406816 0.04
341 0.006292947511302657 0.00268110225056541 0.04
342 0.01359817708333334 0.01731015625 0.04
343 0.006259785566400472 0.01728470227677908 0.04
344 0.01739720198032151 0.006228360180004579 0.04
345 0.01181283783436302 0.01206090950790308 0.04
346 0.007102349594114217 0.009692058213748633 0.04
347 0.01000576295761711 0.011317320183858 0.008955149331261261
348 0.01097768855902012 0.009214533898473527 0.03131786620446506
349 0.01014885688350151 0.01044031937016501 0.01933593228381329
350 0.007322519499081844 0.01358116403883353 0.02397761747510158
351 0.007171624028586001 0.003930122810801217 0.01399149610062865
352 0.008983316852889871 0.008224740750159689 0.02521304372758041
353 0.01431135326261699 0.01186911577133168 0.02439497426306895
354 0.01412410104816116 0.01234928386451194 0.01479943600772352
355 0.01417521649683443 0.005749701473443296 0.02079169299059595
356 0.005860988600434305 0.01317932382645492 0.01473879313761436
357 0.01259501197969808 0.007111979171502863 0.006713891459137933
358 0.01448048119188574 0.006672816024406524 0.01520817950682092
359 0.01462754011770335 0.01560805565967016 0.0347805530015896
360 0.01651355409964578 0.01326364632566472 0.007988986330603147
361 0.004719746846154851 0.004191469687754094 0.03466646443105339
362 0.006012457655568985 0.004684321237744191 0.008634903838343727
363 0.008067590347027717 0.01543927821046715 0.03564131832527347
364 0.01490722341918273 0.004625889958637769 0.02811799277008098
365 0.005433760644174957 0.005439138666784069 0.01855255357456873
366 0.01535545604986618 0.004204928295960062 0.03443557739594042
367 0.01580973839911411 0.01420449750264222 0.01991888115173365
368 0.009763784234639476 0.0158334181817895 0.02720056346003422
369 0.008938452651372553 0.009271628064574055 0.00355225938237367
370 0.004365973295675521 0.012037903126435 0.00394298819693962
371 0.004280787407929911 0.01216212575157319 0.03051276444875377
372 0.01017206827547931 0.01447494712001572 0.004913618416154637
373 0.00386393868066928 0.010641125908891 0.02022188402760896
374 0.00896314757167534 0.009768290871739822 0.03654082843853741
375 0.004664057392102192 0.01481020510992415 0.008820147314218988
376 0.01583972906441908 0.01188303935654761 0.02958637382038549
377 0.01018436507962944 0.01620560377079781 0.01651979346296561
378 0.003823036552145987 0.007509731554262858 0.03041969739861738
379 0.009916058541805101 0.0163457141176976 0.01171474436864113
380 0.01117226103538594 0.003606044375864945 0.01757529821346101
381 0.0110623728590978 0.004102582027070817 0.01179878936638575
382 0.01452802193239787 0.009494292535247547 0.01121959071117549
383 0.01002153310528673 0.003704110999970671 0.030116753793955
384 0.01119512472516664 0.01652356983457892 0.02253332807488233
385 0.0167498964375212 0.0162285503779926 0.02372175619413673
386 0.003464942671400501 0.01018992238993799 0.02513423076673225
387 0.003814624994120246 0.009546568677483677 0.01030056736739478
388 0.003146058642025312 0.009820419479354702 0.03660395327621403
389 0.003633771097530025 0.009058850335447604 0.01554755460477273
390 0.01666071395717346 0.009627331531581301 0.01831235102363963
391 0.01532137454663662 0.01621747012494535 0.02780738345883484
392 0.007163006116640282 0.01620408528173669 0.02072418054358712
393 0.003932134247938382 0.004297278270288684 0.02273181796000861
394 0.003189766897793947 0.003180048823635578 0.01443510681033263
395 0.009501107027630969 0.009083538770492415 0.01404516373031782
396 0.01614510934134645 0.009307090745253392 0.03638890139826011
397 0.003353094426666902 0.0081998914282219 0.003766154225974879
398 0.01635126732692201 0.003895114541250915 0.01815379554400088
399 0.01460978967206029 0.01612875470522482 0.00984343722103076
400 0.01495134707436029 0.01629311735338409 0.004509790048224591
401 0.003935260360154155 0.01626834406563593 0.01750723422666972
402 0.005775946143247886 0.01610672916237135 0.004243572379652483
403 0.01083304499124267 0.003464474632302242 0.02514982770207173
404 0.003298969236333286 0.01680900188026683 0.02643144412289763
405 0.003666446020294929 0.01493456575611281 0.03606790924645065
406 0.01030954943196282 0.004072349529431983 0.00375908046933052
407 0.01505938207464705 0.01126243959072147 0.003887440794010933
408 0.01607693395265101 0.01664996983274968 0.01588588056806542
409 0.01726469102419107 0.01290558272300541 0.01232213389535803
410 0.01614260225847722 0.003655623300697247 0.0244037163555235
411 0.003509403474505282 0.01504819407641504 0.02219163365470429
412 0.004532818117926339 0.00406922095661768 0.02740443629122066
413 0.01587210862159356 0.004396923108470657 0.01066008766588537
414 0.0169602015894733 0.009330143320570751 0.007142439132491333
415 0.008643213130391646 0.003415843747572903 0.02156413816033636
416 0.0171059521901565 0.007658870109725409 0.03089737003353168
417 0.01030420385400965 0.01633635611270646 0.03140433685389159
418 0.004404406954333208 0.003931425275680086 0.004598191085543852
419 0.0101794157591547 0.003489616774858673 0.03651320848865192
420 0.01589306664723697 0.005080854026262827 0.004443856746568447
421 0.01688229223714584 0.007358252598495592 0.02405450126369888
422 0.003217642310137357 0.01675912404614677 0.01253519947660177
423 0.003823790927221421 0.01661672856290948 0.03155584961744191
424 0.005027378406060517 0.01762950670014463 0.03767377355607134
425 0.01837060401727319 0.005143750035161897 0.001707948465311114
426 0.01480123983887253 0.01843351933629712 0.00170412320652331
427 0.00597894511502868 0.01829983594870604 0.002273200239001384
428 0.01747566444928064 0.01463293104582189 0.002214248190786384
429 0.01450784338470323 0.001775512268939228 0.03734307015012892
430 0.01373738039717922 0.001858615476411902 0.001763543454619834
431 0.01414306428841486 0.01825573879181467 0.03752483349255287
432 0.005811036183174907 0.002088129153813847 0.03745292197692344
433 0.006030626197791683 0.002142875471210767 0.002573648633607617
434 0.01762946932699645 0.002865231519981223 0.01511721504169137
435 0.002372020699768078 0.01495110360816462 0.002365013715269664
436 0.01740733776535371 0.01759083119349136 0.01209755425946244
437 0.01828121216970974 0.001628624095117914 0.02549455903036695
438 0.001861272607573483 0.01830414354037927 0.01840161945773662
439 0.001855628512686887 0.001799160827805041 0.02579902920348749
440 0.002239688622468737 0.005121784202995838 0.00229350815901781
441 0.01829560356122271 0.01846245329314536 0.02543503276867893
442 0.01783868133680344 0.002348508209764025 0.02157083918030308
443 0.001888669831471706 0.002022373285390072 0.02184003215103332
444 0.001876200935982654 0.01771694643376018 0.02157727216483023
445 0.01793953343718704 0.01812796941475078 0.006873719434110061
446 0.002097177360660564 0.001917621705312291 0.007959367906320267
447 0.01810262489255565 0.002198415538591562 0.007001871033515363
448 0.01762834538569146 0.002171528528124699 0.03013787722465129
449 0.01746248846812695 0.01786217647319401 0.03022235255767724
450 0.002551824958511056 0.002208437601516405 0.03053751954048995
451 0.009774886269950314 0.01786750608201308 0.037898982118866
452 0.001985380405339068 0.003346085696105641 0.03759810910958541
453 0.001951768427897935 0.01112137142058666 0.001876821678900865
454 0.01756145530329212 0.01374283546570167 0.03733227090414629
455 0.00292987962007203 0.002248889400592923 0.01831282461078342
456 0.01024334039267008 0.001683998648052535 0.001741882493012904
457 0.01765218433941388 0.009395447784469508 0.002066652726621479
458 0.01766753881179174 0.01763955999773441 0.02000280724014842
459 0.002235707014895297 0.002106234064515078 0.002374908784936556
460 0.001600670012768618 0.01471326392749886 0.03844728413343425
461 0.01728397933432366 0.005088607341443719 0.0376530596086319
462 0.002388321207878634 0.01779324597798016 0.002377506756429273
463 0.01073403052113441 0.01752649924752469 0.002288032787629069
464 0.002226612014942382 0.0174459602278191 0.006471446208658783
465 0.002065483572680982 0.01811519539747822 0.01549620327264424
466 0.01722488621882613 0.002163893675755592 0.002734289802013924
467 0.01774268866938409 0.01794440906530755 0.002286850605225008
468 0.0174536546111733 0.002198381483364555 0.03779089681303469
469 0.002054194110749138 0.001464248467343378 0.03390440439339133
470 0.01803232953545751 0.001575036758369072 0.03455007996359139
471 0.0178643350659774 0.0184748310299223 0.03418442438213952
472 0.00242340788124138 0.01784202014663231 0.03498139026508658
473 0.002149916577053011 0.01777419533564597 0.03787573340750444
474 0.01768703345647443 0.01740805061612748 0.03707367471807991
475 0.0182145037338016 0.001767446073697812 0.0184606549243457
476 0.001682251683094962 0.002452886669856708 0.03566144257556143
477 0.01846276902506544 0.01852146726425932 0.0230288705497058
$EndNodes
$Elements
2358
1 15 2 8 1 1
2 15 2 9 2 2
3 15 2 10 3 3
4 15 2 11 4 4
5 15 2 12 5 5
6 15 2 13 6 6
7 15 2 14 7 7
8 15 2 15 8 8
9 2 2 2 1 17 1 109
10 2 2 2 1 1 18 109
11 2 2 2 1 2 9 105
12 2 2 2 1 31 2 105
13 2 2 2 1 21 3 110
14 2 2 2 1 3 30 110
15 2 2 2 1 22 4 106
16 2 2 2 1 4 34 106
17 2 2 2 1 9 10 103
18 2 2 2 1 9 103 105
19 2 2 2 1 10 11 103
20 2 2 2 1 11 12 102
21 2 2 2 1 90 11 102
22 2 2 2 1 11 90 103
23 2 2 2 1 12 13 100
24 2 2 2 1 12 100 102
25 2 2 2 1 13 14 132
26 2 2 2 1 100 13 132
27 2 2 2 1 14 15 125
28 2 2 2 1 108 14 125
29 2 2 2 1 14 108 132
30 2 2 2 1 15 16 94
31 2 2 2 1 15 94 125
32 2 2 2 1 16 17 121
33 2 2 2 1 94 16 121
34 2 2 2 1 17 109 121
35 2 2 2 1 18 19 122
36 2 2 2 1 109 18 122
37 2 2 2 1 19 20 92
38 2 2 2 1 19 92 122
39 2 2 2 1 20 21 124
40 2 2 2 1 92 20 124
41 2 2 2 1 21 110 124
42 2 2 2 1 23 22 104
43 2 2 2 1 104 22 106
44 2 2 2 1 24 23 104
45 2 2 2 1 25 24 101
46 2 2 2 1 24 91 101
47 2 2 2 1 91 24 104
48 2 2 2 1 26 25 98
49 2 2 2 1 98 25 101
50 2 2 2 1 27 26 131
51 2 2 2 1 26 98 131
52 2 2 2 1 28 27 126
53 2 2 2 1 27 107 126
54 2 2 2 1 107 27 131
55 2 2 2 1 29 28 95
56 2 2 2 1 95 28 126
57 2 2 2 1 30 29 123
58 2 2 2 1 29 95 123
59 2 2 2 1 110 30 123
60 2 2 2 1 32 31 119
61 2 2 2 1 31 105 119
62 2 2 2 1 33 32 93
63 2 2 2 1 93 32 119
64 2 2 2 1 34 33 118
65 2 2 2 1 33 93 118
66 2 2 2 1 106 34 118
67 2 2 2 1 77 90 97
68 2 2 2 1 90 77 111
69 2 2 2 1 77 97 127
70 2 2 2 1 111 77 114
71 2 2 2 1 114 77 130
72 2 2 2 1 77 127 130
73 2 2 2 1 78 96 115
74 2 2 2 1 96 78 116
75 2 2 2 1 99 78 117
76 2 2 2 1 78 99 120
77 2 2 2 1 78 115 117
78 2 2 2 1 116 78 120
79 2 2 2 1 79 96 112
80 2 2 2 1 96 79 113
81 2 2 2 1 79 112 129
82 2 2 2 1 113 79 128
83 2 2 2 1 128 79 129
84 2 2 2 1 80 97 99
85 2 2 2 1 97 80 127
86 2 2 2 1 80 98 101
87 2 2 2 1 98 80 117
88 2 2 2 1 80 99 117
89 2 2 2 1 80 101 127
90 2 2 2 1 90 81 97
91 2 2 2 1 81 90 102
92 2 2 2 1 97 81 99
93 2 2 2 1 99 81 120
94 2 2 2 1 100 81 102
95 2 2 2 1 81 100 120
96 2 2 2 1 82 94 112
97 2 2 2 1 94 82 125
98 2 2 2 1 96 82 112
99 2 2 2 1 82 96 116
100 2 2 2 1 108 82 116
101 2 2 2 1 82 108 125
102 2 2 2 1 95 83 113
103 2 2 2 1 83 95 126
104 2 2 2 1 83 96 113
105 2 2 2 1 96 83 115
106 2 2 2 1 83 107 115
107 2 2 2 1 107 83 126
108 2 2 2 1 93 84 111
109 2 2 2 1 84 93 119
110 2 2 2 1 103 84 105
111 2 2 2 1 84 103 111
112 2 2 2 1 105 84 119
113 2 2 2 1 85 93 114
114 2 2 2 1 93 85 118
115 2 2 2 1 85 104 106
116 2 2 2 1 104 85 130
117 2 2 2 1 85 106 118
118 2 2 2 1 85 114 130
119 2 2 2 1 95 86 123
120 2 2 2 1 86 95 128
121 2 2 2 1 86 110 123
122 2 2 2 1 110 86 124
123 2 2 2 1 124 86 128
124 2 2 2 1 87 94 121
125 2 2 2 1 94 87 129
126 2 2 2 1 109 87 121
127 2 2 2 1 87 109 122
128 2 2 2 1 87 122 129
129 2 2 2 1 100 88 120
130 2 2 2 1 88 100 132
131 2 2 2 1 88 108 116
132 2 2 2 1 108 88 132
133 2 2 2 1 88 116 120
134 2 2 2 1 89 98 117
135 2 2 2 1 98 89 131
136 2 2 2 1 107 89 115
137 2 2 2 1 89 107 131
138 2 2 2 1 115 89 117
139 2 2 2 1 103 90 111
140 2 2 2 1 101 91 127
141 2 2 2 1 91 104 130
142 2 2 2 1 127 91 130
143 2 2 2 1 122 92 129
144 2 2 2 1 92 124 128
145 2 2 2 1 92 128 129
146 2 2 2 1 93 111 114
147 2 2 2 1 112 94 129
148 2 2 2 1 95 113 128
149 2 2 3 2 43 165 5
150 2 2 3 2 5 165 44
151 2 2 3 2 6 161 35
152 2 2 3 2 57 161 6
153 2 2 3 2 47 166 7
154 2 2 3 2 7 166 56
155 2 2 3 2 48 162 8
156 2 2 3 2 8 162 60
157 2 2 3 2 35 159 36
158 2 2 3 2 35 161 159
159 2 2 3 2 36 159 37
160 2 2 3 2 37 158 38
161 2 2 3 2 146 158 37
162 2 2 3 2 37 159 146
163 2 2 3 2 38 156 39
164 2 2 3 2 38 158 156
165 2 2 3 2 39 188 40
166 2 2 3 2 156 188 39
167 2 2 3 2 40 181 41
168 2 2 3 2 164 181 40
169 2 2 3 2 40 188 164
170 2 2 3 2 41 150 42
171 2 2 3 2 41 181 150
172 2 2 3 2 42 177 43
173 2 2 3 2 150 177 42
174 2 2 3 2 43 177 165
175 2 2 3 2 44 178 45
176 2 2 3 2 165 178 44
177 2 2 3 2 45 148 46
178 2 2 3 2 45 178 148
179 2 2 3 2 46 180 47
180 2 2 3 2 148 180 46
181 2 2 3 2 47 180 166
182 2 2 3 2 49 160 48
183 2 2 3 2 160 162 48
184 2 2 3 2 50 160 49
185 2 2 3 2 51 157 50
186 2 2 3 2 50 157 147
187 2 2 3 2 147 160 50
188 2 2 3 2 52 154 51
189 2 2 3 2 154 157 51
190 2 2 3 2 53 187 52
191 2 2 3 2 52 187 154
192 2 2 3 2 54 182 53
193 2 2 3 2 53 182 163
194 2 2 3 2 163 187 53
195 2 2 3 2 55 151 54
196 2 2 3 2 151 182 54
197 2 2 3 2 56 179 55
198 2 2 3 2 55 179 151
199 2 2 3 2 166 179 56
200 2 2 3 2 58 175 57
201 2 2 3 2 57 175 161
202 2 2 3 2 59 149 58
203 2 2 3 2 149 175 58
204 2 2 3 2 60 174 59
205 2 2 3 2 59 174 149
206 2 2 3 2 162 174 60
207 2 2 3 2 133 153 146
208 2 2 3 2 146 167 133
209 2 2 3 2 133 183 153
210 2 2 3 2 167 170 133
211 2 2 3 2 170 186 133
212 2 2 3 2 133 186 183
213 2 2 3 2 134 171 152
214 2 2 3 2 152 172 134
215 2 2 3 2 155 173 134
216 2 2 3 2 134 176 155
217 2 2 3 2 134 173 171
218 2 2 3 2 172 176 134
219 2 2 3 2 135 168 152
220 2 2 3 2 152 169 135
221 2 2 3 2 135 185 168
222 2 2 3 2 169 184 135
223 2 2 3 2 184 185 135
224 2 2 3 2 136 155 153
225 2 2 3 2 153 183 136
226 2 2 3 2 136 157 154
227 2 2 3 2 154 173 136
228 2 2 3 2 136 173 155
229 2 2 3 2 136 183 157
230 2 2 3 2 146 153 137
231 2 2 3 2 137 158 146
232 2 2 3 2 153 155 137
233 2 2 3 2 155 176 137
234 2 2 3 2 156 158 137
235 2 2 3 2 137 176 156
236 2 2 3 2 138 168 150
237 2 2 3 2 150 181 138
238 2 2 3 2 152 168 138
239 2 2 3 2 138 172 152
240 2 2 3 2 164 172 138
241 2 2 3 2 138 181 164
242 2 2 3 2 151 169 139
243 2 2 3 2 139 182 151
244 2 2 3 2 139 169 152
245 2 2 3 2 152 171 139
246 2 2 3 2 139 171 163
247 2 2 3 2 163 182 139
248 2 2 3 2 149 167 140
249 2 2 3 2 140 175 149
250 2 2 3 2 159 161 140
251 2 2 3 2 140 167 159
252 2 2 3 2 161 175 140
253 2 2 3 2 141 170 149
254 2 2 3 2 149 174 141
255 2 2 3 2 141 162 160
256 2 2 3 2 160 186 141
257 2 2 3 2 141 174 162
258 2 2 3 2 141 186 170
259 2 2 3 2 151 179 142
260 2 2 3 2 142 184 151
261 2 2 3 2 142 179 166
262 2 2 3 2 166 180 142
263 2 2 3 2 180 184 142
264 2 2 3 2 143 177 150
265 2 2 3 2 150 185 143
266 2 2 3 2 165 177 143
267 2 2 3 2 143 178 165
268 2 2 3 2 143 185 178
269 2 2 3 2 156 176 144
270 2 2 3 2 144 188 156
271 2 2 3 2 144 172 164
272 2 2 3 2 164 188 144
273 2 2 3 2 144 176 172
274 2 2 3 2 145 173 154
275 2 2 3 2 154 187 145
276 2 2 3 2 163 171 145
277 2 2 3 2 145 187 163
278 2 2 3 2 171 173 145
279 2 2 3 2 159 167 146
280 2 2 3 2 157 183 147
281 2 2 3 2 147 186 160
282 2 2 3 2 183 186 147
283 2 2 3 2 178 185 148
284 2 2 3 2 148 184 180
285 2 2 3 2 148 185 184
286 2 2 3 2 149 170 167
287 2 2 3 2 168 185 150
288 2 2 3 2 151 184 169
289 2 2 4 3 1 17 216
290 2 2 4 3 65 1 216
291 2 2 4 3 9 2 217
292 2 2 4 3 2 61 217
293 2 2 4 3 43 5 219
294 2 2 4 3 5 68 219
295 2 2 4 3 6 35 218
296 2 2 4 3 64 6 218
297 2 2 4 3 10 9 233
298 2 2 4 3 9 217 233
299 2 2 4 3 11 10 233
300 2 2 4 3 12 11 213
301 2 2 4 3 11 203 213
302 2 2 4 3 203 11 233
303 2 2 4 3 13 12 221
304 2 2 4 3 12 213 221
305 2 2 4 3 14 13 210
306 2 2 4 3 13 201 210
307 2 2 4 3 201 13 221
308 2 2 4 3 15 14 215
309 2 2 4 3 14 210 215
310 2 2 4 3 16 15 235
311 2 2 4 3 205 15 215
312 2 2 4 3 15 205 235
313 2 2 4 3 17 16 235
314 2 2 4 3 216 17 235
315 2 2 4 3 35 36 234
316 2 2 4 3 218 35 234
317 2 2 4 3 36 37 234
318 2 2 4 3 37 38 212
319 2 2 4 3 204 37 212
320 2 2 4 3 37 204 234
321 2 2 4 3 38 39 220
322 2 2 4 3 212 38 220
323 2 2 4 3 39 40 211
324 2 2 4 3 200 39 211
325 2 2 4 3 39 200 220
326 2 2 4 3 40 41 214
327 2 2 4 3 211 40 214
328 2 2 4 3 41 42 232
329 2 2 4 3 41 202 214
330 2 2 4 3 202 41 232
331 2 2 4 3 42 43 232
332 2 2 4 3 43 219 232
333 2 2 4 3 61 62 239
334 2 2 4 3 217 61 239
335 2 2 4 3 62 63 206
336 2 2 4 3 62 206 239
337 2 2 4 3 63 64 238
338 2 2 4 3 206 63 238
339 2 2 4 3 64 218 238
340 2 2 4 3 66 65 240
341 2 2 4 3 65 216 240
342 2 2 4 3 67 66 207
343 2 2 4 3 207 66 240
344 2 2 4 3 68 67 241
345 2 2 4 3 67 207 241
346 2 2 4 3 219 68 241
347 2 2 4 3 189 208 225
348 2 2 4 3 208 189 226
349 2 2 4 3 189 225 237
350 2 2 4 3 226 189 230
351 2 2 4 3 230 189 237
352 2 2 4 3 202 190 223
353 2 2 4 3 190 202 229
354 2 2 4 3 223 190 224
355 2 2 4 3 224 190 236
356 2 2 4 3 190 229 236
357 2 2 4 3 200 191 222
358 2 2 4 3 191 200 228
359 2 2 4 3 191 209 227
360 2 2 4 3 209 191 228
361 2 2 4 3 222 191 231
362 2 2 4 3 191 227 231
363 2 2 4 3 200 192 220
364 2 2 4 3 192 200 222
365 2 2 4 3 192 204 212
366 2 2 4 3 204 192 226
367 2 2 4 3 208 192 222
368 2 2 4 3 192 208 226
369 2 2 4 3 192 212 220
370 2 2 4 3 203 193 213
371 2 2 4 3 193 203 225
372 2 2 4 3 208 193 225
373 2 2 4 3 193 208 231
374 2 2 4 3 213 193 221
375 2 2 4 3 221 193 231
376 2 2 4 3 194 209 224
377 2 2 4 3 209 194 227
378 2 2 4 3 210 194 215
379 2 2 4 3 194 210 227
380 2 2 4 3 215 194 224
381 2 2 4 3 202 195 214
382 2 2 4 3 195 202 223
383 2 2 4 3 209 195 223
384 2 2 4 3 195 209 228
385 2 2 4 3 195 211 214
386 2 2 4 3 211 195 228
387 2 2 4 3 207 196 236
388 2 2 4 3 196 207 240
389 2 2 4 3 196 216 235
390 2 2 4 3 216 196 240
391 2 2 4 3 196 235 236
392 2 2 4 3 197 206 237
393 2 2 4 3 206 197 239
394 2 2 4 3 217 197 233
395 2 2 4 3 197 217 239
396 2 2 4 3 233 197 237
397 2 2 4 3 202 198 229
398 2 2 4 3 198 202 232
399 2 2 4 3 198 207 229
400 2 2 4 3 207 198 241
401 2 2 4 3 219 198 232
402 2 2 4 3 198 219 241
403 2 2 4 3 199 204 230
404 2 2 4 3 204 199 234
405 2 2 4 3 206 199 230
406 2 2 4 3 199 206 238
407 2 2 4 3 199 218 234
408 2 2 4 3 218 199 238
409 2 2 4 3 200 211 228
410 2 2 4 3 210 201 227
411 2 2 4 3 201 221 231
412 2 2 4 3 227 201 231
413 2 2 4 3 225 203 237
414 2 2 4 3 203 233 237
415 2 2 4 3 204 226 230
416 2 2 4 3 205 215 224
417 2 2 4 3 205 224 236
418 2 2 4 3 235 205 236
419 2 2 4 3 206 230 237
420 2 2 4 3 229 207 236
421 2 2 4 3 208 222 231
422 2 2 4 3 209 223 224
423 2 2 5 4 3 269 30
424 2 2 5 4 73 269 3
425 2 2 5 4 22 270 4
426 2 2 5 4 4 270 69
427 2 2 5 4 56 272 7
428 2 2 5 4 7 272 76
429 2 2 5 4 8 271 48
430 2 2 5 4 72 271 8
431 2 2 5 4 23 286 22
432 2 2 5 4 22 286 270
433 2 2 5 4 24 286 23
434 2 2 5 4 25 266 24
435 2 2 5 4 24 266 257
436 2 2 5 4 257 286 24
437 2 2 5 4 26 273 25
438 2 2 5 4 25 273 266
439 2 2 5 4 27 263 26
440 2 2 5 4 26 263 253
441 2 2 5 4 253 273 26
442 2 2 5 4 28 267 27
443 2 2 5 4 27 267 263
444 2 2 5 4 29 285 28
445 2 2 5 4 258 267 28
446 2 2 5 4 28 285 258
447 2 2 5 4 30 285 29
448 2 2 5 4 269 285 30
449 2 2 5 4 48 288 49
450 2 2 5 4 271 288 48
451 2 2 5 4 49 288 50
452 2 2 5 4 50 265 51
453 2 2 5 4 255 265 50
454 2 2 5 4 50 288 255
455 2 2 5 4 51 274 52
456 2 2 5 4 265 274 51
457 2 2 5 4 52 264 53
458 2 2 5 4 254 264 52
459 2 2 5 4 52 274 254
460 2 2 5 4 53 268 54
461 2 2 5 4 264 268 53
462 2 2 5 4 54 287 55
463 2 2 5 4 54 268 256
464 2 2 5 4 256 287 54
465 2 2 5 4 55 287 56
466 2 2 5 4 56 287 272
467 2 2 5 4 69 293 70
468 2 2 5 4 270 293 69
469 2 2 5 4 70 260 71
470 2 2 5 4 70 293 260
471 2 2 5 4 71 292 72
472 2 2 5 4 260 292 71
473 2 2 5 4 72 292 271
474 2 2 5 4 74 291 73
475 2 2 5 4 73 291 269
476 2 2 5 4 75 259 74
477 2 2 5 4 259 291 74
478 2 2 5 4 76 294 75
479 2 2 5 4 75 294 259
480 2 2 5 4 272 294 76
481 2 2 5 4 261 278 242
482 2 2 5 4 242 279 261
483 2 2 5 4 278 283 242
484 2 2 5 4 242 289 279
485 2 2 5 4 283 289 242
486 2 2 5 4 262 280 243
487 2 2 5 4 243 281 262
488 2 2 5 4 280 282 243
489 2 2 5 4 243 290 281
490 2 2 5 4 282 290 243
491 2 2 5 4 244 275 253
492 2 2 5 4 253 277 244
493 2 2 5 4 244 276 254
494 2 2 5 4 254 284 244
495 2 2 5 4 244 284 275
496 2 2 5 4 244 277 276
497 2 2 5 4 245 273 253
498 2 2 5 4 253 275 245
499 2 2 5 4 257 266 245
500 2 2 5 4 245 281 257
501 2 2 5 4 245 275 262
502 2 2 5 4 262 281 245
503 2 2 5 4 266 273 245
504 2 2 5 4 246 265 255
505 2 2 5 4 255 280 246
506 2 2 5 4 246 280 262
507 2 2 5 4 262 284 246
508 2 2 5 4 246 274 265
509 2 2 5 4 246 284 274
510 2 2 5 4 261 277 247
511 2 2 5 4 247 278 261
512 2 2 5 4 263 267 247
513 2 2 5 4 247 277 263
514 2 2 5 4 267 278 247
515 2 2 5 4 248 264 254
516 2 2 5 4 254 276 248
517 2 2 5 4 248 276 261
518 2 2 5 4 261 279 248
519 2 2 5 4 248 268 264
520 2 2 5 4 248 279 268
521 2 2 5 4 249 283 258
522 2 2 5 4 258 285 249
523 2 2 5 4 259 283 249
524 2 2 5 4 249 291 259
525 2 2 5 4 249 285 269
526 2 2 5 4 269 291 249
527 2 2 5 4 250 290 260
528 2 2 5 4 260 293 250
529 2 2 5 4 270 286 250
530 2 2 5 4 250 293 270
531 2 2 5 4 286 290 250
532 2 2 5 4 251 282 255
533 2 2 5 4 255 288 251
534 2 2 5 4 260 282 251
535 2 2 5 4 251 292 260
536 2 2 5 4 251 288 271
537 2 2 5 4 271 292 251
538 2 2 5 4 252 289 259
539 2 2 5 4 259 294 252
540 2 2 5 4 272 287 252
541 2 2 5 4 252 294 272
542 2 2 5 4 287 289 252
543 2 2 5 4 263 277 253
544 2 2 5 4 274 284 254
545 2 2 5 4 255 282 280
546 2 2 5 4 268 279 256
547 2 2 5 4 279 289 256
548 2 2 5 4 256 289 287
549 2 2 5 4 281 290 257
550 2 2 5 4 257 290 286
551 2 2 5 4 258 278 267
552 2 2 5 4 258 283 278
553 2 2 5 4 259 289 283
554 2 2 5 4 260 290 282
555 2 2 5 4 276 277 261
556 2 2 5 4 275 284 262
557 2 2 6 5 2 31 305
558 2 2 6 5 61 2 305
559 2 2 6 5 34 4 306
560 2 2 6 5 4 69 306
561 2 2 6 5 57 6 304
562 2 2 6 5 6 64 304
563 2 2 6 5 8 60 307
564 2 2 6 5 72 8 307
565 2 2 6 5 31 32 313
566 2 2 6 5 305 31 313
567 2 2 6 5 32 33 302
568 2 2 6 5 32 302 313
569 2 2 6 5 33 34 314
570 2 2 6 5 302 33 314
571 2 2 6 5 34 306 314
572 2 2 6 5 58 57 318
573 2 2 6 5 57 304 318
574 2 2 6 5 59 58 303
575 2 2 6 5 303 58 318
576 2 2 6 5 60 59 312
577 2 2 6 5 59 303 312
578 2 2 6 5 307 60 312
579 2 2 6 5 62 61 315
580 2 2 6 5 61 305 315
581 2 2 6 5 63 62 300
582 2 2 6 5 300 62 315
583 2 2 6 5 64 63 311
584 2 2 6 5 63 300 311
585 2 2 6 5 304 64 311
586 2 2 6 5 69 70 317
587 2 2 6 5 306 69 317
588 2 2 6 5 70 71 301
589 2 2 6 5 70 301 317
590 2 2 6 5 71 72 316
591 2 2 6 5 301 71 316
592 2 2 6 5 72 307 316
593 2 2 6 5 295 308 309
594 2 2 6 5 308 295 319
595 2 2 6 5 295 309 320
596 2 2 6 5 295 310 319
597 2 2 6 5 310 295 320
598 2 2 6 5 300 296 309
599 2 2 6 5 296 300 315
600 2 2 6 5 302 296 313
601 2 2 6 5 296 302 320
602 2 2 6 5 296 305 313
603 2 2 6 5 305 296 315
604 2 2 6 5 309 296 320
605 2 2 6 5 297 301 310
606 2 2 6 5 301 297 317
607 2 2 6 5 297 302 314
608 2 2 6 5 302 297 320
609 2 2 6 5 306 297 314
610 2 2 6 5 297 306 317
611 2 2 6 5 297 310 320
612 2 2 6 5 298 300 308
613 2 2 6 5 300 298 311
614 2 2 6 5 303 298 308
615 2 2 6 5 298 303 318
616 2 2 6 5 298 304 311
617 2 2 6 5 304 298 318
618 2 2 6 5 299 301 316
619 2 2 6 5 301 299 319
620 2 2 6 5 303 299 312
621 2 2 6 5 299 303 319
622 2 2 6 5 299 307 312
623 2 2 6 5 307 299 316
624 2 2 6 5 308 300 309
625 2 2 6 5 310 301 319
626 2 2 6 5 303 308 319
627 2 2 7 6 1 331 18
628 2 2 7 6 65 331 1
629 2 2 7 6 21 332 3
630 2 2 7 6 3 332 73
631 2 2 7 6 44 330 5
632 2 2 7 6 5 330 68
633 2 2 7 6 7 333 47
634 2 2 7 6 76 333 7
635 2 2 7 6 18 339 19
636 2 2 7 6 331 339 18
637 2 2 7 6 19 328 20
638 2 2 7 6 19 339 328
639 2 2 7 6 20 340 21
640 2 2 7 6 328 340 20
641 2 2 7 6 21 340 332
642 2 2 7 6 45 344 44
643 2 2 7 6 44 344 330
644 2 2 7 6 46 329 45
645 2 2 7 6 329 344 45
646 2 2 7 6 47 338 46
647 2 2 7 6 46 338 329
648 2 2 7 6 333 338 47
649 2 2 7 6 66 341 65
650 2 2 7 6 65 341 331
651 2 2 7 6 67 326 66
652 2 2 7 6 326 341 66
653 2 2 7 6 68 337 67
654 2 2 7 6 67 337 326
655 2 2 7 6 330 337 68
656 2 2 7 6 73 343 74
657 2 2 7 6 332 343 73
658 2 2 7 6 74 327 75
659 2 2 7 6 74 343 327
660 2 2 7 6 75 342 76
661 2 2 7 6 327 342 75
662 2 2 7 6 76 342 333
663 2 2 7 6 321 335 334
664 2 2 7 6 334 345 321
665 2 2 7 6 321 346 335
666 2 2 7 6 321 345 336
667 2 2 7 6 336 346 321
668 2 2 7 6 326 335 322
669 2 2 7 6 322 341 326
670 2 2 7 6 328 339 322
671 2 2 7 6 322 346 328
672 2 2 7 6 322 339 331
673 2 2 7 6 331 341 322
674 2 2 7 6 335 346 322
675 2 2 7 6 323 336 327
676 2 2 7 6 327 343 323
677 2 2 7 6 323 340 328
678 2 2 7 6 328 346 323
679 2 2 7 6 332 340 323
680 2 2 7 6 323 343 332
681 2 2 7 6 323 346 336
682 2 2 7 6 324 334 326
683 2 2 7 6 326 337 324
684 2 2 7 6 329 334 324
685 2 2 7 6 324 344 329
686 2 2 7 6 324 337 330
687 2 2 7 6 330 344 324
688 2 2 7 6 325 342 327
689 2 2 7 6 327 345 325
690 2 2 7 6 329 338 325
691 2 2 7 6 325 345 329
692 2 2 7 6 325 338 333
693 2 2 7 6 333 342 325
694 2 2 7 6 334 335 326
695 2 2 7 6 336 345 327
696 2 2 7 6 329 345 334
697 4 2 1 1 371 352 348 378
698 4 2 1 1 357 362 381 347
699 4 2 1 1 232 219 470 366
700 4 2 1 1 363 359 259 451
701 4 2 1 1 252 431 259 359
702 4 2 1 1 296 433 406 418
703 4 2 1 1 141 428 407 400
704 4 2 1 1 378 374 371 388
705 4 2 1 1 348 396 416 376
706 4 2 1 1 348 376 359 396
707 4 2 1 1 353 364 348 352
708 4 2 1 1 359 374 348 396
709 4 2 1 1 348 374 366 396
710 4 2 1 1 17 216 469 476
711 4 2 1 1 357 362 347 369
712 4 2 1 1 371 352 378 386
713 4 2 1 1 94 378 361 412
714 4 2 1 1 368 247 350 404
715 4 2 1 1 357 362 369 406
716 4 2 1 1 400 407 141 360
717 4 2 1 1 179 474 142 166
718 4 2 1 1 378 374 388 361
719 4 2 1 1 43 470 232 219
720 4 2 1 1 358 434 413 137
721 4 2 1 1 354 367 136 408
722 4 2 1 1 290 375 372 379
723 4 2 1 1 371 352 386 350
724 4 2 1 1 171 367 353 385
725 4 2 1 1 374 371 388 363
726 4 2 1 1 236 450 361 412
727 4 2 1 1 382 354 153 409
728 4 2 1 1 359 471 272 474
729 4 2 1 1 374 371 363 348
730 4 2 1 1 114 375 130 387
731 4 2 1 1 469 216 361 476
732 4 2 1 1 362 357 230 406
733 4 2 1 1 216 361 235 469
734 4 2 1 1 451 342 359 431
735 4 2 1 1 282 379 372 399
736 4 2 1 1 114 370 375 387
737 4 2 1 1 247 384 368 350
738 4 2 1 1 395 362 381 351
739 4 2 1 1 378 374 361 348
740 4 2 1 1 378 374 348 371
741 4 2 1 1 404 386 411 350
742 4 2 1 1 355 442 144 410
743 4 2 1 1 354 136 367 390
744 4 2 1 1 384 247 392 350
745 4 2 1 1 358 434 137 398
746 4 2 1 1 153 354 358 390
747 4 2 1 1 369 387 370 397
748 4 2 1 1 372 375 347 379
749 4 2 1 1 216 432 361 452
750 4 2 1 1 406 433 197 418
751 4 2 1 1 305 31 2 459
752 4 2 1 1 350 247 411 404
753 4 2 1 1 363 259 359 417
754 4 2 1 1 192 380 358 381
755 4 2 1 1 151 376 359 391
756 4 2 1 1 42 43 470 232
757 4 2 1 1 142 474 179 359
758 4 2 1 1 395 362 351 387
759 4 2 1 1 384 392 247 277
760 4 2 1 1 121 476 361 87
761 4 2 1 1 382 153 354 358
762 4 2 1 1 403 352 364 421
763 4 2 1 1 366 383 364 202
764 4 2 1 1 345 363 359 374
765 4 2 1 1 196 432 419 361
766 4 2 1 1 193 225 351 208
767 4 2 1 1 372 379 347 399
768 4 2 1 1 355 352 403 421
769 4 2 1 1 345 327 359 363
770 4 2 1 1 247 368 384 261
771 4 2 1 1 368 352 371 350
772 4 2 1 1 252 431 359 272
773 4 2 1 1 252 431 272 294
774 4 2 1 1 236 450 412 205
775 4 2 1 1 397 387 370 114
776 4 2 1 1 136 354 153 390
777 4 2 1 1 472 86 423 405
778 4 2 1 1 361 383 236 412
779 4 2 1 1 351 231 365 394
780 4 2 1 1 352 364 348 383
781 4 2 1 1 348 368 353 352
782 4 2 1 1 196 432 361 216
783 4 2 1 1 142 474 454 166
784 4 2 1 1 129 371 388 378
785 4 2 1 1 372 375 290 402
786 4 2 1 1 231 351 193 394
787 4 2 1 1 357 381 230 413
788 4 2 1 1 458 145 187 385
789 4 2 1 1 404 386 350 371
790 4 2 1 1 358 434 398 192
791 4 2 1 1 388 87 361 452
792 4 2 1 1 208 351 380 381
793 4 2 1 1 141 428 400 162
794 4 2 1 1 364 352 353 421
795 4 2 1 1 388 87 452 122
796 4 2 1 1 198 429 366 419
797 4 2 1 1 368 247 404 278
798 4 2 1 1 454 142 166 180
799 4 2 1 1 473 424 73 332
800 4 2 1 1 203 351 225 362
801 4 2 1 1 474 431 272 359
802 4 2 1 1 360 407 141 414
803 4 2 1 1 408 379 354 377
804 4 2 1 1 347 381 357 382
805 4 2 1 1 245 356 377 401
806 4 2 1 1 196 432 216 240
807 4 2 1 1 349 354 358 395
808 4 2 1 1 349 354 367 390
809 4 2 1 1 408 379 377 246
810 4 2 1 1 358 434 192 413
811 4 2 1 1 454 474 142 359
812 4 2 1 1 291 451 424 363
813 4 2 1 1 351 394 387 362
814 4 2 1 1 290 372 282 379
815 4 2 1 1 377 246 379 262
816 4 2 1 1 141 407 149 414
817 4 2 1 1 397 387 114 111
818 4 2 1 1 171 134 353 367
819 4 2 1 1 407 347 369 357
820 4 2 1 1 351 225 381 208
821 4 2 1 1 357 360 347 382
822 4 2 1 1 452 87 361 476
823 4 2 1 1 454 325 333 359
824 4 2 1 1 342 325 327 359
825 4 2 1 1 192 208 380 381
826 4 2 1 1 73 332 3 473
827 4 2 1 1 238 430 406 420
828 4 2 1 1 134 353 367 390
829 4 2 1 1 261 247 277 384
830 4 2 1 1 348 419 383 366
831 4 2 1 1 458 145 385 367
832 4 2 1 1 348 419 366 374
833 4 2 1 1 381 225 351 362
834 4 2 1 1 228 355 380 415
835 4 2 1 1 381 225 189 208
836 4 2 1 1 322 374 419 361
837 4 2 1 1 407 347 357 360
838 4 2 1 1 231 208 351 380
839 4 2 1 1 359 471 474 179
840 4 2 1 1 342 333 325 359
841 4 2 1 1 470 448 232 366
842 4 2 1 1 348 419 374 361
843 4 2 1 1 189 225 381 362
844 4 2 1 1 245 356 401 422
845 4 2 1 1 374 322 388 361
846 4 2 1 1 473 424 332 405
847 4 2 1 1 336 363 345 374
848 4 2 1 1 139 353 376 391
849 4 2 1 1 361 469 476 121
850 4 2 1 1 404 386 371 83
851 4 2 1 1 355 442 410 200
852 4 2 1 1 378 383 361 412
853 4 2 1 1 134 353 390 421
854 4 2 1 1 179 151 142 359
855 4 2 1 1 476 109 87 121
856 4 2 1 1 471 287 449 359
857 4 2 1 1 359 259 289 417
858 4 2 1 1 368 371 352 348
859 4 2 1 1 360 372 347 399
860 4 2 1 1 432 331 452 65
861 4 2 1 1 432 331 361 452
862 4 2 1 1 345 336 327 363
863 4 2 1 1 143 461 396 366
864 4 2 1 1 90 387 394 362
865 4 2 1 1 348 419 361 383
866 4 2 1 1 444 98 401 411
867 4 2 1 1 193 231 208 351
868 4 2 1 1 192 381 358 413
869 4 2 1 1 94 87 121 361
870 4 2 1 1 365 373 120 393
871 4 2 1 1 153 358 382 413
872 4 2 1 1 146 434 137 413
873 4 2 1 1 357 369 308 406
874 4 2 1 1 395 365 389 351
875 4 2 1 1 148 454 184 396
876 4 2 1 1 284 384 377 367
877 4 2 1 1 348 416 396 366
878 4 2 1 1 249 424 405 363
879 4 2 1 1 474 431 76 272
880 4 2 1 1 353 348 364 376
881 4 2 1 1 349 352 365 415
882 4 2 1 1 322 432 331 361
883 4 2 1 1 408 379 246 399
884 4 2 1 1 349 358 354 390
885 4 2 1 1 452 87 476 109
886 4 2 1 1 368 371 348 417
887 4 2 1 1 380 381 395 358
888 4 2 1 1 417 376 348 368
889 4 2 1 1 363 348 371 417
890 4 2 1 1 141 149 407 174
891 4 2 1 1 323 374 388 363
892 4 2 1 1 348 364 366 383
893 4 2 1 1 461 324 396 366
894 4 2 1 1 144 442 164 410
895 4 2 1 1 443 88 393 100
896 4 2 1 1 350 349 392 384
897 4 2 1 1 127 375 356 387
898 4 2 1 1 353 350 384 349
899 4 2 1 1 452 87 109 122
900 4 2 1 1 322 361 339 388
901 4 2 1 1 354 382 347 399
902 4 2 1 1 454 325 359 396
903 4 2 1 1 449 471 55 287
904 4 2 1 1 404 386 83 411
905 4 2 1 1 359 363 348 374
906 4 2 1 1 136 354 408 409
907 4 2 1 1 397 387 111 362
908 4 2 1 1 388 87 122 129
909 4 2 1 1 245 356 422 379
910 4 2 1 1 229 366 202 383
911 4 2 1 1 236 383 361 419
912 4 2 1 1 367 171 145 385
913 4 2 1 1 354 347 379 399
914 4 2 1 1 348 366 364 416
915 4 2 1 1 417 376 368 391
916 4 2 1 1 310 370 369 372
917 4 2 1 1 459 440 305 31
918 4 2 1 1 452 331 1 65
919 4 2 1 1 356 375 127 422
920 4 2 1 1 395 365 351 380
921 4 2 1 1 437 364 181 410
922 4 2 1 1 139 385 353 391
923 4 2 1 1 345 374 359 396
924 4 2 1 1 457 318 303 58
925 4 2 1 1 389 395 356 349
926 4 2 1 1 423 128 371 405
927 4 2 1 1 230 199 357 413
928 4 2 1 1 376 151 139 391
929 4 2 1 1 474 431 333 76
930 4 2 1 1 353 355 390 421
931 4 2 1 1 87 378 388 361
932 4 2 1 1 331 339 322 361
933 4 2 1 1 348 363 359 417
934 4 2 1 1 280 246 379 399
935 4 2 1 1 373 356 80 401
936 4 2 1 1 298 406 311 420
937 4 2 1 1 457 298 318 420
938 4 2 1 1 139 171 353 385
939 4 2 1 1 373 80 356 389
940 4 2 1 1 184 454 180 142
941 4 2 1 1 374 388 322 346
942 4 2 1 1 219 429 468 366
943 4 2 1 1 282 399 372 400
944 4 2 1 1 298 357 406 420
945 4 2 1 1 243 290 282 379
946 4 2 1 1 413 230 226 381
947 4 2 1 1 475 200 39 442
948 4 2 1 1 450 412 205 439
949 4 2 1 1 350 349 352 373
950 4 2 1 1 354 349 367 377
951 4 2 1 1 347 382 360 399
952 4 2 1 1 349 356 392 377
953 4 2 1 1 130 375 127 387
954 4 2 1 1 351 365 231 380
955 4 2 1 1 174 457 407 428
956 4 2 1 1 87 378 361 94
957 4 2 1 1 192 226 381 413
958 4 2 1 1 349 373 365 352
959 4 2 1 1 85 375 370 402
960 4 2 1 1 229 366 383 419
961 4 2 1 1 245 356 379 377
962 4 2 1 1 323 374 363 336
963 4 2 1 1 150 416 364 366
964 4 2 1 1 349 392 356 373
965 4 2 1 1 367 145 171 173
966 4 2 1 1 359 289 391 417
967 4 2 1 1 444 89 98 411
968 4 2 1 1 369 387 397 362
969 4 2 1 1 454 474 359 333
970 4 2 1 1 373 392 356 401
971 4 2 1 1 461 337 324 366
972 4 2 1 1 347 372 370 375
973 4 2 1 1 308 369 357 407
974 4 2 1 1 358 380 192 398
975 4 2 1 1 291 451 363 259
976 4 2 1 1 349 384 377 392
977 4 2 1 1 356 392 377 401
978 4 2 1 1 371 388 363 405
979 4 2 1 1 139 353 152 376
980 4 2 1 1 348 353 368 376
981 4 2 1 1 171 173 134 367
982 4 2 1 1 123 86 95 423
983 4 2 1 1 296 309 369 406
984 4 2 1 1 322 374 346 335
985 4 2 1 1 228 355 200 380
986 4 2 1 1 468 68 5 330
987 4 2 1 1 322 374 335 419
988 4 2 1 1 428 307 467 60
989 4 2 1 1 428 299 407 400
990 4 2 1 1 320 369 310 370
991 4 2 1 1 298 357 308 406
992 4 2 1 1 393 100 120 365
993 4 2 1 1 322 432 361 419
994 4 2 1 1 370 375 372 402
995 4 2 1 1 407 347 360 372
996 4 2 1 1 345 327 325 359
997 4 2 1 1 417 376 391 359
998 4 2 1 1 176 355 144 421
999 4 2 1 1 353 349 384 367
1000 4 2 1 1 246 284 377 408
1001 4 2 1 1 349 373 356 389
1002 4 2 1 1 280 246 262 379
1003 4 2 1 1 151 376 169 184
1004 4 2 1 1 369 387 362 347
1005 4 2 1 1 115 83 386 411
1006 4 2 1 1 349 365 380 415
1007 4 2 1 1 353 349 367 390
1008 4 2 1 1 353 134 152 421
1009 4 2 1 1 368 371 417 423
1010 4 2 1 1 129 371 378 79
1011 4 2 1 1 350 349 373 392
1012 4 2 1 1 229 366 419 198
1013 4 2 1 1 372 399 360 400
1014 4 2 1 1 458 145 367 154
1015 4 2 1 1 94 129 378 112
1016 4 2 1 1 400 399 160 445
1017 4 2 1 1 128 388 371 405
1018 4 2 1 1 389 395 387 356
1019 4 2 1 1 357 414 413 420
1020 4 2 1 1 413 420 199 357
1021 4 2 1 1 297 372 402 370
1022 4 2 1 1 443 100 393 455
1023 4 2 1 1 363 417 371 423
1024 4 2 1 1 337 324 366 419
1025 4 2 1 1 467 307 8 60
1026 4 2 1 1 198 429 419 241
1027 4 2 1 1 461 337 366 468
1028 4 2 1 1 354 349 377 395
1029 4 2 1 1 322 432 419 341
1030 4 2 1 1 371 405 363 423
1031 4 2 1 1 139 171 152 353
1032 4 2 1 1 100 455 365 393
1033 4 2 1 1 428 307 400 467
1034 4 2 1 1 310 369 319 372
1035 4 2 1 1 337 68 468 330
1036 4 2 1 1 6 466 57 304
1037 4 2 1 1 337 468 429 366
1038 4 2 1 1 458 264 477 52
1039 4 2 1 1 347 354 379 395
1040 4 2 1 1 458 145 154 187
1041 4 2 1 1 96 83 371 386
1042 4 2 1 1 407 347 372 369
1043 4 2 1 1 90 387 389 394
1044 4 2 1 1 223 383 364 403
1045 4 2 1 1 284 367 377 408
1046 4 2 1 1 181 364 138 410
1047 4 2 1 1 444 401 253 411
1048 4 2 1 1 458 154 367 408
1049 4 2 1 1 362 446 394 90
1050 4 2 1 1 353 355 421 352
1051 4 2 1 1 350 411 247 392
1052 4 2 1 1 179 449 151 359
1053 4 2 1 1 348 378 352 383
1054 4 2 1 1 459 440 418 305
1055 4 2 1 1 376 416 364 421
1056 4 2 1 1 228 380 191 415
1057 4 2 1 1 200 380 355 398
1058 4 2 1 1 153 382 133 413
1059 4 2 1 1 199 238 406 420
1060 4 2 1 1 143 461 366 165
1061 4 2 1 1 369 296 406 418
1062 4 2 1 1 94 121 450 361
1063 4 2 1 1 354 347 382 395
1064 4 2 1 1 417 376 359 348
1065 4 2 1 1 323 374 336 346
1066 4 2 1 1 461 337 468 330
1067 4 2 1 1 362 397 369 418
1068 4 2 1 1 379 282 280 399
1069 4 2 1 1 117 373 401 411
1070 4 2 1 1 236 450 205 235
1071 4 2 1 1 348 364 376 416
1072 4 2 1 1 85 435 402 370
1073 4 2 1 1 295 310 320 369
1074 4 2 1 1 369 397 296 418
1075 4 2 1 1 457 312 59 303
1076 4 2 1 1 167 420 159 413
1077 4 2 1 1 90 362 111 387
1078 4 2 1 1 353 152 134 171
1079 4 2 1 1 141 360 160 400
1080 4 2 1 1 466 425 57 304
1081 4 2 1 1 152 376 353 421
1082 4 2 1 1 413 414 167 420
1083 4 2 1 1 133 382 153 409
1084 4 2 1 1 68 429 337 468
1085 4 2 1 1 236 229 383 419
1086 4 2 1 1 351 389 387 394
1087 4 2 1 1 262 246 284 377
1088 4 2 1 1 127 356 80 389
1089 4 2 1 1 436 246 399 408
1090 4 2 1 1 403 194 412 415
1091 4 2 1 1 441 53 477 264
1092 4 2 1 1 230 204 199 413
1093 4 2 1 1 147 360 409 399
1094 4 2 1 1 441 264 477 385
1095 4 2 1 1 395 362 387 347
1096 4 2 1 1 448 181 437 364
1097 4 2 1 1 228 403 355 415
1098 4 2 1 1 53 477 264 52
1099 4 2 1 1 199 406 357 420
1100 4 2 1 1 436 246 408 265
1101 4 2 1 1 224 383 403 412
1102 4 2 1 1 358 382 381 395
1103 4 2 1 1 284 384 367 254
1104 4 2 1 1 349 365 373 389
1105 4 2 1 1 222 192 208 380
1106 4 2 1 1 176 144 355 398
1107 4 2 1 1 380 395 381 351
1108 4 2 1 1 449 151 359 391
1109 4 2 1 1 176 390 355 421
1110 4 2 1 1 348 361 378 383
1111 4 2 1 1 466 425 304 420
1112 4 2 1 1 347 375 370 387
1113 4 2 1 1 395 365 380 349
1114 4 2 1 1 444 89 411 107
1115 4 2 1 1 223 202 364 383
1116 4 2 1 1 87 378 94 129
1117 4 2 1 1 408 379 399 354
1118 4 2 1 1 236 361 196 419
1119 4 2 1 1 352 355 403 415
1120 4 2 1 1 172 176 144 421
1121 4 2 1 1 347 375 356 379
1122 4 2 1 1 412 403 415 352
1123 4 2 1 1 355 358 349 390
1124 4 2 1 1 464 85 402 375
1125 4 2 1 1 403 194 415 209
1126 4 2 1 1 99 80 373 389
1127 4 2 1 1 356 375 347 387
1128 4 2 1 1 298 300 311 406
1129 4 2 1 1 260 372 290 402
1130 4 2 1 1 442 144 188 156
1131 4 2 1 1 203 351 362 394
1132 4 2 1 1 465 273 25 438
1133 4 2 1 1 362 369 406 418
1134 4 2 1 1 249 424 363 291
1135 4 2 1 1 362 230 357 381
1136 4 2 1 1 298 407 357 420
1137 4 2 1 1 355 358 390 398
1138 4 2 1 1 391 384 248 385
1139 4 2 1 1 394 446 362 203
1140 4 2 1 1 136 155 173 390
1141 4 2 1 1 96 371 378 386
1142 4 2 1 1 364 383 352 403
1143 4 2 1 1 195 403 364 410
1144 4 2 1 1 347 379 356 395
1145 4 2 1 1 298 308 357 407
1146 4 2 1 1 262 377 245 379
1147 4 2 1 1 223 364 195 403
1148 4 2 1 1 310 319 369 295
1149 4 2 1 1 152 416 376 421
1150 4 2 1 1 449 289 391 359
1151 4 2 1 1 173 145 154 367
1152 4 2 1 1 279 368 391 417
1153 4 2 1 1 136 153 155 390
1154 4 2 1 1 153 137 358 413
1155 4 2 1 1 238 456 406 430
1156 4 2 1 1 461 324 330 344
1157 4 2 1 1 297 372 370 310
1158 4 2 1 1 413 199 420 234
1159 4 2 1 1 174 457 428 59
1160 4 2 1 1 114 130 77 387
1161 4 2 1 1 424 323 405 363
1162 4 2 1 1 371 83 95 404
1163 4 2 1 1 472 86 405 110
1164 4 2 1 1 120 373 365 389
1165 4 2 1 1 229 202 190 383
1166 4 2 1 1 367 377 349 384
1167 4 2 1 1 458 264 385 477
1168 4 2 1 1 173 134 367 390
1169 4 2 1 1 356 387 347 395
1170 4 2 1 1 194 393 412 415
1171 4 2 1 1 80 117 373 401
1172 4 2 1 1 456 62 300 63
1173 4 2 1 1 151 376 184 359
1174 4 2 1 1 184 416 396 376
1175 4 2 1 1 345 359 325 396
1176 4 2 1 1 391 384 385 353
1177 4 2 1 1 416 152 138 421
1178 4 2 1 1 334 366 374 396
1179 4 2 1 1 149 414 407 420
1180 4 2 1 1 184 359 376 396
1181 4 2 1 1 355 410 144 421
1182 4 2 1 1 423 128 405 86
1183 4 2 1 1 274 51 52 458
1184 4 2 1 1 266 25 24 465
1185 4 2 1 1 284 384 254 244
1186 4 2 1 1 321 336 345 374
1187 4 2 1 1 266 465 24 422
1188 4 2 1 1 138 181 150 364
1189 4 2 1 1 226 208 192 381
1190 4 2 1 1 457 175 420 425
1191 4 2 1 1 115 386 373 411
1192 4 2 1 1 391 384 353 368
1193 4 2 1 1 85 435 370 118
1194 4 2 1 1 146 434 413 37
1195 4 2 1 1 262 245 377 275
1196 4 2 1 1 391 384 368 248
1197 4 2 1 1 403 194 209 224
1198 4 2 1 1 103 90 446 362
1199 4 2 1 1 408 51 157 436
1200 4 2 1 1 400 160 399 360
1201 4 2 1 1 204 192 212 413
1202 4 2 1 1 327 323 343 363
1203 4 2 1 1 254 384 367 385
1204 4 2 1 1 319 369 308 407
1205 4 2 1 1 96 371 79 378
1206 4 2 1 1 355 442 200 398
1207 4 2 1 1 142 151 184 359
1208 4 2 1 1 253 401 392 411
1209 4 2 1 1 141 428 162 174
1210 4 2 1 1 393 120 100 88
1211 4 2 1 1 465 273 266 25
1212 4 2 1 1 392 401 373 411
1213 4 2 1 1 249 259 291 363
1214 4 2 1 1 323 374 346 388
1215 4 2 1 1 87 378 129 388
1216 4 2 1 1 272 56 474 471
1217 4 2 1 1 245 465 422 401
1218 4 2 1 1 283 417 363 423
1219 4 2 1 1 133 413 382 414
1220 4 2 1 1 192 204 226 413
1221 4 2 1 1 127 80 356 422
1222 4 2 1 1 461 468 366 165
1223 4 2 1 1 352 403 383 412
1224 4 2 1 1 388 122 452 19
1225 4 2 1 1 272 359 287 471
1226 4 2 1 1 149 407 457 420
1227 4 2 1 1 355 358 398 380
1228 4 2 1 1 355 358 380 349
1229 4 2 1 1 81 365 100 394
1230 4 2 1 1 358 380 349 395
1231 4 2 1 1 350 371 368 404
1232 4 2 1 1 80 401 356 422
1233 4 2 1 1 321 346 336 374
1234 4 2 1 1 129 371 79 128
1235 4 2 1 1 184 454 142 359
1236 4 2 1 1 228 200 191 380
1237 4 2 1 1 368 376 353 391
1238 4 2 1 1 167 159 420 140
1239 4 2 1 1 355 442 398 144
1240 4 2 1 1 99 80 117 373
1241 4 2 1 1 320 369 370 397
1242 4 2 1 1 365 393 201 415
1243 4 2 1 1 377 392 275 401
1244 4 2 1 1 464 22 23 286
1245 4 2 1 1 298 308 300 406
1246 4 2 1 1 456 62 315 300
1247 4 2 1 1 356 377 349 395
1248 4 2 1 1 231 380 365 415
1249 4 2 1 1 464 270 22 286
1250 4 2 1 1 369 387 347 370
1251 4 2 1 1 450 16 235 469
1252 4 2 1 1 248 368 261 384
1253 4 2 1 1 67 419 337 429
1254 4 2 1 1 360 382 357 414
1255 4 2 1 1 227 393 194 415
1256 4 2 1 1 224 383 223 403
1257 4 2 1 1 147 360 399 160
1258 4 2 1 1 334 374 345 396
1259 4 2 1 1 260 282 290 372
1260 4 2 1 1 422 286 464 24
1261 4 2 1 1 281 375 379 422
1262 4 2 1 1 371 404 95 423
1263 4 2 1 1 118 453 435 370
1264 4 2 1 1 334 374 366 419
1265 4 2 1 1 283 259 363 417
1266 4 2 1 1 355 390 176 398
1267 4 2 1 1 227 201 393 415
1268 4 2 1 1 356 379 377 395
1269 4 2 1 1 382 409 133 414
1270 4 2 1 1 357 407 360 414
1271 4 2 1 1 95 128 113 371
1272 4 2 1 1 81 90 389 394
1273 4 2 1 1 138 364 150 416
1274 4 2 1 1 81 389 365 394
1275 4 2 1 1 377 379 354 395
1276 4 2 1 1 373 116 393 386
1277 4 2 1 1 464 23 24 286
1278 4 2 1 1 85 435 118 106
1279 4 2 1 1 296 300 309 406
1280 4 2 1 1 368 404 371 423
1281 4 2 1 1 371 95 83 113
1282 4 2 1 1 395 365 349 389
1283 4 2 1 1 327 336 323 363
1284 4 2 1 1 120 100 81 365
1285 4 2 1 1 133 360 409 186
1286 4 2 1 1 160 162 141 400
1287 4 2 1 1 130 127 77 387
1288 4 2 1 1 422 286 24 257
1289 4 2 1 1 96 113 79 371
1290 4 2 1 1 389 395 351 387
1291 4 2 1 1 354 377 367 408
1292 4 2 1 1 229 366 198 202
1293 4 2 1 1 399 408 354 409
1294 4 2 1 1 241 198 207 419
1295 4 2 1 1 455 231 394 365
1296 4 2 1 1 136 367 390 173
1297 4 2 1 1 457 318 425 420
1298 4 2 1 1 96 115 83 386
1299 4 2 1 1 84 362 103 418
1300 4 2 1 1 362 406 197 418
1301 4 2 1 1 223 190 202 383
1302 4 2 1 1 120 99 373 389
1303 4 2 1 1 360 399 382 409
1304 4 2 1 1 354 382 399 409
1305 4 2 1 1 117 115 373 411
1306 4 2 1 1 369 370 347 372
1307 4 2 1 1 136 367 173 154
1308 4 2 1 1 328 322 339 388
1309 4 2 1 1 245 377 275 401
1310 4 2 1 1 199 230 357 406
1311 4 2 1 1 137 390 358 398
1312 4 2 1 1 199 204 234 413
1313 4 2 1 1 159 447 413 420
1314 4 2 1 1 47 474 454 333
1315 4 2 1 1 47 474 333 7
1316 4 2 1 1 82 378 94 412
1317 4 2 1 1 281 379 245 422
1318 4 2 1 1 279 391 289 417
1319 4 2 1 1 141 428 174 407
1320 4 2 1 1 354 382 358 395
1321 4 2 1 1 133 360 186 170
1322 4 2 1 1 464 85 375 104
1323 4 2 1 1 230 362 406 237
1324 4 2 1 1 464 462 106 22
1325 4 2 1 1 84 397 362 418
1326 4 2 1 1 153 358 137 390
1327 4 2 1 1 359 289 259 252
1328 4 2 1 1 254 367 284 408
1329 4 2 1 1 112 79 129 378
1330 4 2 1 1 323 363 388 405
1331 4 2 1 1 373 116 386 78
1332 4 2 1 1 334 324 366 396
1333 4 2 1 1 120 365 81 389
1334 4 2 1 1 90 387 97 389
1335 4 2 1 1 428 299 400 307
1336 4 2 1 1 282 372 260 400
1337 4 2 1 1 96 83 113 371
1338 4 2 1 1 403 194 224 412
1339 4 2 1 1 134 390 176 421
1340 4 2 1 1 278 404 368 423
1341 4 2 1 1 320 310 297 370
1342 4 2 1 1 235 196 236 361
1343 4 2 1 1 249 363 405 423
1344 4 2 1 1 353 376 364 421
1345 4 2 1 1 278 417 423 368
1346 4 2 1 1 192 380 200 398
1347 4 2 1 1 464 85 104 106
1348 4 2 1 1 249 283 363 423
1349 4 2 1 1 311 466 430 64
1350 4 2 1 1 186 141 170 360
1351 4 2 1 1 444 98 26 438
1352 4 2 1 1 289 287 252 359
1353 4 2 1 1 141 170 360 414
1354 4 2 1 1 436 246 265 255
1355 4 2 1 1 350 386 373 352
1356 4 2 1 1 299 372 407 400
1357 4 2 1 1 111 114 77 387
1358 4 2 1 1 376 139 151 169
1359 4 2 1 1 278 417 368 242
1360 4 2 1 1 192 200 380 222
1361 4 2 1 1 97 127 80 389
1362 4 2 1 1 184 416 376 135
1363 4 2 1 1 352 412 393 415
1364 4 2 1 1 464 435 402 85
1365 4 2 1 1 214 364 410 195
1366 4 2 1 1 368 247 278 261
1367 4 2 1 1 224 236 383 412
1368 4 2 1 1 402 290 286 375
1369 4 2 1 1 230 362 237 189
1370 4 2 1 1 290 281 375 379
1371 4 2 1 1 413 226 230 204
1372 4 2 1 1 228 200 355 410
1373 4 2 1 1 186 160 141 360
1374 4 2 1 1 201 231 365 415
1375 4 2 1 1 464 286 375 402
1376 4 2 1 1 319 372 369 407
1377 4 2 1 1 147 360 160 186
1378 4 2 1 1 355 403 228 410
1379 4 2 1 1 463 317 301 402
1380 4 2 1 1 334 366 324 419
1381 4 2 1 1 238 456 430 63
1382 4 2 1 1 458 264 254 385
1383 4 2 1 1 115 78 373 386
1384 4 2 1 1 125 450 439 412
1385 4 2 1 1 279 368 248 391
1386 4 2 1 1 207 236 196 419
1387 4 2 1 1 449 289 359 287
1388 4 2 1 1 164 421 144 410
1389 4 2 1 1 432 207 196 419
1390 4 2 1 1 466 304 6 64
1391 4 2 1 1 91 127 130 375
1392 4 2 1 1 442 144 156 398
1393 4 2 1 1 454 329 325 396
1394 4 2 1 1 93 370 114 397
1395 4 2 1 1 118 453 370 93
1396 4 2 1 1 254 274 52 458
1397 4 2 1 1 224 223 209 403
1398 4 2 1 1 311 466 64 304
1399 4 2 1 1 195 223 202 364
1400 4 2 1 1 184 454 359 396
1401 4 2 1 1 283 259 249 363
1402 4 2 1 1 288 399 251 400
1403 4 2 1 1 148 454 396 46
1404 4 2 1 1 103 111 90 362
1405 4 2 1 1 231 222 208 380
1406 4 2 1 1 463 260 372 400
1407 4 2 1 1 284 384 244 377
1408 4 2 1 1 443 100 455 13
1409 4 2 1 1 432 207 419 66
1410 4 2 1 1 416 143 396 366
1411 4 2 1 1 112 94 82 378
1412 4 2 1 1 435 297 402 370
1413 4 2 1 1 435 297 370 314
1414 4 2 1 1 463 292 400 426
1415 4 2 1 1 250 427 260 402
1416 4 2 1 1 463 372 260 402
1417 4 2 1 1 197 362 237 406
1418 4 2 1 1 116 88 120 393
1419 4 2 1 1 125 82 94 412
1420 4 2 1 1 373 386 350 411
1421 4 2 1 1 467 426 72 307
1422 4 2 1 1 242 368 279 417
1423 4 2 1 1 463 317 70 301
1424 4 2 1 1 385 182 163 441
1425 4 2 1 1 307 8 72 467
1426 4 2 1 1 297 372 310 301
1427 4 2 1 1 141 149 170 414
1428 4 2 1 1 108 393 82 412
1429 4 2 1 1 402 286 290 250
1430 4 2 1 1 372 400 360 407
1431 4 2 1 1 321 345 334 374
1432 4 2 1 1 467 426 307 400
1433 4 2 1 1 463 316 71 426
1434 4 2 1 1 84 111 362 397
1435 4 2 1 1 281 262 245 379
1436 4 2 1 1 445 271 400 288
1437 4 2 1 1 67 419 429 241
1438 4 2 1 1 416 138 152 168
1439 4 2 1 1 153 146 137 413
1440 4 2 1 1 143 461 165 178
1441 4 2 1 1 91 127 375 422
1442 4 2 1 1 138 150 168 416
1443 4 2 1 1 464 270 286 402
1444 4 2 1 1 160 445 162 400
1445 4 2 1 1 125 108 82 412
1446 4 2 1 1 198 429 241 219
1447 4 2 1 1 378 386 352 412
1448 4 2 1 1 460 388 124 405
1449 4 2 1 1 276 248 261 384
1450 4 2 1 1 356 379 375 422
1451 4 2 1 1 435 306 462 402
1452 4 2 1 1 169 139 152 376
1453 4 2 1 1 261 277 276 384
1454 4 2 1 1 435 306 34 462
1455 4 2 1 1 337 326 324 419
1456 4 2 1 1 34 4 462 306
1457 4 2 1 1 464 435 85 106
1458 4 2 1 1 70 463 301 71
1459 4 2 1 1 299 303 312 407
1460 4 2 1 1 386 393 352 412
1461 4 2 1 1 244 377 384 392
1462 4 2 1 1 229 207 198 419
1463 4 2 1 1 147 436 160 399
1464 4 2 1 1 254 274 458 408
1465 4 2 1 1 250 260 290 402
1466 4 2 1 1 463 316 426 400
1467 4 2 1 1 385 182 441 391
1468 4 2 1 1 459 433 61 305
1469 4 2 1 1 251 399 282 400
1470 4 2 1 1 227 210 194 393
1471 4 2 1 1 2 459 61 305
1472 4 2 1 1 416 143 366 150
1473 4 2 1 1 103 84 111 362
1474 4 2 1 1 365 389 351 394
1475 4 2 1 1 128 79 113 371
1476 4 2 1 1 384 254 248 385
1477 4 2 1 1 136 367 154 408
1478 4 2 1 1 172 134 176 421
1479 4 2 1 1 281 257 375 422
1480 4 2 1 1 115 78 117 373
1481 4 2 1 1 103 362 446 418
1482 4 2 1 1 90 97 81 389
1483 4 2 1 1 404 107 411 83
1484 4 2 1 1 92 122 129 388
1485 4 2 1 1 201 227 231 415
1486 4 2 1 1 367 384 353 385
1487 4 2 1 1 459 433 305 418
1488 4 2 1 1 323 388 340 405
1489 4 2 1 1 233 362 197 418
1490 4 2 1 1 261 248 279 368
1491 4 2 1 1 455 231 365 201
1492 4 2 1 1 112 96 79 378
1493 4 2 1 1 335 346 321 374
1494 4 2 1 1 463 317 402 427
1495 4 2 1 1 463 299 400 372
1496 4 2 1 1 222 191 200 380
1497 4 2 1 1 224 205 236 412
1498 4 2 1 1 125 450 412 94
1499 4 2 1 1 247 404 263 411
1500 4 2 1 1 403 410 355 421
1501 4 2 1 1 364 410 403 421
1502 4 2 1 1 207 229 236 419
1503 4 2 1 1 461 330 468 44
1504 4 2 1 1 328 346 322 388
1505 4 2 1 1 457 298 420 407
1506 4 2 1 1 463 316 301 71
1507 4 2 1 1 104 130 85 375
1508 4 2 1 1 93 114 111 397
1509 4 2 1 1 137 176 390 398
1510 4 2 1 1 329 345 325 396
1511 4 2 1 1 291 451 259 74
1512 4 2 1 1 42 470 448 232
1513 4 2 1 1 440 84 418 397
1514 4 2 1 1 157 147 183 409
1515 4 2 1 1 194 393 215 412
1516 4 2 1 1 82 96 378 386
1517 4 2 1 1 290 243 281 379
1518 4 2 1 1 385 182 391 139
1519 4 2 1 1 477 163 53 441
1520 4 2 1 1 230 362 189 381
1521 4 2 1 1 5 330 44 468
1522 4 2 1 1 381 382 358 413
1523 4 2 1 1 184 169 135 376
1524 4 2 1 1 203 351 394 193
1525 4 2 1 1 439 210 443 393
1526 4 2 1 1 335 374 334 419
1527 4 2 1 1 203 351 193 225
1528 4 2 1 1 176 156 144 398
1529 4 2 1 1 253 275 392 401
1530 4 2 1 1 138 410 364 421
1531 4 2 1 1 279 256 289 391
1532 4 2 1 1 314 302 297 370
1533 4 2 1 1 272 287 359 252
1534 4 2 1 1 299 372 301 319
1535 4 2 1 1 153 137 155 390
1536 4 2 1 1 144 164 442 188
1537 4 2 1 1 394 203 213 11
1538 4 2 1 1 340 388 460 405
1539 4 2 1 1 453 370 93 397
1540 4 2 1 1 78 120 99 373
1541 4 2 1 1 149 175 140 420
1542 4 2 1 1 424 472 405 473
1543 4 2 1 1 440 84 397 119
1544 4 2 1 1 352 393 365 415
1545 4 2 1 1 334 335 321 374
1546 4 2 1 1 319 308 369 295
1547 4 2 1 1 156 434 475 398
1548 4 2 1 1 297 372 301 402
1549 4 2 1 1 341 419 66 432
1550 4 2 1 1 457 298 407 303
1551 4 2 1 1 236 229 190 383
1552 4 2 1 1 178 185 143 396
1553 4 2 1 1 352 383 378 412
1554 4 2 1 1 472 249 405 423
1555 4 2 1 1 309 295 320 369
1556 4 2 1 1 117 89 115 411
1557 4 2 1 1 199 238 206 406
1558 4 2 1 1 105 84 103 418
1559 4 2 1 1 444 401 438 253
1560 4 2 1 1 228 211 200 410
1561 4 2 1 1 302 320 370 397
1562 4 2 1 1 210 227 201 393
1563 4 2 1 1 237 197 233 362
1564 4 2 1 1 11 102 394 90
1565 4 2 1 1 385 182 139 163
1566 4 2 1 1 404 263 411 444
1567 4 2 1 1 457 175 425 58
1568 4 2 1 1 323 328 340 388
1569 4 2 1 1 133 360 170 414
1570 4 2 1 1 261 242 278 368
1571 4 2 1 1 461 337 330 324
1572 4 2 1 1 360 409 382 414
1573 4 2 1 1 320 297 302 370
1574 4 2 1 1 133 167 413 414
1575 4 2 1 1 357 382 381 413
1576 4 2 1 1 194 215 393 210
1577 4 2 1 1 350 392 373 411
1578 4 2 1 1 424 472 473 269
1579 4 2 1 1 463 292 426 71
1580 4 2 1 1 146 434 37 158
1581 4 2 1 1 262 284 275 377
1582 4 2 1 1 148 454 46 180
1583 4 2 1 1 308 295 309 369
1584 4 2 1 1 472 110 405 473
1585 4 2 1 1 406 197 433 206
1586 4 2 1 1 184 416 135 185
1587 4 2 1 1 456 311 300 406
1588 4 2 1 1 427 260 70 293
1589 4 2 1 1 290 281 257 375
1590 4 2 1 1 174 457 59 149
1591 4 2 1 1 244 254 276 384
1592 4 2 1 1 324 329 344 396
1593 4 2 1 1 116 386 82 393
1594 4 2 1 1 288 436 399 445
1595 4 2 1 1 82 96 112 378
1596 4 2 1 1 67 419 241 207
1597 4 2 1 1 238 456 63 206
1598 4 2 1 1 407 414 357 420
1599 4 2 1 1 242 261 279 368
1600 4 2 1 1 475 200 442 398
1601 4 2 1 1 164 421 410 138
1602 4 2 1 1 275 377 244 392
1603 4 2 1 1 90 111 77 387
1604 4 2 1 1 101 401 80 422
1605 4 2 1 1 93 85 114 370
1606 4 2 1 1 173 155 134 390
1607 4 2 1 1 244 384 277 392
1608 4 2 1 1 329 334 345 396
1609 4 2 1 1 268 449 391 441
1610 4 2 1 1 30 3 473 269
1611 4 2 1 1 208 226 189 381
1612 4 2 1 1 379 280 282 243
1613 4 2 1 1 105 440 418 459
1614 4 2 1 1 253 392 263 411
1615 4 2 1 1 91 375 104 422
1616 4 2 1 1 441 449 391 182
1617 4 2 1 1 301 372 463 402
1618 4 2 1 1 382 413 357 414
1619 4 2 1 1 52 187 458 154
1620 4 2 1 1 242 279 289 417
1621 4 2 1 1 118 85 93 370
1622 4 2 1 1 463 299 372 301
1623 4 2 1 1 465 273 438 401
1624 4 2 1 1 463 292 71 260
1625 4 2 1 1 443 88 100 132
1626 4 2 1 1 465 401 101 422
1627 4 2 1 1 444 26 98 131
1628 4 2 1 1 384 248 254 276
1629 4 2 1 1 194 209 227 415
1630 4 2 1 1 442 188 39 156
1631 4 2 1 1 145 163 187 385
1632 4 2 1 1 436 255 265 50
1633 4 2 1 1 209 403 228 415
1634 4 2 1 1 440 84 119 105
1635 4 2 1 1 477 163 187 53
1636 4 2 1 1 299 372 319 407
1637 4 2 1 1 291 451 74 424
1638 4 2 1 1 431 259 75 294
1639 4 2 1 1 432 207 66 240
1640 4 2 1 1 443 100 13 132
1641 4 2 1 1 247 267 263 404
1642 4 2 1 1 127 101 80 422
1643 4 2 1 1 146 153 133 413
1644 4 2 1 1 268 449 441 54
1645 4 2 1 1 231 191 380 415
1646 4 2 1 1 473 472 30 269
1647 4 2 1 1 206 62 239 433
1648 4 2 1 1 328 323 346 388
1649 4 2 1 1 146 434 158 137
1650 4 2 1 1 472 110 473 30
1651 4 2 1 1 118 453 93 33
1652 4 2 1 1 250 286 270 402
1653 4 2 1 1 248 385 268 391
1654 4 2 1 1 477 163 441 385
1655 4 2 1 1 139 163 171 385
1656 4 2 1 1 463 317 427 70
1657 4 2 1 1 466 238 420 430
1658 4 2 1 1 214 364 195 202
1659 4 2 1 1 394 446 11 90
1660 4 2 1 1 334 329 324 396
1661 4 2 1 1 446 217 418 233
1662 4 2 1 1 428 299 307 312
1663 4 2 1 1 145 171 163 385
1664 4 2 1 1 457 175 58 149
1665 4 2 1 1 152 135 169 376
1666 4 2 1 1 466 234 447 420
1667 4 2 1 1 185 178 148 396
1668 4 2 1 1 452 17 476 216
1669 4 2 1 1 422 286 257 375
1670 4 2 1 1 105 103 446 418
1671 4 2 1 1 444 89 107 131
1672 4 2 1 1 155 137 176 390
1673 4 2 1 1 133 360 414 409
1674 4 2 1 1 99 117 78 373
1675 4 2 1 1 280 255 246 399
1676 4 2 1 1 80 98 117 401
1677 4 2 1 1 388 122 19 92
1678 4 2 1 1 451 342 431 75
1679 4 2 1 1 124 388 128 405
1680 4 2 1 1 238 456 206 406
1681 4 2 1 1 249 424 291 269
1682 4 2 1 1 193 203 213 394
1683 4 2 1 1 174 457 149 407
1684 4 2 1 1 124 92 128 388
1685 4 2 1 1 50 147 157 436
1686 4 2 1 1 236 190 224 383
1687 4 2 1 1 137 434 158 156
1688 4 2 1 1 77 97 90 387
1689 4 2 1 1 424 472 269 249
1690 4 2 1 1 97 80 99 389
1691 4 2 1 1 271 288 251 400
1692 4 2 1 1 452 17 216 1
1693 4 2 1 1 341 66 419 326
1694 4 2 1 1 470 165 366 468
1695 4 2 1 1 452 216 476 361
1696 4 2 1 1 190 223 224 383
1697 4 2 1 1 216 235 361 196
1698 4 2 1 1 456 300 315 406
1699 4 2 1 1 230 189 226 381
1700 4 2 1 1 472 249 423 285
1701 4 2 1 1 448 181 364 150
1702 4 2 1 1 11 446 394 203
1703 4 2 1 1 37 413 204 212
1704 4 2 1 1 465 98 401 438
1705 4 2 1 1 326 334 324 419
1706 4 2 1 1 231 193 221 394
1707 4 2 1 1 270 427 402 462
1708 4 2 1 1 147 360 186 409
1709 4 2 1 1 326 335 334 419
1710 4 2 1 1 159 161 447 420
1711 4 2 1 1 118 453 33 435
1712 4 2 1 1 37 413 159 447
1713 4 2 1 1 310 319 301 372
1714 4 2 1 1 436 445 160 399
1715 4 2 1 1 434 192 413 212
1716 4 2 1 1 388 124 92 20
1717 4 2 1 1 253 245 275 401
1718 4 2 1 1 280 262 243 379
1719 4 2 1 1 271 426 467 400
1720 4 2 1 1 311 466 304 420
1721 4 2 1 1 436 445 50 160
1722 4 2 1 1 443 88 132 108
1723 4 2 1 1 69 462 4 306
1724 4 2 1 1 243 262 281 379
1725 4 2 1 1 444 98 438 401
1726 4 2 1 1 439 14 125 108
1727 4 2 1 1 77 127 97 387
1728 4 2 1 1 442 475 398 156
1729 4 2 1 1 475 200 398 220
1730 4 2 1 1 105 440 459 31
1731 4 2 1 1 446 103 11 90
1732 4 2 1 1 126 107 27 404
1733 4 2 1 1 17 216 235 469
1734 4 2 1 1 341 322 326 419
1735 4 2 1 1 388 124 20 460
1736 4 2 1 1 463 299 301 316
1737 4 2 1 1 439 210 393 215
1738 4 2 1 1 462 427 306 69
1739 4 2 1 1 32 119 440 397
1740 4 2 1 1 277 244 276 384
1741 4 2 1 1 129 371 128 388
1742 4 2 1 1 301 317 297 402
1743 4 2 1 1 148 454 180 184
1744 4 2 1 1 37 159 413 146
1745 4 2 1 1 203 237 233 362
1746 4 2 1 1 251 282 260 400
1747 4 2 1 1 39 38 220 475
1748 4 2 1 1 448 181 150 41
1749 4 2 1 1 137 156 176 398
1750 4 2 1 1 396 178 148 45
1751 4 2 1 1 404 263 444 27
1752 4 2 1 1 435 297 314 306
1753 4 2 1 1 137 434 156 398
1754 4 2 1 1 472 86 110 123
1755 4 2 1 1 184 416 185 396
1756 4 2 1 1 322 335 326 419
1757 4 2 1 1 51 408 154 458
1758 4 2 1 1 475 434 38 220
1759 4 2 1 1 441 163 53 182
1760 4 2 1 1 102 81 100 394
1761 4 2 1 1 245 465 401 273
1762 4 2 1 1 199 206 230 406
1763 4 2 1 1 195 228 403 410
1764 4 2 1 1 279 268 256 391
1765 4 2 1 1 164 421 138 172
1766 4 2 1 1 282 251 255 399
1767 4 2 1 1 120 81 99 389
1768 4 2 1 1 404 95 28 126
1769 4 2 1 1 231 191 222 380
1770 4 2 1 1 466 199 420 238
1771 4 2 1 1 24 104 422 91
1772 4 2 1 1 183 133 153 409
1773 4 2 1 1 197 237 206 406
1774 4 2 1 1 244 275 284 377
1775 4 2 1 1 250 427 402 270
1776 4 2 1 1 159 140 161 420
1777 4 2 1 1 279 248 268 391
1778 4 2 1 1 32 93 119 397
1779 4 2 1 1 408 157 51 154
1780 4 2 1 1 396 178 45 461
1781 4 2 1 1 82 116 96 386
1782 4 2 1 1 254 284 274 408
1783 4 2 1 1 437 211 410 442
1784 4 2 1 1 98 80 101 401
1785 4 2 1 1 404 83 95 126
1786 4 2 1 1 475 200 220 39
1787 4 2 1 1 81 102 90 394
1788 4 2 1 1 263 253 277 392
1789 4 2 1 1 466 199 238 218
1790 4 2 1 1 270 427 462 69
1791 4 2 1 1 436 50 147 160
1792 4 2 1 1 32 313 302 397
1793 4 2 1 1 290 257 286 375
1794 4 2 1 1 164 421 172 144
1795 4 2 1 1 442 164 40 188
1796 4 2 1 1 191 209 228 415
1797 4 2 1 1 134 155 176 390
1798 4 2 1 1 245 465 273 266
1799 4 2 1 1 146 133 167 413
1800 4 2 1 1 443 132 14 108
1801 4 2 1 1 254 264 248 385
1802 4 2 1 1 246 274 284 408
1803 4 2 1 1 462 427 402 306
1804 4 2 1 1 235 16 17 469
1805 4 2 1 1 26 253 444 438
1806 4 2 1 1 32 453 93 397
1807 4 2 1 1 288 255 251 399
1808 4 2 1 1 271 426 400 292
1809 4 2 1 1 131 444 27 107
1810 4 2 1 1 456 311 63 300
1811 4 2 1 1 437 181 164 410
1812 4 2 1 1 253 275 244 392
1813 4 2 1 1 251 260 292 400
1814 4 2 1 1 437 211 442 40
1815 4 2 1 1 154 157 136 408
1816 4 2 1 1 84 93 111 397
1817 4 2 1 1 78 115 96 386
1818 4 2 1 1 475 434 220 398
1819 4 2 1 1 125 450 94 15
1820 4 2 1 1 458 477 385 187
1821 4 2 1 1 449 182 54 151
1822 4 2 1 1 104 91 130 375
1823 4 2 1 1 162 428 60 174
1824 4 2 1 1 278 417 242 283
1825 4 2 1 1 44 461 344 45
1826 4 2 1 1 440 296 397 418
1827 4 2 1 1 303 299 319 407
1828 4 2 1 1 298 303 308 407
1829 4 2 1 1 465 98 438 25
1830 4 2 1 1 86 124 128 405
1831 4 2 1 1 442 475 156 39
1832 4 2 1 1 182 139 151 391
1833 4 2 1 1 108 116 82 393
1834 4 2 1 1 444 89 131 98
1835 4 2 1 1 161 425 466 420
1836 4 2 1 1 51 408 458 274
1837 4 2 1 1 172 152 134 421
1838 4 2 1 1 177 165 143 366
1839 4 2 1 1 435 34 118 106
1840 4 2 1 1 465 98 25 101
1841 4 2 1 1 264 268 248 385
1842 4 2 1 1 213 221 193 394
1843 4 2 1 1 273 245 253 401
1844 4 2 1 1 105 440 31 119
1845 4 2 1 1 200 220 192 398
1846 4 2 1 1 237 230 206 406
1847 4 2 1 1 227 191 231 415
1848 4 2 1 1 244 277 253 392
1849 4 2 1 1 40 164 437 181
1850 4 2 1 1 282 255 280 399
1851 4 2 1 1 477 163 385 187
1852 4 2 1 1 470 165 468 43
1853 4 2 1 1 70 260 463 71
1854 4 2 1 1 259 74 451 75
1855 4 2 1 1 302 296 320 397
1856 4 2 1 1 58 59 457 149
1857 4 2 1 1 198 232 202 366
1858 4 2 1 1 281 245 257 422
1859 4 2 1 1 150 185 168 416
1860 4 2 1 1 164 181 138 410
1861 4 2 1 1 116 78 96 386
1862 4 2 1 1 464 435 106 462
1863 4 2 1 1 445 271 288 48
1864 4 2 1 1 441 449 182 54
1865 4 2 1 1 428 467 400 162
1866 4 2 1 1 104 23 24 464
1867 4 2 1 1 50 445 49 160
1868 4 2 1 1 266 24 257 422
1869 4 2 1 1 161 425 420 175
1870 4 2 1 1 195 211 228 410
1871 4 2 1 1 272 431 76 294
1872 4 2 1 1 272 56 471 287
1873 4 2 1 1 447 466 420 161
1874 4 2 1 1 446 217 233 9
1875 4 2 1 1 465 101 24 422
1876 4 2 1 1 474 56 272 7
1877 4 2 1 1 103 11 10 446
1878 4 2 1 1 37 36 447 159
1879 4 2 1 1 167 159 146 413
1880 4 2 1 1 108 88 116 393
1881 4 2 1 1 217 433 459 418
1882 4 2 1 1 110 460 405 473
1883 4 2 1 1 206 62 456 63
1884 4 2 1 1 214 448 41 437
1885 4 2 1 1 270 427 69 293
1886 4 2 1 1 271 426 292 72
1887 4 2 1 1 448 181 41 437
1888 4 2 1 1 161 425 175 57
1889 4 2 1 1 233 197 217 418
1890 4 2 1 1 443 88 108 393
1891 4 2 1 1 115 107 83 411
1892 4 2 1 1 125 450 15 439
1893 4 2 1 1 269 424 291 73
1894 4 2 1 1 278 417 283 423
1895 4 2 1 1 422 464 375 104
1896 4 2 1 1 278 258 404 423
1897 4 2 1 1 461 330 44 344
1898 4 2 1 1 259 283 289 417
1899 4 2 1 1 29 28 423 95
1900 4 2 1 1 449 54 55 151
1901 4 2 1 1 15 450 94 16
1902 4 2 1 1 41 42 150 448
1903 4 2 1 1 435 306 314 34
1904 4 2 1 1 394 100 102 12
1905 4 2 1 1 433 197 418 217
1906 4 2 1 1 128 92 129 388
1907 4 2 1 1 302 313 296 397
1908 4 2 1 1 453 33 32 93
1909 4 2 1 1 394 100 12 455
1910 4 2 1 1 466 238 430 64
1911 4 2 1 1 198 429 219 366
1912 4 2 1 1 101 127 91 422
1913 4 2 1 1 172 138 152 421
1914 4 2 1 1 424 323 363 343
1915 4 2 1 1 156 434 158 38
1916 4 2 1 1 278 267 247 404
1917 4 2 1 1 194 215 224 412
1918 4 2 1 1 246 265 274 408
1919 4 2 1 1 170 149 167 414
1920 4 2 1 1 104 106 22 464
1921 4 2 1 1 162 445 160 48
1922 4 2 1 1 250 427 270 293
1923 4 2 1 1 91 24 101 422
1924 4 2 1 1 203 225 237 362
1925 4 2 1 1 170 167 133 414
1926 4 2 1 1 217 433 239 61
1927 4 2 1 1 288 436 445 50
1928 4 2 1 1 110 460 473 21
1929 4 2 1 1 161 425 57 466
1930 4 2 1 1 452 18 1 331
1931 4 2 1 1 35 447 159 161
1932 4 2 1 1 103 9 105 446
1933 4 2 1 1 466 199 218 234
1934 4 2 1 1 466 6 35 218
1935 4 2 1 1 307 316 299 400
1936 4 2 1 1 119 93 84 397
1937 4 2 1 1 185 148 184 396
1938 4 2 1 1 466 234 218 35
1939 4 2 1 1 452 17 1 109
1940 4 2 1 1 445 271 467 400
1941 4 2 1 1 177 150 448 366
1942 4 2 1 1 474 56 7 166
1943 4 2 1 1 317 306 297 402
1944 4 2 1 1 440 84 105 418
1945 4 2 1 1 445 271 48 467
1946 4 2 1 1 252 431 294 259
1947 4 2 1 1 466 238 64 218
1948 4 2 1 1 48 8 467 271
1949 4 2 1 1 461 468 165 44
1950 4 2 1 1 195 228 209 403
1951 4 2 1 1 216 452 1 65
1952 4 2 1 1 2 217 61 459
1953 4 2 1 1 34 4 106 462
1954 4 2 1 1 69 270 4 462
1955 4 2 1 1 73 473 3 269
1956 4 2 1 1 217 433 61 459
1957 4 2 1 1 250 427 293 260
1958 4 2 1 1 404 423 28 95
1959 4 2 1 1 459 31 2 105
1960 4 2 1 1 205 15 450 439
1961 4 2 1 1 449 182 151 391
1962 4 2 1 1 304 298 311 420
1963 4 2 1 1 183 186 133 409
1964 4 2 1 1 225 189 237 362
1965 4 2 1 1 107 115 89 411
1966 4 2 1 1 440 296 418 305
1967 4 2 1 1 467 8 72 271
1968 4 2 1 1 76 272 7 474
1969 4 2 1 1 162 467 8 60
1970 4 2 1 1 166 454 180 47
1971 4 2 1 1 271 426 72 467
1972 4 2 1 1 81 97 99 389
1973 4 2 1 1 109 452 122 18
1974 4 2 1 1 269 424 73 473
1975 4 2 1 1 319 308 303 407
1976 4 2 1 1 205 224 215 412
1977 4 2 1 1 219 68 5 468
1978 4 2 1 1 218 466 6 64
1979 4 2 1 1 6 161 57 466
1980 4 2 1 1 46 148 45 396
1981 4 2 1 1 110 460 21 124
1982 4 2 1 1 20 19 92 388
1983 4 2 1 1 473 21 3 110
1984 4 2 1 1 109 18 1 452
1985 4 2 1 1 165 461 44 178
1986 4 2 1 1 47 474 7 166
1987 4 2 1 1 36 35 447 159
1988 4 2 1 1 103 10 9 446
1989 4 2 1 1 94 16 450 121
1990 4 2 1 1 95 423 29 123
1991 4 2 1 1 42 177 150 448
1992 4 2 1 1 151 179 55 449
1993 4 2 1 1 257 245 266 422
1994 4 2 1 1 104 22 23 464
1995 4 2 1 1 445 49 160 48
1996 4 2 1 1 476 17 109 121
1997 4 2 1 1 470 165 43 177
1998 4 2 1 1 472 110 30 123
1999 4 2 1 1 474 56 166 179
2000 4 2 1 1 278 283 258 423
2001 4 2 1 1 5 468 44 165
2002 4 2 1 1 249 258 283 423
2003 4 2 1 1 143 461 178 396
2004 4 2 1 1 446 217 459 418
2005 4 2 1 1 446 217 9 459
2006 4 2 1 1 110 460 124 405
2007 4 2 1 1 251 292 271 400
2008 4 2 1 1 209 223 195 403
2009 4 2 1 1 191 227 209 415
2010 4 2 1 1 340 332 323 405
2011 4 2 1 1 156 434 38 475
2012 4 2 1 1 278 258 267 404
2013 4 2 1 1 232 198 219 366
2014 4 2 1 1 100 13 12 455
2015 4 2 1 1 185 135 168 416
2016 4 2 1 1 177 143 150 366
2017 4 2 1 1 30 3 110 473
2018 4 2 1 1 452 17 109 476
2019 4 2 1 1 424 472 249 405
2020 4 2 1 1 468 5 43 165
2021 4 2 1 1 462 22 4 106
2022 4 2 1 1 48 8 162 467
2023 4 2 1 1 17 476 469 121
2024 4 2 1 1 470 165 177 366
2025 4 2 1 1 474 56 179 471
2026 4 2 1 1 472 86 123 423
2027 4 2 1 1 132 14 13 443
2028 4 2 1 1 2 9 459 105
2029 4 2 1 1 161 6 35 466
2030 4 2 1 1 110 124 86 405
2031 4 2 1 1 175 161 140 420
2032 4 2 1 1 183 147 186 409
2033 4 2 1 1 211 195 214 410
2034 4 2 1 1 39 38 475 156
2035 4 2 1 1 258 249 285 423
2036 4 2 1 1 289 283 242 417
2037 4 2 1 1 98 25 26 438
2038 4 2 1 1 298 304 318 420
2039 4 2 1 1 40 39 442 188
2040 4 2 1 1 458 51 52 154
2041 4 2 1 1 433 197 217 239
2042 4 2 1 1 465 25 24 101
2043 4 2 1 1 296 433 418 305
2044 4 2 1 1 50 157 51 436
2045 4 2 1 1 27 26 444 131
2046 4 2 1 1 42 43 177 470
2047 4 2 1 1 469 16 17 121
2048 4 2 1 1 55 179 56 471
2049 4 2 1 1 472 30 29 123
2050 4 2 1 1 441 54 182 53
2051 4 2 1 1 125 15 14 439
2052 4 2 1 1 102 12 11 394
2053 4 2 1 1 174 428 60 59
2054 4 2 1 1 27 28 126 404
2055 4 2 1 1 119 31 32 440
2056 4 2 1 1 294 75 431 76
2057 4 2 1 1 118 33 34 435
2058 4 2 1 1 53 187 477 52
2059 4 2 1 1 293 70 427 69
2060 4 2 1 1 72 292 71 426
2061 4 2 1 1 73 291 74 424
2062 4 2 1 1 430 238 63 64
2063 4 2 1 1 67 241 429 68
2064 4 2 1 1 434 38 37 158
2065 4 2 1 1 175 425 58 57
2066 4 2 1 1 460 20 21 124
2067 4 2 1 1 239 62 61 433
2068 4 2 1 1 65 66 240 432
2069 4 2 1 1 46 180 454 47
2070 4 2 1 1 437 41 40 181
2071 4 2 1 1 18 19 452 122
2072 4 2 1 1 44 178 461 45
2073 4 2 1 1 375 114 85 370
2074 4 2 1 1 375 85 114 130
2075 4 2 1 1 393 373 352 365
2076 4 2 1 1 393 352 373 386
2077 4 2 1 1 2 9 217 459
2078 4 2 1 1 464 270 462 22
2079 4 2 1 1 415 349 355 380
2080 4 2 1 1 415 355 349 352
2081 4 2 1 1 409 136 153 183
2082 4 2 1 1 409 153 136 354
2083 4 2 1 1 409 136 157 408
2084 4 2 1 1 409 157 136 183
2085 4 2 1 1 395 381 347 382
2086 4 2 1 1 395 362 347 381
2087 4 2 1 1 423 128 86 95
2088 4 2 1 1 423 128 95 371
2089 4 2 1 1 396 461 45 344
2090 4 2 1 1 353 355 352 349
2091 4 2 1 1 353 355 349 390
2092 4 2 1 1 353 350 349 352
2093 4 2 1 1 353 350 352 368
2094 4 2 1 1 353 350 368 384
2095 4 2 1 1 411 98 117 89
2096 4 2 1 1 411 117 98 401
2097 4 2 1 1 216 432 452 65
2098 4 2 1 1 216 432 65 240
2099 4 2 1 1 406 309 308 300
2100 4 2 1 1 406 308 309 369
2101 4 2 1 1 167 420 149 140
2102 4 2 1 1 149 420 167 414
2103 4 2 1 1 369 296 320 309
2104 4 2 1 1 369 320 296 397
2105 4 2 1 1 373 116 78 120
2106 4 2 1 1 373 116 120 393
2107 4 2 1 1 270 22 4 462
2108 4 2 1 1 394 100 455 365
2109 4 2 1 1 247 392 263 277
2110 4 2 1 1 247 263 392 411
2111 4 2 1 1 416 152 135 168
2112 4 2 1 1 416 135 152 376
2113 4 2 1 1 389 127 387 97
2114 4 2 1 1 389 387 127 356
2115 4 2 1 1 406 315 296 300
2116 4 2 1 1 296 433 305 315
2117 4 2 1 1 412 386 82 378
2118 4 2 1 1 412 82 386 393
2119 4 2 1 1 450 469 235 361
2120 4 2 1 1 416 421 138 364
2121 4 2 1 1 412 108 439 125
2122 4 2 1 1 439 393 443 108
2123 4 2 1 1 436 409 408 399
2124 4 2 1 1 436 409 399 147
2125 4 2 1 1 436 409 147 157
2126 4 2 1 1 436 409 157 408
2127 4 2 1 1 364 448 150 366
2128 4 2 1 1 433 197 239 206
2129 4 2 1 1 404 83 126 107
2130 4 2 1 1 214 364 437 410
2131 4 2 1 1 461 324 344 396
2132 4 2 1 1 464 270 402 462
2133 4 2 1 1 416 143 150 185
2134 4 2 1 1 416 143 185 396
2135 4 2 1 1 451 343 424 363
2136 4 2 1 1 424 323 343 332
2137 4 2 1 1 451 343 363 327
2138 4 2 1 1 424 323 332 405
2139 4 2 1 1 424 73 332 343
2140 4 2 1 1 73 424 74 343
2141 4 2 1 1 364 448 366 202
2142 4 2 1 1 214 448 437 364
2143 4 2 1 1 332 21 3 473
2144 4 2 1 1 12 394 221 213
2145 4 2 1 1 394 12 11 213
2146 4 2 1 1 457 175 149 420
2147 4 2 1 1 457 298 303 318
2148 4 2 1 1 318 304 425 420
2149 4 2 1 1 425 318 57 304
2150 4 2 1 1 425 318 58 57
2151 4 2 1 1 463 292 260 400
2152 4 2 1 1 463 299 316 400
2153 4 2 1 1 307 426 316 400
2154 4 2 1 1 426 72 307 316
2155 4 2 1 1 72 426 71 316
2156 4 2 1 1 427 463 70 260
2157 4 2 1 1 427 463 260 402
2158 4 2 1 1 427 306 317 402
2159 4 2 1 1 69 317 427 306
2160 4 2 1 1 427 70 317 69
2161 4 2 1 1 428 299 312 407
2162 4 2 1 1 457 312 407 428
2163 4 2 1 1 428 467 162 60
2164 4 2 1 1 457 312 428 59
2165 4 2 1 1 428 307 60 312
2166 4 2 1 1 428 312 60 59
2167 4 2 1 1 457 318 58 425
2168 4 2 1 1 337 366 429 419
2169 4 2 1 1 219 429 241 68
2170 4 2 1 1 67 337 419 326
2171 4 2 1 1 340 20 21 460
2172 4 2 1 1 219 429 68 468
2173 4 2 1 1 67 429 337 68
2174 4 2 1 1 430 311 406 420
2175 4 2 1 1 456 311 406 430
2176 4 2 1 1 456 311 430 63
2177 4 2 1 1 466 199 234 420
2178 4 2 1 1 311 466 420 430
2179 4 2 1 1 311 430 63 64
2180 4 2 1 1 431 451 75 259
2181 4 2 1 1 431 333 342 359
2182 4 2 1 1 431 451 259 359
2183 4 2 1 1 76 342 431 333
2184 4 2 1 1 431 75 342 76
2185 4 2 1 1 432 207 240 196
2186 4 2 1 1 322 432 341 331
2187 4 2 1 1 419 66 67 326
2188 4 2 1 1 419 66 207 67
2189 4 2 1 1 65 66 432 341
2190 4 2 1 1 432 331 65 341
2191 4 2 1 1 24 464 422 104
2192 4 2 1 1 473 460 332 21
2193 4 2 1 1 422 286 375 464
2194 4 2 1 1 473 460 405 332
2195 4 2 1 1 296 433 315 406
2196 4 2 1 1 433 61 305 315
2197 4 2 1 1 433 62 61 315
2198 4 2 1 1 219 5 43 468
2199 4 2 1 1 434 192 212 220
2200 4 2 1 1 470 468 219 43
2201 4 2 1 1 434 192 220 398
2202 4 2 1 1 434 413 37 212
2203 4 2 1 1 38 212 220 434
2204 4 2 1 1 212 38 37 434
2205 4 2 1 1 435 297 306 402
2206 4 2 1 1 453 314 435 370
2207 4 2 1 1 435 462 34 106
2208 4 2 1 1 453 314 370 302
2209 4 2 1 1 464 435 462 402
2210 4 2 1 1 435 33 34 314
2211 4 2 1 1 470 468 366 219
2212 4 2 1 1 455 13 12 221
2213 4 2 1 1 328 19 388 339
2214 4 2 1 1 388 340 20 328
2215 4 2 1 1 20 19 388 328
2216 4 2 1 1 394 455 12 221
2217 4 2 1 1 408 265 51 436
2218 4 2 1 1 408 51 265 274
2219 4 2 1 1 50 436 51 265
2220 4 2 1 1 436 246 255 399
2221 4 2 1 1 458 264 52 254
2222 4 2 1 1 214 448 364 202
2223 4 2 1 1 214 448 202 41
2224 4 2 1 1 437 211 40 214
2225 4 2 1 1 437 211 214 410
2226 4 2 1 1 214 41 40 437
2227 4 2 1 1 438 273 253 401
2228 4 2 1 1 465 98 101 401
2229 4 2 1 1 273 26 438 253
2230 4 2 1 1 245 465 266 422
2231 4 2 1 1 438 25 26 273
2232 4 2 1 1 205 215 439 412
2233 4 2 1 1 108 14 443 439
2234 4 2 1 1 215 439 15 205
2235 4 2 1 1 439 15 14 215
2236 4 2 1 1 439 393 108 412
2237 4 2 1 1 404 263 27 267
2238 4 2 1 1 58 59 303 457
2239 4 2 1 1 457 312 303 407
2240 4 2 1 1 28 423 404 258
2241 4 2 1 1 258 404 28 267
2242 4 2 1 1 27 28 404 267
2243 4 2 1 1 440 296 305 313
2244 4 2 1 1 440 296 313 397
2245 4 2 1 1 32 440 313 397
2246 4 2 1 1 440 305 31 313
2247 4 2 1 1 440 31 32 313
2248 4 2 1 1 254 458 367 408
2249 4 2 1 1 458 477 187 52
2250 4 2 1 1 454 329 396 46
2251 4 2 1 1 396 344 45 329
2252 4 2 1 1 46 396 45 329
2253 4 2 1 1 441 268 385 391
2254 4 2 1 1 268 449 54 256
2255 4 2 1 1 53 441 268 264
2256 4 2 1 1 268 449 256 391
2257 4 2 1 1 268 54 441 53
2258 4 2 1 1 264 385 441 268
2259 4 2 1 1 200 442 410 211
2260 4 2 1 1 340 21 332 460
2261 4 2 1 1 442 437 40 164
2262 4 2 1 1 442 437 164 410
2263 4 2 1 1 39 211 442 200
2264 4 2 1 1 40 39 211 442
2265 4 2 1 1 201 443 210 393
2266 4 2 1 1 439 393 412 215
2267 4 2 1 1 439 210 215 14
2268 4 2 1 1 13 201 443 210
2269 4 2 1 1 443 14 13 210
2270 4 2 1 1 444 253 263 411
2271 4 2 1 1 444 404 27 107
2272 4 2 1 1 26 253 263 444
2273 4 2 1 1 444 404 107 411
2274 4 2 1 1 27 26 263 444
2275 4 2 1 1 399 445 400 288
2276 4 2 1 1 340 460 332 405
2277 4 2 1 1 445 467 48 162
2278 4 2 1 1 288 436 50 255
2279 4 2 1 1 50 288 49 445
2280 4 2 1 1 445 467 162 400
2281 4 2 1 1 288 436 255 399
2282 4 2 1 1 288 49 445 48
2283 4 2 1 1 254 367 458 385
2284 4 2 1 1 203 233 446 362
2285 4 2 1 1 446 362 233 418
2286 4 2 1 1 446 459 9 105
2287 4 2 1 1 446 11 10 233
2288 4 2 1 1 233 446 11 203
2289 4 2 1 1 446 459 105 418
2290 4 2 1 1 446 10 9 233
2291 4 2 1 1 447 234 413 420
2292 4 2 1 1 447 466 161 35
2293 4 2 1 1 234 413 37 447
2294 4 2 1 1 37 36 234 447
2295 4 2 1 1 466 234 35 447
2296 4 2 1 1 234 37 413 204
2297 4 2 1 1 36 35 234 447
2298 4 2 1 1 202 232 448 366
2299 4 2 1 1 448 202 41 232
2300 4 2 1 1 41 42 448 232
2301 4 2 1 1 177 448 470 366
2302 4 2 1 1 42 177 448 470
2303 4 2 1 1 406 433 456 206
2304 4 2 1 1 456 433 406 315
2305 4 2 1 1 29 28 285 423
2306 4 2 1 1 28 258 285 423
2307 4 2 1 1 423 472 29 123
2308 4 2 1 1 179 471 449 359
2309 4 2 1 1 449 289 287 256
2310 4 2 1 1 449 289 256 391
2311 4 2 1 1 287 54 55 449
2312 4 2 1 1 287 54 449 256
2313 4 2 1 1 449 179 55 471
2314 4 2 1 1 236 450 235 361
2315 4 2 1 1 450 121 469 361
2316 4 2 1 1 15 235 450 16
2317 4 2 1 1 235 15 450 205
2318 4 2 1 1 450 16 469 121
2319 4 2 1 1 55 471 56 287
2320 4 2 1 1 450 412 94 361
2321 4 2 1 1 439 210 14 443
2322 4 2 1 1 456 433 62 206
2323 4 2 1 1 474 431 359 333
2324 4 2 1 1 62 433 456 315
2325 4 2 1 1 47 474 166 454
2326 4 2 1 1 76 474 7 333
2327 4 2 1 1 359 451 363 327
2328 4 2 1 1 451 343 327 74
2329 4 2 1 1 388 460 20 340
2330 4 2 1 1 451 343 74 424
2331 4 2 1 1 451 74 327 75
2332 4 2 1 1 451 342 75 327
2333 4 2 1 1 451 342 327 359
2334 4 2 1 1 339 361 452 388
2335 4 2 1 1 452 339 331 361
2336 4 2 1 1 423 285 29 472
2337 4 2 1 1 388 452 339 19
2338 4 2 1 1 452 339 18 331
2339 4 2 1 1 18 19 339 452
2340 4 2 1 1 453 314 302 33
2341 4 2 1 1 453 314 33 435
2342 4 2 1 1 302 370 453 397
2343 4 2 1 1 32 302 453 397
2344 4 2 1 1 302 33 32 453
2345 4 2 1 1 454 329 46 338
2346 4 2 1 1 454 325 338 333
2347 4 2 1 1 285 30 29 472
2348 4 2 1 1 454 329 338 325
2349 4 2 1 1 47 454 338 333
2350 4 2 1 1 46 454 338 47
2351 4 2 1 1 443 455 393 201
2352 4 2 1 1 455 201 365 393
2353 4 2 1 1 443 455 201 13
2354 4 2 1 1 13 455 201 221
2355 4 2 1 1 455 231 201 221
2356 4 2 1 1 455 231 221 394
2357 4 2 1 1 472 285 30 269
2358 4 2 1 1 472 249 285 269
$EndElements
