$MeshFormat
2.2 0 8
$EndMeshFormat
$Nodes
192
1 0 0 0
2 0.004 0 0
3 0.004 0.002 0
4 0 0.002 0
5 0.0002499999999999998 0 0
6 0.0004999999999999996 0 0
7 0.0007499999999999997 0 0
8 0.0009999999999999996 0 0
9 0.00125 0 0
10 0.0015 0 0
11 0.00175 0 0
12 0.002 0 0
13 0.00225 0 0
14 0.0025 0 0
15 0.00275 0 0
16 0.003 0 0
17 0.00325 0 0
18 0.0035 0 0
19 0.00375 0 0
20 0.004 0.0002499999999999998 0
21 0.004 0.0004999999999999998 0
22 0.004 0.0007499999999999999 0
23 0.004 0.0009999999999999998 0
24 0.004 0.00125 0
25 0.004 0.0015 0
26 0.004 0.00175 0
27 0.00375 0.002 0
28 0.003500000000000001 0.002 0
29 0.00325 0.002 0
30 0.003 0.002 0
31 0.00275 0.002 0
32 0.0025 0.002 0
33 0.00225 0.002 0
34 0.002 0.002 0
35 0.00175 0.002 0
36 0.0015 0.002 0
37 0.00125 0.002 0
38 0.001 0.002 0
39 0.0007500000000000002 0.002 0
40 0.0005 0.002 0
41 0.0002500000000000002 0.002 0
42 0 0.00175 0
43 0 0.0015 0
44 0 0.00125 0
45 0 0.001 0
46 0 0.00075 0
47 0 0.0005 0
48 0 0.00025 0
49 0.002627678016271178 0.0009687389501740288 0
50 0.001371926301399345 0.0009597568428548744 0
51 0.003283653846153846 0.0007163461538461539 0
52 0.0007245100204808516 0.0007100391129659508 0
53 0.002018357604270956 0.001293636327680698 0
54 0.002065897845568555 0.0006682033968849498 0
55 0.0008204048441033556 0.001344150719936823 0
56 0.003168545733561909 0.001355596416523807 0
57 0.001566502571707464 0.000516125321463433 0
58 0.002806482271344856 0.0005148727839181071 0
59 0.00158165944477657 0.00151485223613943 0
60 0.002485467664703291 0.001447397757686933 0
61 0.001126891246641724 0.0004693608093087234 0
62 0.003538737897379011 0.001117736850777549 0
63 0.0004229306519780106 0.001128049464093676 0
64 0.003576344481475322 0.001530821288782152 0
65 0.0004236555185246781 0.001530821288782152 0
66 0.003596281833116784 0.0003936496920734334 0
67 0.0004161627676447267 0.0004161627676447264 0
68 0.00240597380644543 0.0003933609047287402 0
69 0.001783704670656957 0.0009805862283693817 0
70 0.001140527631301535 0.001612976916526609 0
71 0.002859472368698465 0.001612976916526609 0
72 0.003076450990559491 0.001029419727467521 0
73 0.0009855130410285132 0.0009978667195935037 0
74 0.002238232421875 0.001 0
75 0.003151475815934473 0.0003635922564532594 0
76 0.00214185306425064 0.001646284221280669 0
77 0.001883299201256745 0.0003420936358256366 0
78 0.0007645244073856334 0.0003536312540314269 0
79 0.003656076499822461 0.0007653291388040403 0
80 0.0003438459143917912 0.0007818312722502582 0
81 0.002821262439326162 0.001276259794354057 0
82 0.001182138414230901 0.001277364868379353 0
83 0.001792323493688118 0.001674415168286343 0
84 0.002467235729715352 0.0007574444741293413 0
85 0.0007567343826391103 0.00168792422980145 0
86 0.00324326561736089 0.00168792422980145 0
87 0.001307725177490453 0.0006935419895913106 0
88 0.001361116864703107 0.0002869668142187343 0
89 0.001679257940747284 0.001237045065291843 0
90 0.003722052428310928 0.001323026157279655 0
91 0.0002779475716890715 0.001323026157279656 0
92 0.002629959996111944 0.0002709087003612822 0
93 0.002404391949282058 0.001161434532115869 0
94 0.00215252810324674 0.0002662411987439361 0
95 0.002601224289476983 0.001712702203388799 0
96 0.00136455044388895 0.001743524264080067 0
97 0.0009976180009167626 0.0007440862006257865 0
98 0.003001955453573413 0.0007023953607612202 0
99 0.001822874708483079 0.0006780113086501738 0
100 0.003292575119300351 0.0009842147356520278 0
101 0.0007325752848158778 0.001113602288174324 0
102 0.001670349202252157 0.0002543104914365332 0
103 0.001573650068949809 0.0008137711954879544 0
104 0.003364321078472864 0.0002268320378962008 0
105 0.0005606686177609165 0.0013210385567206 0
106 0.003434191151854791 0.001334490749026133 0
107 0.00292150866772121 0.0002528052112378109 0
108 0.002730240061354856 0.0007269562734732728 0
109 0.0002699470721186324 0.001730764014968832 0
110 0.003730052927881368 0.001730764014968831 0
111 0.001410366372553296 0.001226218547634973 0
112 0.002220881761666515 0.001404928065871247 0
113 0.002329778206513846 0.001797031582120993 0
114 0.001106196370900694 0.0002179658186238985 0
115 0.003795066909897694 0.0002035268289363523 0
116 0.0002437493130078262 0.0002437493130078257 0
117 0.002004347167818965 0.001066813452271275 0
118 0.00374834010611102 0.0009687655879283985 0
119 0.0002406689943690802 0.0009754934665467389 0
120 0.00333643659937025 0.000486194635269695 0
121 0.0005711885814854521 0.0002693388669736229 0
122 0.003043528061434082 0.001777985379444376 0
123 0.0009564719385659181 0.001777985379444375 0
124 0.003773060614064491 0.0006086061632488559 0
125 0.0002292984778340746 0.0006021331058525733 0
126 0.0005417450795377507 0.000900396625282808 0
127 0.003460958448946437 0.001757152853995376 0
128 0.000539041551053564 0.001757152853995376 0
129 0.001597706676470727 0.001786558333701168 0
130 0.002565657326729948 0.0005483583971192231 0
131 0.001821070341844905 0.001420571045378919 0
132 0.001176940588497604 0.0008853455003326797 0
133 0.002375 0.0001845740701608757 0
134 0.0006434658298659652 0.0004980244214854925 0
135 0.002713340645744432 0.001450298782470098 0
136 0.001289783238016122 0.001460813483235282 0
137 0.001571034188889972 0.001046655549090876 0
138 0.0008981791413622414 0.00154991082869873 0
139 0.003099979288248636 0.001551818444796561 0
140 0.002277820600422582 0.0005529811969829814 0
141 0.0008572570166110996 0.0005505057593963249 0
142 0.003785356057334037 0.001530357400572093 0
143 0.0002146439426659627 0.001530357400572094 0
144 0.003453828533522808 0.0008501502038988095 0
145 0.001999475773247937 0.0008555295324176993 0
146 0.0009104441189767482 0.0001955813699381473 0
147 0.0019832070868464 0.001787963379987624 0
148 0.002241523325027276 0.0007935888757314791 0
149 0.0009803688656423676 0.001207689433041391 0
150 0.003023985600980759 0.001218920839591987 0
151 0.0028392756937737 0.001086114223019002 0
152 0.0008005325051406156 0.0009052920050478052 0
153 0.001340558965135687 0.0004914987336455503 0
154 0.002025359235916496 0.000473880769747588 0
155 0.003149523298433814 0.0005519319477747892 0
156 0.001160991237488826 0.001816182712877575 0
157 0.002850844943921906 0.001820732899871957 0
158 0.003125 0.0001612730960309175 0
159 0.002177242180982699 0.001185362475587818 0
160 0.002406041980577981 0.0009364561035380737 0
161 0.00351655632100844 0.0006367126645234981 0
162 0.002638988123482744 0.001212705794352011 0
163 0.003285964205856078 0.001193182358736668 0
164 0.002002253947275174 0.001515476689861946 0
165 0.00116570774089277 0.001079051121285017 0
166 0.003313502164545495 0.001486581422056966 0
167 0.0006864978354545058 0.001486581422056966 0
168 0.0001806105728230575 0.001146700521246684 0
169 0.003818085834286212 0.001148847402783718 0
170 0.003134747709832404 0.0008534330974631957 0
171 0.003579428084758019 0.0001768573270492115 0
172 0.00187922618215096 0.0001546145491278627 0
173 0.001770064847276138 0.0004743621932191118 0
174 0.0004831713482925267 0.0006514312175803016 0
175 0.003000890098331737 0.0004719395491353441 0
176 0.002947764346093394 0.001410978532377186 0
177 0.001051900355776087 0.001408817708303031 0
178 0.002140967671522177 0.001846255836677857 0
179 0.002355840997322255 0.001601668766069728 0
180 0.003826598181243583 0.0008061080239034173 0
181 0.0001734018187564172 0.0008061080239034161 0
182 0.0003983582276785688 0.0001597075138959718 0
183 0.00384726760602716 0.000395043523187744 0
184 0.0001778421116973255 0.0004024090373010251 0
185 0.0009484265438457456 0.0003648373755576796 0
186 0.001870117759438778 0.001181552783692937 0
187 0.002900260932666269 0.0008786260611565111 0
188 0.0007242514008920368 0.000173910498903989 0
189 0.003613543951361982 0.001863979022358233 0
190 0.0003864560486380188 0.001863979022358233 0
191 0.00385527346752076 0.001868348548637155 0
192 0.0001447265324792408 0.001868348548637155 0
$EndNodes
$Elements
386
1 15 2 0 1 1
2 15 2 0 2 2
3 15 2 0 3 3
4 15 2 0 4 4
5 1 2 0 1 1 5
6 1 2 0 1 5 6
7 1 2 0 1 6 7
8 1 2 0 1 7 8
9 1 2 0 1 8 9
10 1 2 0 1 9 10
11 1 2 0 1 10 11
12 1 2 0 1 11 12
13 1 2 0 1 12 13
14 1 2 0 1 13 14
15 1 2 0 1 14 15
16 1 2 0 1 15 16
17 1 2 0 1 16 17
18 1 2 0 1 17 18
19 1 2 0 1 18 19
20 1 2 0 1 19 2
21 1 2 0 2 2 20
22 1 2 0 2 20 21
23 1 2 0 2 21 22
24 1 2 0 2 22 23
25 1 2 0 2 23 24
26 1 2 0 2 24 25
27 1 2 0 2 25 26
28 1 2 0 2 26 3
29 1 2 0 3 3 27
30 1 2 0 3 27 28
31 1 2 0 3 28 29
32 1 2 0 3 29 30
33 1 2 0 3 30 31
34 1 2 0 3 31 32
35 1 2 0 3 32 33
36 1 2 0 3 33 34
37 1 2 0 3 34 35
38 1 2 0 3 35 36
39 1 2 0 3 36 37
40 1 2 0 3 37 38
41 1 2 0 3 38 39
42 1 2 0 3 39 40
43 1 2 0 3 40 41
44 1 2 0 3 41 4
45 1 2 0 4 4 42
46 1 2 0 4 42 43
47 1 2 0 4 43 44
48 1 2 0 4 44 45
49 1 2 0 4 45 46
50 1 2 0 4 46 47
51 1 2 0 4 47 48
52 1 2 0 4 48 1
53 2 2 0 1 84 108 49
54 2 2 0 1 83 129 59
55 2 2 0 1 99 173 154
56 2 2 0 1 99 154 54
57 2 2 0 1 87 97 61
58 2 2 0 1 49 160 84
59 2 2 0 1 85 123 39
60 2 2 0 1 29 122 86
61 2 2 0 1 83 147 35
62 2 2 0 1 20 115 2
63 2 2 0 1 2 115 19
64 2 2 0 1 5 116 1
65 2 2 0 1 1 116 48
66 2 2 0 1 39 128 85
67 2 2 0 1 86 127 29
68 2 2 0 1 59 131 83
69 2 2 0 1 10 88 9
70 2 2 0 1 25 90 24
71 2 2 0 1 44 91 43
72 2 2 0 1 68 140 94
73 2 2 0 1 67 174 125
74 2 2 0 1 10 102 88
75 2 2 0 1 57 103 87
76 2 2 0 1 140 154 94
77 2 2 0 1 35 129 83
78 2 2 0 1 100 163 72
79 2 2 0 1 72 163 150
80 2 2 0 1 62 144 118
81 2 2 0 1 25 142 90
82 2 2 0 1 91 143 43
83 2 2 0 1 88 102 57
84 2 2 0 1 59 129 96
85 2 2 0 1 87 103 50
86 2 2 0 1 15 92 14
87 2 2 0 1 125 174 80
88 2 2 0 1 118 144 79
89 2 2 0 1 93 162 60
90 2 2 0 1 60 162 135
91 2 2 0 1 13 94 12
92 2 2 0 1 92 133 14
93 2 2 0 1 15 107 92
94 2 2 0 1 89 131 59
95 2 2 0 1 63 105 91
96 2 2 0 1 91 105 65
97 2 2 0 1 64 106 90
98 2 2 0 1 90 106 62
99 2 2 0 1 95 179 60
100 2 2 0 1 65 167 128
101 2 2 0 1 127 166 64
102 2 2 0 1 94 172 12
103 2 2 0 1 119 126 63
104 2 2 0 1 80 126 119
105 2 2 0 1 113 179 95
106 2 2 0 1 84 130 108
107 2 2 0 1 86 166 127
108 2 2 0 1 128 167 85
109 2 2 0 1 92 107 58
110 2 2 0 1 59 111 89
111 2 2 0 1 32 95 31
112 2 2 0 1 37 96 36
113 2 2 0 1 111 165 50
114 2 2 0 1 99 103 57
115 2 2 0 1 39 123 38
116 2 2 0 1 30 122 29
117 2 2 0 1 82 165 111
118 2 2 0 1 87 153 57
119 2 2 0 1 58 130 92
120 2 2 0 1 92 130 68
121 2 2 0 1 101 105 63
122 2 2 0 1 55 105 101
123 2 2 0 1 29 127 28
124 2 2 0 1 40 128 39
125 2 2 0 1 69 103 99
126 2 2 0 1 35 147 34
127 2 2 0 1 61 153 87
128 2 2 0 1 61 114 88
129 2 2 0 1 88 114 9
130 2 2 0 1 16 107 15
131 2 2 0 1 68 133 92
132 2 2 0 1 50 132 87
133 2 2 0 1 77 172 94
134 2 2 0 1 87 132 97
135 2 2 0 1 124 161 66
136 2 2 0 1 70 136 96
137 2 2 0 1 95 135 71
138 2 2 0 1 96 136 59
139 2 2 0 1 60 135 95
140 2 2 0 1 110 142 26
141 2 2 0 1 42 143 109
142 2 2 0 1 88 153 61
143 2 2 0 1 145 148 74
144 2 2 0 1 26 142 25
145 2 2 0 1 43 143 42
146 2 2 0 1 98 108 58
147 2 2 0 1 154 173 77
148 2 2 0 1 57 153 88
149 2 2 0 1 32 113 95
150 2 2 0 1 11 102 10
151 2 2 0 1 60 112 93
152 2 2 0 1 22 124 21
153 2 2 0 1 47 125 46
154 2 2 0 1 117 145 74
155 2 2 0 1 63 126 101
156 2 2 0 1 108 187 49
157 2 2 0 1 49 187 151
158 2 2 0 1 84 140 130
159 2 2 0 1 130 140 68
160 2 2 0 1 79 161 124
161 2 2 0 1 62 169 90
162 2 2 0 1 91 168 63
163 2 2 0 1 18 104 17
164 2 2 0 1 89 137 69
165 2 2 0 1 69 186 89
166 2 2 0 1 95 157 31
167 2 2 0 1 37 156 96
168 2 2 0 1 22 180 124
169 2 2 0 1 125 181 46
170 2 2 0 1 65 128 109
171 2 2 0 1 110 127 64
172 2 2 0 1 73 152 97
173 2 2 0 1 97 152 52
174 2 2 0 1 93 160 49
175 2 2 0 1 74 160 93
176 2 2 0 1 121 134 67
177 2 2 0 1 78 134 121
178 2 2 0 1 62 163 100
179 2 2 0 1 97 141 61
180 2 2 0 1 73 149 101
181 2 2 0 1 101 149 55
182 2 2 0 1 83 164 147
183 2 2 0 1 33 113 32
184 2 2 0 1 93 159 74
185 2 2 0 1 135 176 71
186 2 2 0 1 70 177 136
187 2 2 0 1 108 130 58
188 2 2 0 1 76 164 112
189 2 2 0 1 102 173 57
190 2 2 0 1 104 158 17
191 2 2 0 1 97 132 73
192 2 2 0 1 100 144 62
193 2 2 0 1 7 188 6
194 2 2 0 1 134 174 67
195 2 2 0 1 69 137 103
196 2 2 0 1 106 163 62
197 2 2 0 1 6 188 121
198 2 2 0 1 128 190 109
199 2 2 0 1 110 189 127
200 2 2 0 1 96 129 36
201 2 2 0 1 77 173 102
202 2 2 0 1 66 120 104
203 2 2 0 1 104 120 75
204 2 2 0 1 126 152 101
205 2 2 0 1 13 133 94
206 2 2 0 1 94 133 68
207 2 2 0 1 65 143 91
208 2 2 0 1 90 142 64
209 2 2 0 1 75 158 104
210 2 2 0 1 54 145 99
211 2 2 0 1 99 145 69
212 2 2 0 1 103 137 50
213 2 2 0 1 118 169 62
214 2 2 0 1 63 168 119
215 2 2 0 1 58 175 98
216 2 2 0 1 107 175 58
217 2 2 0 1 71 157 95
218 2 2 0 1 96 156 70
219 2 2 0 1 90 169 24
220 2 2 0 1 44 168 91
221 2 2 0 1 11 172 102
222 2 2 0 1 102 172 77
223 2 2 0 1 111 137 89
224 2 2 0 1 147 164 76
225 2 2 0 1 52 141 97
226 2 2 0 1 9 114 8
227 2 2 0 1 49 162 93
228 2 2 0 1 81 176 135
229 2 2 0 1 136 177 82
230 2 2 0 1 94 154 77
231 2 2 0 1 112 179 76
232 2 2 0 1 112 164 53
233 2 2 0 1 64 166 106
234 2 2 0 1 105 167 65
235 2 2 0 1 112 159 93
236 2 2 0 1 98 155 51
237 2 2 0 1 51 170 98
238 2 2 0 1 51 144 100
239 2 2 0 1 59 136 111
240 2 2 0 1 111 136 82
241 2 2 0 1 50 137 111
242 2 2 0 1 36 129 35
243 2 2 0 1 8 146 7
244 2 2 0 1 101 152 73
245 2 2 0 1 57 173 99
246 2 2 0 1 100 170 51
247 2 2 0 1 72 170 100
248 2 2 0 1 67 184 116
249 2 2 0 1 115 183 66
250 2 2 0 1 116 182 67
251 2 2 0 1 104 171 66
252 2 2 0 1 125 184 67
253 2 2 0 1 66 183 124
254 2 2 0 1 46 181 45
255 2 2 0 1 23 180 22
256 2 2 0 1 19 171 18
257 2 2 0 1 135 162 81
258 2 2 0 1 67 182 121
259 2 2 0 1 64 142 110
260 2 2 0 1 109 143 65
261 2 2 0 1 38 156 37
262 2 2 0 1 31 157 30
263 2 2 0 1 66 161 120
264 2 2 0 1 115 171 19
265 2 2 0 1 16 158 107
266 2 2 0 1 107 158 75
267 2 2 0 1 45 181 119
268 2 2 0 1 118 180 23
269 2 2 0 1 150 163 56
270 2 2 0 1 54 148 145
271 2 2 0 1 52 152 126
272 2 2 0 1 14 133 13
273 2 2 0 1 131 164 83
274 2 2 0 1 89 186 131
275 2 2 0 1 131 186 53
276 2 2 0 1 75 175 107
277 2 2 0 1 56 163 106
278 2 2 0 1 18 171 104
279 2 2 0 1 123 156 38
280 2 2 0 1 30 157 122
281 2 2 0 1 24 169 23
282 2 2 0 1 45 168 44
283 2 2 0 1 106 166 56
284 2 2 0 1 55 167 105
285 2 2 0 1 78 141 134
286 2 2 0 1 134 141 52
287 2 2 0 1 124 180 79
288 2 2 0 1 80 181 125
289 2 2 0 1 54 154 140
290 2 2 0 1 141 185 61
291 2 2 0 1 34 178 33
292 2 2 0 1 60 179 112
293 2 2 0 1 61 185 114
294 2 2 0 1 66 171 115
295 2 2 0 1 117 186 69
296 2 2 0 1 53 159 112
297 2 2 0 1 139 166 86
298 2 2 0 1 85 167 138
299 2 2 0 1 114 146 8
300 2 2 0 1 98 187 108
301 2 2 0 1 69 145 117
302 2 2 0 1 56 166 139
303 2 2 0 1 138 167 55
304 2 2 0 1 119 168 45
305 2 2 0 1 23 169 118
306 2 2 0 1 98 175 155
307 2 2 0 1 148 160 74
308 2 2 0 1 84 160 148
309 2 2 0 1 85 138 123
310 2 2 0 1 122 139 86
311 2 2 0 1 51 155 120
312 2 2 0 1 120 155 75
313 2 2 0 1 123 138 70
314 2 2 0 1 71 139 122
315 2 2 0 1 71 176 139
316 2 2 0 1 138 177 70
317 2 2 0 1 17 158 16
318 2 2 0 1 109 192 42
319 2 2 0 1 26 191 110
320 2 2 0 1 74 159 117
321 2 2 0 1 117 159 53
322 2 2 0 1 81 151 150
323 2 2 0 1 150 151 72
324 2 2 0 1 6 182 5
325 2 2 0 1 189 191 27
326 2 2 0 1 41 192 190
327 2 2 0 1 113 178 76
328 2 2 0 1 33 178 113
329 2 2 0 1 110 191 189
330 2 2 0 1 190 192 109
331 2 2 0 1 21 183 20
332 2 2 0 1 48 184 47
333 2 2 0 1 12 172 11
334 2 2 0 1 146 188 7
335 2 2 0 1 120 161 51
336 2 2 0 1 76 179 113
337 2 2 0 1 114 185 146
338 2 2 0 1 5 182 116
339 2 2 0 1 28 189 27
340 2 2 0 1 41 190 40
341 2 2 0 1 50 165 132
342 2 2 0 1 4 192 41
343 2 2 0 1 3 191 26
344 2 2 0 1 42 192 4
345 2 2 0 1 27 191 3
346 2 2 0 1 70 156 123
347 2 2 0 1 122 157 71
348 2 2 0 1 20 183 115
349 2 2 0 1 116 184 48
350 2 2 0 1 147 178 34
351 2 2 0 1 84 148 140
352 2 2 0 1 140 148 54
353 2 2 0 1 170 187 98
354 2 2 0 1 72 187 170
355 2 2 0 1 81 162 151
356 2 2 0 1 151 162 49
357 2 2 0 1 149 165 82
358 2 2 0 1 73 165 149
359 2 2 0 1 53 186 117
360 2 2 0 1 79 180 118
361 2 2 0 1 119 181 80
362 2 2 0 1 80 174 126
363 2 2 0 1 126 174 52
364 2 2 0 1 53 164 131
365 2 2 0 1 51 161 144
366 2 2 0 1 132 165 73
367 2 2 0 1 144 161 79
368 2 2 0 1 121 182 6
369 2 2 0 1 121 188 78
370 2 2 0 1 124 183 21
371 2 2 0 1 47 184 125
372 2 2 0 1 151 187 72
373 2 2 0 1 52 174 134
374 2 2 0 1 139 176 56
375 2 2 0 1 55 177 138
376 2 2 0 1 40 190 128
377 2 2 0 1 127 189 28
378 2 2 0 1 78 185 141
379 2 2 0 1 56 176 150
380 2 2 0 1 149 177 55
381 2 2 0 1 76 178 147
382 2 2 0 1 150 176 81
383 2 2 0 1 82 177 149
384 2 2 0 1 155 175 75
385 2 2 0 1 146 185 78
386 2 2 0 1 78 188 146
$EndElements
